<svg xmlns="http://www.w3.org/2000/svg" xmlns:xlink="http://www.w3.org/1999/xlink" width="375" viewBox="0 0 375 225" height="225" version="1.0"><defs><clipPath id="a"><path d="M 329.679688 94.410156 L 335.945312 94.410156 L 335.945312 100.667969 L 329.679688 100.667969 Z M 329.679688 94.410156"/></clipPath><clipPath id="b"><path d="M 164.691406 136.65625 L 171 136.65625 L 171 142.5 L 164.691406 142.5 Z M 164.691406 136.65625"/></clipPath><clipPath id="c"><path d="M 38.09375 86 L 49 86 L 49 98 L 38.09375 98 Z M 38.09375 86"/></clipPath><clipPath id="d"><path d="M 74.652344 24.78125 L 274.851562 24.78125 L 274.851562 87.890625 L 74.652344 87.890625 Z M 74.652344 24.78125"/></clipPath><clipPath id="e"><path d="M 78.261719 47.410156 C 78.261719 47.410156 78.105469 47.578125 77.800781 47.90625 C 77.5 48.238281 77.082031 48.757812 76.625 49.488281 C 75.726562 50.945312 74.773438 53.414062 74.878906 56.648438 C 74.96875 59.855469 76.089844 63.738281 78.511719 67.496094 C 80.910156 71.269531 84.609375 74.863281 89.472656 77.453125 C 94.261719 80.140625 99.84375 82.378906 105.960938 83.84375 C 112.070312 85.332031 118.707031 86.050781 125.566406 86.0625 C 132.429688 86.078125 139.515625 85.390625 146.617188 84.15625 C 153.722656 82.921875 160.855469 81.15625 167.871094 79.023438 C 181.90625 74.75 195.488281 69.046875 207.875 63.046875 C 220.269531 57.039062 231.488281 50.726562 240.917969 45.03125 C 250.351562 39.332031 258.003906 34.25 263.289062 30.609375 C 265.929688 28.785156 267.980469 27.324219 269.367188 26.320312 C 270.734375 25.316406 271.460938 24.78125 271.460938 24.78125 L 274.851562 29.417969 C 274.851562 29.417969 274.078125 29.957031 272.628906 30.96875 C 271.183594 31.960938 269.0625 33.394531 266.339844 35.175781 C 260.890625 38.734375 253.03125 43.679688 243.355469 49.199219 C 233.683594 54.71875 222.199219 60.816406 209.523438 66.574219 C 196.855469 72.332031 182.980469 77.757812 168.65625 81.738281 C 161.496094 83.722656 154.222656 85.332031 146.980469 86.40625 C 139.738281 87.484375 132.519531 88 125.542969 87.8125 C 118.566406 87.632812 111.832031 86.730469 105.648438 85.0625 C 99.460938 83.417969 93.859375 81.011719 89.058594 78.160156 C 86.664062 76.769531 84.445312 75.171875 82.628906 73.382812 C 80.792969 71.613281 79.285156 69.691406 78.105469 67.75 C 75.726562 63.871094 74.675781 59.90625 74.65625 56.652344 C 74.617188 53.371094 75.640625 50.902344 76.578125 49.457031 C 77.050781 48.734375 77.484375 48.21875 77.789062 47.898438 C 78.101562 47.574219 78.261719 47.410156 78.261719 47.410156 Z M 78.261719 47.410156"/></clipPath><clipPath id="f"><path d="M 78.261719 47.410156 C 78.261719 47.410156 78.105469 47.578125 77.800781 47.90625 C 77.5 48.238281 77.082031 48.757812 76.625 49.488281 C 75.726562 50.945312 74.773438 53.414062 74.878906 56.648438 C 74.96875 59.855469 76.089844 63.738281 78.511719 67.496094 C 80.910156 71.269531 84.609375 74.863281 89.472656 77.453125 C 94.261719 80.140625 99.84375 82.378906 105.960938 83.84375 C 112.070312 85.332031 118.707031 86.050781 125.566406 86.0625 C 132.429688 86.078125 139.515625 85.390625 146.617188 84.15625 C 153.722656 82.921875 160.855469 81.15625 167.871094 79.023438 C 181.90625 74.75 195.488281 69.046875 207.875 63.046875 C 220.269531 57.039062 231.488281 50.726562 240.917969 45.03125 C 250.351562 39.332031 258.003906 34.25 263.289062 30.609375 C 265.929688 28.785156 267.980469 27.324219 269.367188 26.320312 C 270.734375 25.316406 271.460938 24.78125 271.460938 24.78125 L 274.851562 29.417969 C 274.851562 29.417969 274.078125 29.957031 272.628906 30.96875 C 271.183594 31.960938 269.0625 33.394531 266.339844 35.175781 C 260.890625 38.734375 253.03125 43.679688 243.355469 49.199219 C 233.683594 54.71875 222.199219 60.816406 209.523438 66.574219 C 196.855469 72.332031 182.980469 77.757812 168.65625 81.738281 C 161.496094 83.722656 154.222656 85.332031 146.980469 86.40625 C 139.738281 87.484375 132.519531 88 125.542969 87.8125 C 118.566406 87.632812 111.832031 86.730469 105.648438 85.0625 C 99.460938 83.417969 93.859375 81.011719 89.058594 78.160156 C 86.664062 76.769531 84.445312 75.171875 82.628906 73.382812 C 80.792969 71.613281 79.285156 69.691406 78.105469 67.75 C 75.726562 63.871094 74.675781 59.90625 74.65625 56.652344 C 74.617188 53.371094 75.640625 50.902344 76.578125 49.457031 C 77.050781 48.734375 77.484375 48.21875 77.789062 47.898438 C 78.101562 47.574219 78.261719 47.410156 78.261719 47.410156"/></clipPath><clipPath id="h"><path d="M 59.558594 52.265625 L 318 52.265625 L 318 99.863281 L 59.558594 99.863281 Z M 59.558594 52.265625"/></clipPath><clipPath id="i"><path d="M 61.300781 52.265625 C 61.300781 52.265625 61.191406 52.523438 60.976562 53.027344 C 60.78125 53.535156 60.492188 54.292969 60.238281 55.316406 C 59.726562 57.339844 59.351562 60.519531 60.367188 64.335938 C 61.34375 68.140625 63.699219 72.425781 67.332031 76.5 C 70.960938 80.578125 75.804688 84.527344 81.675781 87.773438 C 83.148438 88.578125 84.679688 89.335938 86.285156 90.019531 C 87.070312 90.355469 87.917969 90.664062 88.742188 90.988281 C 89.574219 91.316406 90.414062 91.648438 91.269531 91.921875 C 92.125 92.210938 92.988281 92.503906 93.859375 92.800781 C 94.742188 93.058594 95.628906 93.320312 96.523438 93.585938 C 97.417969 93.863281 98.328125 94.097656 99.25 94.320312 C 100.171875 94.546875 101.09375 94.800781 102.03125 95.003906 C 105.785156 95.851562 109.679688 96.523438 113.683594 97.058594 C 117.691406 97.546875 121.800781 97.9375 125.996094 98.128906 C 134.382812 98.527344 143.074219 98.363281 151.867188 97.703125 C 160.660156 97.078125 169.558594 95.949219 178.40625 94.539062 C 187.253906 93.105469 196.050781 91.363281 204.652344 89.398438 C 213.257812 87.449219 221.667969 85.269531 229.765625 83.011719 C 245.957031 78.484375 260.871094 73.570312 273.542969 69.0625 C 286.214844 64.546875 296.644531 60.445312 303.902344 57.472656 C 307.527344 55.988281 310.359375 54.785156 312.285156 53.957031 C 313.246094 53.539062 313.980469 53.21875 314.476562 53.003906 C 314.722656 52.894531 314.90625 52.8125 315.03125 52.757812 L 315.078125 52.734375 L 315.097656 52.726562 L 315.105469 52.722656 L 315.109375 52.722656 L 315.050781 52.75 C 314.707031 52.902344 314.367188 53.257812 314.222656 53.578125 C 313.949219 54.234375 314.070312 54.476562 314.042969 54.476562 L 317.972656 54.476562 C 317.945312 54.472656 318.039062 54.730469 317.699219 55.414062 C 317.519531 55.746094 317.144531 56.121094 316.75 56.296875 C 316.710938 56.3125 316.660156 56.335938 316.601562 56.359375 C 316.472656 56.414062 316.28125 56.5 316.027344 56.605469 C 315.523438 56.816406 314.773438 57.132812 313.792969 57.539062 C 311.835938 58.351562 308.96875 59.523438 305.296875 60.96875 C 297.957031 63.855469 287.417969 67.835938 274.628906 72.191406 C 261.835938 76.542969 246.792969 81.273438 230.464844 85.597656 C 222.304688 87.75 213.824219 89.824219 205.148438 91.664062 C 196.480469 93.515625 187.617188 95.144531 178.703125 96.464844 C 169.789062 97.761719 160.824219 98.769531 151.96875 99.277344 C 143.113281 99.816406 134.367188 99.863281 125.929688 99.34375 C 121.710938 99.09375 117.574219 98.640625 113.542969 98.09375 C 109.519531 97.496094 105.601562 96.769531 101.832031 95.863281 C 100.886719 95.644531 99.960938 95.375 99.039062 95.136719 C 98.109375 94.898438 97.195312 94.648438 96.300781 94.355469 C 95.398438 94.078125 94.507812 93.800781 93.621094 93.527344 C 92.746094 93.214844 91.878906 92.910156 91.015625 92.601562 C 90.148438 92.3125 89.316406 91.96875 88.488281 91.628906 C 87.660156 91.289062 86.847656 90.980469 86.023438 90.617188 C 84.410156 89.90625 82.867188 89.117188 81.390625 88.28125 C 75.503906 84.925781 70.679688 80.886719 67.074219 76.730469 C 63.464844 72.578125 61.148438 68.222656 60.210938 64.375 C 59.238281 60.519531 59.65625 57.324219 60.195312 55.304688 C 60.464844 54.28125 60.765625 53.527344 60.96875 53.023438 C 61.1875 52.523438 61.300781 52.265625 61.300781 52.265625 Z M 61.300781 52.265625"/></clipPath><clipPath id="j"><path d="M 61.300781 52.265625 C 61.300781 52.265625 61.191406 52.523438 60.976562 53.027344 C 60.78125 53.535156 60.492188 54.292969 60.238281 55.316406 C 59.726562 57.339844 59.351562 60.519531 60.367188 64.335938 C 61.34375 68.140625 63.699219 72.425781 67.332031 76.5 C 70.960938 80.578125 75.804688 84.527344 81.675781 87.773438 C 83.148438 88.578125 84.679688 89.335938 86.285156 90.019531 C 87.070312 90.355469 87.917969 90.664062 88.742188 90.988281 C 89.574219 91.316406 90.414062 91.648438 91.269531 91.921875 C 92.125 92.210938 92.988281 92.503906 93.859375 92.800781 C 94.742188 93.058594 95.628906 93.320312 96.523438 93.585938 C 97.417969 93.863281 98.328125 94.097656 99.25 94.320312 C 100.171875 94.546875 101.09375 94.800781 102.03125 95.003906 C 105.785156 95.851562 109.679688 96.523438 113.683594 97.058594 C 117.691406 97.546875 121.800781 97.9375 125.996094 98.128906 C 134.382812 98.527344 143.074219 98.363281 151.867188 97.703125 C 160.660156 97.078125 169.558594 95.949219 178.40625 94.539062 C 187.253906 93.105469 196.050781 91.363281 204.652344 89.398438 C 213.257812 87.449219 221.667969 85.269531 229.765625 83.011719 C 245.957031 78.484375 260.871094 73.570312 273.542969 69.0625 C 286.214844 64.546875 296.644531 60.445312 303.902344 57.472656 C 307.527344 55.988281 310.359375 54.785156 312.285156 53.957031 C 313.246094 53.539062 313.980469 53.21875 314.476562 53.003906 C 314.722656 52.894531 314.90625 52.8125 315.03125 52.757812 L 315.078125 52.734375 L 315.097656 52.726562 L 315.105469 52.722656 L 315.109375 52.722656 L 315.050781 52.75 C 314.707031 52.902344 314.367188 53.257812 314.222656 53.578125 C 313.949219 54.234375 314.070312 54.476562 314.042969 54.476562 L 317.972656 54.476562 C 317.945312 54.472656 318.039062 54.730469 317.699219 55.414062 C 317.519531 55.746094 317.144531 56.121094 316.75 56.296875 C 316.710938 56.3125 316.660156 56.335938 316.601562 56.359375 C 316.472656 56.414062 316.28125 56.5 316.027344 56.605469 C 315.523438 56.816406 314.773438 57.132812 313.792969 57.539062 C 311.835938 58.351562 308.96875 59.523438 305.296875 60.96875 C 297.957031 63.855469 287.417969 67.835938 274.628906 72.191406 C 261.835938 76.542969 246.792969 81.273438 230.464844 85.597656 C 222.304688 87.75 213.824219 89.824219 205.148438 91.664062 C 196.480469 93.515625 187.617188 95.144531 178.703125 96.464844 C 169.789062 97.761719 160.824219 98.769531 151.96875 99.277344 C 143.113281 99.816406 134.367188 99.863281 125.929688 99.34375 C 121.710938 99.09375 117.574219 98.640625 113.542969 98.09375 C 109.519531 97.496094 105.601562 96.769531 101.832031 95.863281 C 100.886719 95.644531 99.960938 95.375 99.039062 95.136719 C 98.109375 94.898438 97.195312 94.648438 96.300781 94.355469 C 95.398438 94.078125 94.507812 93.800781 93.621094 93.527344 C 92.746094 93.214844 91.878906 92.910156 91.015625 92.601562 C 90.148438 92.3125 89.316406 91.96875 88.488281 91.628906 C 87.660156 91.289062 86.847656 90.980469 86.023438 90.617188 C 84.410156 89.90625 82.867188 89.117188 81.390625 88.28125 C 75.503906 84.925781 70.679688 80.886719 67.074219 76.730469 C 63.464844 72.578125 61.148438 68.222656 60.210938 64.375 C 59.238281 60.519531 59.65625 57.324219 60.195312 55.304688 C 60.464844 54.28125 60.765625 53.527344 60.96875 53.023438 C 61.1875 52.523438 61.300781 52.265625 61.300781 52.265625"/></clipPath><clipPath id="l"><path d="M 76.214844 66.03125 L 294.742188 66.03125 L 294.742188 119.867188 L 76.214844 119.867188 Z M 76.214844 66.03125"/></clipPath><clipPath id="m"><path d="M 88.390625 66.03125 C 88.390625 66.03125 88.167969 66.144531 87.730469 66.359375 C 87.292969 66.574219 86.652344 66.910156 85.839844 67.386719 C 84.246094 68.355469 81.863281 69.890625 79.703125 72.667969 C 78.652344 74.0625 77.6875 75.78125 77.148438 77.820312 C 76.589844 79.847656 76.460938 82.167969 76.855469 84.566406 C 77.628906 89.382812 80.40625 94.375 84.4375 98.777344 C 88.480469 103.195312 93.792969 107.125 99.992188 110.035156 C 103.097656 111.488281 106.410156 112.660156 109.917969 113.5 C 113.425781 114.390625 117.019531 115.136719 120.730469 115.730469 C 128.140625 116.910156 135.878906 117.582031 143.757812 117.828125 C 151.636719 118.09375 159.65625 117.941406 167.65625 117.53125 C 183.667969 116.695312 199.609375 114.753906 214.457031 112.414062 C 229.308594 110.066406 243.078125 107.308594 254.820312 104.703125 C 266.5625 102.09375 276.28125 99.632812 283.058594 97.835938 C 286.449219 96.9375 289.101562 96.199219 290.90625 95.691406 C 292.699219 95.175781 293.65625 94.898438 293.65625 94.898438 L 294.742188 98.679688 C 294.742188 98.679688 293.765625 98.949219 291.929688 99.445312 C 290.101562 99.933594 287.417969 100.632812 283.996094 101.488281 C 277.152344 103.195312 267.347656 105.519531 255.515625 107.964844 C 243.679688 110.40625 229.8125 112.96875 214.859375 115.101562 C 199.90625 117.230469 183.859375 118.941406 167.746094 119.542969 C 159.695312 119.832031 151.625 119.867188 143.695312 119.480469 C 135.761719 119.117188 127.972656 118.320312 120.511719 117.019531 C 116.792969 116.367188 113.136719 115.550781 109.628906 114.605469 C 106.09375 113.699219 102.703125 112.441406 99.574219 110.910156 C 93.3125 107.84375 87.988281 103.769531 83.953125 99.214844 C 79.929688 94.679688 77.1875 89.554688 76.472656 84.625 C 76.109375 82.171875 76.28125 79.804688 76.882812 77.746094 C 77.46875 75.679688 78.476562 73.949219 79.5625 72.558594 C 81.792969 69.785156 84.203125 68.289062 85.816406 67.347656 C 86.636719 66.882812 87.285156 66.554688 87.722656 66.351562 C 88.164062 66.140625 88.390625 66.03125 88.390625 66.03125 Z M 88.390625 66.03125"/></clipPath><clipPath id="n"><path d="M 88.390625 66.03125 C 88.390625 66.03125 88.167969 66.144531 87.730469 66.359375 C 87.292969 66.574219 86.652344 66.910156 85.839844 67.386719 C 84.246094 68.355469 81.863281 69.890625 79.703125 72.667969 C 78.652344 74.0625 77.6875 75.78125 77.148438 77.820312 C 76.589844 79.847656 76.460938 82.167969 76.855469 84.566406 C 77.628906 89.382812 80.40625 94.375 84.4375 98.777344 C 88.480469 103.195312 93.792969 107.125 99.992188 110.035156 C 103.097656 111.488281 106.410156 112.660156 109.917969 113.5 C 113.425781 114.390625 117.019531 115.136719 120.730469 115.730469 C 128.140625 116.910156 135.878906 117.582031 143.757812 117.828125 C 151.636719 118.09375 159.65625 117.941406 167.65625 117.53125 C 183.667969 116.695312 199.609375 114.753906 214.457031 112.414062 C 229.308594 110.066406 243.078125 107.308594 254.820312 104.703125 C 266.5625 102.09375 276.28125 99.632812 283.058594 97.835938 C 286.449219 96.9375 289.101562 96.199219 290.90625 95.691406 C 292.699219 95.175781 293.65625 94.898438 293.65625 94.898438 L 294.742188 98.679688 C 294.742188 98.679688 293.765625 98.949219 291.929688 99.445312 C 290.101562 99.933594 287.417969 100.632812 283.996094 101.488281 C 277.152344 103.195312 267.347656 105.519531 255.515625 107.964844 C 243.679688 110.40625 229.8125 112.96875 214.859375 115.101562 C 199.90625 117.230469 183.859375 118.941406 167.746094 119.542969 C 159.695312 119.832031 151.625 119.867188 143.695312 119.480469 C 135.761719 119.117188 127.972656 118.320312 120.511719 117.019531 C 116.792969 116.367188 113.136719 115.550781 109.628906 114.605469 C 106.09375 113.699219 102.703125 112.441406 99.574219 110.910156 C 93.3125 107.84375 87.988281 103.769531 83.953125 99.214844 C 79.929688 94.679688 77.1875 89.554688 76.472656 84.625 C 76.109375 82.171875 76.28125 79.804688 76.882812 77.746094 C 77.46875 75.679688 78.476562 73.949219 79.5625 72.558594 C 81.792969 69.785156 84.203125 68.289062 85.816406 67.347656 C 86.636719 66.882812 87.285156 66.554688 87.722656 66.351562 C 88.164062 66.140625 88.390625 66.03125 88.390625 66.03125"/></clipPath><linearGradient x1=".014" gradientTransform="matrix(202.95732 0 0 203.39864 71.894 56.318)" xmlns:xlink="http://www.w3.org/1999/xlink" y1="0" x2="1" gradientUnits="userSpaceOnUse" y2="0" xlink:type="simple" xlink:actuate="onLoad" id="g" xlink:show="other"><stop stop-color="#555" offset="0"/><stop stop-color="#555" offset=".008"/><stop stop-color="#545454" offset=".012"/><stop stop-color="#545454" offset=".016"/><stop stop-color="#535353" offset=".02"/><stop stop-color="#535353" offset=".023"/><stop stop-color="#525252" offset=".031"/><stop stop-color="#525252" offset=".039"/><stop stop-color="#515151" offset=".047"/><stop stop-color="#505050" offset=".055"/><stop stop-color="#4F4F4F" offset=".059"/><stop stop-color="#4E4E4E" offset=".063"/><stop stop-color="#4D4D4D" offset=".066"/><stop stop-color="#4D4D4D" offset=".07"/><stop stop-color="#4C4C4C" offset=".078"/><stop stop-color="#4B4B4B" offset=".086"/><stop stop-color="#4A4A4A" offset=".094"/><stop stop-color="#494949" offset=".098"/><stop stop-color="#494949" offset=".102"/><stop stop-color="#484848" offset=".105"/><stop stop-color="#484848" offset=".109"/><stop stop-color="#474747" offset=".117"/><stop stop-color="#464646" offset=".125"/><stop stop-color="#464646" offset=".141"/><stop stop-color="#454545" offset=".145"/><stop stop-color="#444" offset=".148"/><stop stop-color="#434343" offset=".156"/><stop stop-color="#424242" offset=".164"/><stop stop-color="#414141" offset=".172"/><stop stop-color="#404040" offset=".18"/><stop stop-color="#3F3F3F" offset=".188"/><stop stop-color="#3E3E3E" offset=".191"/><stop stop-color="#3E3E3E" offset=".195"/><stop stop-color="#3D3D3D" offset=".203"/><stop stop-color="#3C3C3C" offset=".219"/><stop stop-color="#3B3B3B" offset=".227"/><stop stop-color="#3A3A3A" offset=".23"/><stop stop-color="#3A3A3A" offset=".234"/><stop stop-color="#393939" offset=".242"/><stop stop-color="#393939" offset=".25"/><stop stop-color="#383838" offset=".258"/><stop stop-color="#373737" offset=".266"/><stop stop-color="#363636" offset=".27"/><stop stop-color="#353535" offset=".273"/><stop stop-color="#353535" offset=".281"/><stop stop-color="#343434" offset=".289"/><stop stop-color="#333" offset=".297"/><stop stop-color="#323232" offset=".305"/><stop stop-color="#313131" offset=".313"/><stop stop-color="#303030" offset=".316"/><stop stop-color="#303030" offset=".32"/><stop stop-color="#303030" offset=".328"/><stop stop-color="#2F2F2F" offset=".336"/><stop stop-color="#2E2E2E" offset=".344"/><stop stop-color="#2D2D2D" offset=".352"/><stop stop-color="#2C2C2C" offset=".359"/><stop stop-color="#2C2C2C" offset=".367"/><stop stop-color="#2C2C2C" offset=".375"/><stop stop-color="#2B2B2B" offset=".383"/><stop stop-color="#2A2A2A" offset=".391"/><stop stop-color="#292929" offset=".395"/><stop stop-color="#282828" offset=".398"/><stop stop-color="#282828" offset=".406"/><stop stop-color="#272727" offset=".414"/><stop stop-color="#262626" offset=".422"/><stop stop-color="#252525" offset=".438"/><stop stop-color="#242424" offset=".441"/><stop stop-color="#242424" offset=".445"/><stop stop-color="#232323" offset=".453"/><stop stop-color="#222" offset=".469"/><stop stop-color="#212121" offset=".477"/><stop stop-color="#202020" offset=".48"/><stop stop-color="#202020" offset=".484"/><stop stop-color="#1F1F1F" offset=".5"/><stop stop-color="#1F1F1F" offset=".508"/><stop stop-color="#1E1E1E" offset=".516"/><stop stop-color="#1D1D1D" offset=".523"/><stop stop-color="#1C1C1C" offset=".531"/><stop stop-color="#1B1B1B" offset=".547"/><stop stop-color="#1B1B1B" offset=".555"/><stop stop-color="#1A1A1A" offset=".563"/><stop stop-color="#191919" offset=".57"/><stop stop-color="#181818" offset=".578"/><stop stop-color="#171717" offset=".594"/><stop stop-color="#161616" offset=".602"/><stop stop-color="#151515" offset=".605"/><stop stop-color="#151515" offset=".609"/><stop stop-color="#151515" offset=".617"/><stop stop-color="#141414" offset=".625"/><stop stop-color="#141414" offset=".641"/><stop stop-color="#131313" offset=".645"/><stop stop-color="#121212" offset=".648"/><stop stop-color="#121212" offset=".656"/><stop stop-color="#121212" offset=".672"/><stop stop-color="#111" offset=".68"/><stop stop-color="#101010" offset=".688"/><stop stop-color="#0F0F0F" offset=".695"/><stop stop-color="#0F0F0F" offset=".703"/><stop stop-color="#0E0E0E" offset=".711"/><stop stop-color="#0E0E0E" offset=".719"/><stop stop-color="#0D0D0D" offset=".727"/><stop stop-color="#0C0C0C" offset=".73"/><stop stop-color="#0C0C0C" offset=".734"/><stop stop-color="#0C0C0C" offset=".742"/><stop stop-color="#0B0B0B" offset=".75"/><stop stop-color="#0A0A0A" offset=".766"/><stop stop-color="#0A0A0A" offset=".773"/><stop stop-color="#090909" offset=".781"/><stop stop-color="#080808" offset=".813"/><stop stop-color="#080808" offset=".82"/><stop stop-color="#070707" offset=".828"/><stop stop-color="#060606" offset=".844"/><stop stop-color="#060606" offset=".852"/><stop stop-color="#050505" offset=".859"/><stop stop-color="#050505" offset=".875"/><stop stop-color="#040404" offset=".891"/><stop stop-color="#040404" offset=".898"/><stop stop-color="#030303" offset=".906"/><stop stop-color="#030303" offset=".922"/><stop stop-color="#020202" offset=".938"/><stop stop-color="#020202" offset=".953"/><stop stop-color="#010101" offset=".969"/><stop stop-color="#010101" offset=".984"/><stop offset="1"/></linearGradient><linearGradient x1=".007" gradientTransform="matrix(259.09146 0 0 259.65485 57.71 75.988)" xmlns:xlink="http://www.w3.org/1999/xlink" y1="0" x2="1.005" gradientUnits="userSpaceOnUse" y2="0" xlink:type="simple" xlink:actuate="onLoad" id="k" xlink:show="other"><stop stop-color="#565656" offset="0"/><stop stop-color="#555" offset=".004"/><stop stop-color="#555" offset=".008"/><stop stop-color="#545454" offset=".012"/><stop stop-color="#545454" offset=".016"/><stop stop-color="#545454" offset=".023"/><stop stop-color="#535353" offset=".031"/><stop stop-color="#525252" offset=".039"/><stop stop-color="#515151" offset=".047"/><stop stop-color="#505050" offset=".055"/><stop stop-color="#4F4F4F" offset=".059"/><stop stop-color="#4F4F4F" offset=".063"/><stop stop-color="#4E4E4E" offset=".066"/><stop stop-color="#4E4E4E" offset=".07"/><stop stop-color="#4D4D4D" offset=".078"/><stop stop-color="#4C4C4C" offset=".086"/><stop stop-color="#4B4B4B" offset=".094"/><stop stop-color="#4A4A4A" offset=".098"/><stop stop-color="#4A4A4A" offset=".102"/><stop stop-color="#494949" offset=".105"/><stop stop-color="#494949" offset=".109"/><stop stop-color="#484848" offset=".117"/><stop stop-color="#474747" offset=".125"/><stop stop-color="#464646" offset=".133"/><stop stop-color="#464646" offset=".137"/><stop stop-color="#454545" offset=".141"/><stop stop-color="#444" offset=".145"/><stop stop-color="#444" offset=".148"/><stop stop-color="#434343" offset=".156"/><stop stop-color="#424242" offset=".172"/><stop stop-color="#414141" offset=".18"/><stop stop-color="#404040" offset=".184"/><stop stop-color="#404040" offset=".188"/><stop stop-color="#3F3F3F" offset=".191"/><stop stop-color="#3F3F3F" offset=".195"/><stop stop-color="#3E3E3E" offset=".203"/><stop stop-color="#3D3D3D" offset=".211"/><stop stop-color="#3C3C3C" offset=".219"/><stop stop-color="#3B3B3B" offset=".223"/><stop stop-color="#3B3B3B" offset=".227"/><stop stop-color="#3A3A3A" offset=".23"/><stop stop-color="#3A3A3A" offset=".234"/><stop stop-color="#393939" offset=".25"/><stop stop-color="#393939" offset=".258"/><stop stop-color="#383838" offset=".262"/><stop stop-color="#373737" offset=".266"/><stop stop-color="#363636" offset=".27"/><stop stop-color="#363636" offset=".273"/><stop stop-color="#353535" offset=".281"/><stop stop-color="#343434" offset=".289"/><stop stop-color="#333" offset=".297"/><stop stop-color="#333" offset=".305"/><stop stop-color="#323232" offset=".313"/><stop stop-color="#313131" offset=".316"/><stop stop-color="#313131" offset=".32"/><stop stop-color="#303030" offset=".328"/><stop stop-color="#2F2F2F" offset=".336"/><stop stop-color="#2E2E2E" offset=".344"/><stop stop-color="#2E2E2E" offset=".352"/><stop stop-color="#2D2D2D" offset=".355"/><stop stop-color="#2D2D2D" offset=".359"/><stop stop-color="#2C2C2C" offset=".367"/><stop stop-color="#2C2C2C" offset=".375"/><stop stop-color="#2B2B2B" offset=".391"/><stop stop-color="#292929" offset=".395"/><stop stop-color="#292929" offset=".398"/><stop stop-color="#282828" offset=".406"/><stop stop-color="#272727" offset=".414"/><stop stop-color="#262626" offset=".422"/><stop stop-color="#262626" offset=".43"/><stop stop-color="#252525" offset=".438"/><stop stop-color="#242424" offset=".441"/><stop stop-color="#242424" offset=".445"/><stop stop-color="#232323" offset=".453"/><stop stop-color="#232323" offset=".461"/><stop stop-color="#222" offset=".469"/><stop stop-color="#212121" offset=".477"/><stop stop-color="#202020" offset=".48"/><stop stop-color="#202020" offset=".484"/><stop stop-color="#1F1F1F" offset=".5"/><stop stop-color="#1F1F1F" offset=".516"/><stop stop-color="#1E1E1E" offset=".52"/><stop stop-color="#1D1D1D" offset=".523"/><stop stop-color="#1C1C1C" offset=".531"/><stop stop-color="#1B1B1B" offset=".547"/><stop stop-color="#1A1A1A" offset=".555"/><stop stop-color="#1A1A1A" offset=".563"/><stop stop-color="#191919" offset=".57"/><stop stop-color="#181818" offset=".578"/><stop stop-color="#171717" offset=".594"/><stop stop-color="#161616" offset=".602"/><stop stop-color="#151515" offset=".605"/><stop stop-color="#151515" offset=".609"/><stop stop-color="#151515" offset=".617"/><stop stop-color="#141414" offset=".625"/><stop stop-color="#141414" offset=".641"/><stop stop-color="#131313" offset=".645"/><stop stop-color="#121212" offset=".648"/><stop stop-color="#121212" offset=".656"/><stop stop-color="#121212" offset=".672"/><stop stop-color="#111" offset=".68"/><stop stop-color="#101010" offset=".688"/><stop stop-color="#0F0F0F" offset=".695"/><stop stop-color="#0F0F0F" offset=".703"/><stop stop-color="#0E0E0E" offset=".711"/><stop stop-color="#0E0E0E" offset=".719"/><stop stop-color="#0D0D0D" offset=".727"/><stop stop-color="#0C0C0C" offset=".73"/><stop stop-color="#0C0C0C" offset=".734"/><stop stop-color="#0C0C0C" offset=".742"/><stop stop-color="#0B0B0B" offset=".75"/><stop stop-color="#0A0A0A" offset=".766"/><stop stop-color="#0A0A0A" offset=".773"/><stop stop-color="#090909" offset=".781"/><stop stop-color="#080808" offset=".797"/><stop stop-color="#070707" offset=".813"/><stop stop-color="#070707" offset=".844"/><stop stop-color="#060606" offset=".852"/><stop stop-color="#050505" offset=".859"/><stop stop-color="#050505" offset=".875"/><stop stop-color="#040404" offset=".891"/><stop stop-color="#030303" offset=".906"/><stop stop-color="#030303" offset=".922"/><stop stop-color="#020202" offset=".938"/><stop stop-color="#020202" offset=".953"/><stop stop-color="#010101" offset=".969"/><stop stop-color="#010101" offset=".984"/><stop offset="1"/></linearGradient><linearGradient x1=".008" gradientTransform="matrix(220.25781 0 0 220.73676 74.487 92.9)" xmlns:xlink="http://www.w3.org/1999/xlink" y1="0" x2="1" gradientUnits="userSpaceOnUse" y2="0" xlink:type="simple" xlink:actuate="onLoad" id="o" xlink:show="other"><stop stop-color="#565656" offset="0"/><stop stop-color="#565656" offset=".008"/><stop stop-color="#555" offset=".012"/><stop stop-color="#555" offset=".016"/><stop stop-color="#545454" offset=".02"/><stop stop-color="#545454" offset=".023"/><stop stop-color="#535353" offset=".031"/><stop stop-color="#525252" offset=".039"/><stop stop-color="#515151" offset=".047"/><stop stop-color="#515151" offset=".055"/><stop stop-color="#505050" offset=".059"/><stop stop-color="#4F4F4F" offset=".063"/><stop stop-color="#4E4E4E" offset=".066"/><stop stop-color="#4E4E4E" offset=".07"/><stop stop-color="#4D4D4D" offset=".078"/><stop stop-color="#4C4C4C" offset=".086"/><stop stop-color="#4B4B4B" offset=".094"/><stop stop-color="#4A4A4A" offset=".098"/><stop stop-color="#4A4A4A" offset=".102"/><stop stop-color="#494949" offset=".105"/><stop stop-color="#494949" offset=".109"/><stop stop-color="#484848" offset=".117"/><stop stop-color="#474747" offset=".125"/><stop stop-color="#464646" offset=".133"/><stop stop-color="#464646" offset=".137"/><stop stop-color="#454545" offset=".141"/><stop stop-color="#444" offset=".145"/><stop stop-color="#444" offset=".148"/><stop stop-color="#434343" offset=".156"/><stop stop-color="#424242" offset=".164"/><stop stop-color="#414141" offset=".172"/><stop stop-color="#414141" offset=".18"/><stop stop-color="#404040" offset=".184"/><stop stop-color="#404040" offset=".188"/><stop stop-color="#3F3F3F" offset=".191"/><stop stop-color="#3F3F3F" offset=".195"/><stop stop-color="#3E3E3E" offset=".203"/><stop stop-color="#3D3D3D" offset=".211"/><stop stop-color="#3C3C3C" offset=".219"/><stop stop-color="#3B3B3B" offset=".223"/><stop stop-color="#3B3B3B" offset=".227"/><stop stop-color="#3A3A3A" offset=".23"/><stop stop-color="#3A3A3A" offset=".234"/><stop stop-color="#393939" offset=".25"/><stop stop-color="#393939" offset=".258"/><stop stop-color="#383838" offset=".262"/><stop stop-color="#373737" offset=".266"/><stop stop-color="#363636" offset=".27"/><stop stop-color="#363636" offset=".273"/><stop stop-color="#353535" offset=".281"/><stop stop-color="#343434" offset=".289"/><stop stop-color="#333" offset=".297"/><stop stop-color="#333" offset=".305"/><stop stop-color="#323232" offset=".313"/><stop stop-color="#313131" offset=".316"/><stop stop-color="#313131" offset=".32"/><stop stop-color="#303030" offset=".328"/><stop stop-color="#2F2F2F" offset=".336"/><stop stop-color="#2E2E2E" offset=".344"/><stop stop-color="#2E2E2E" offset=".352"/><stop stop-color="#2D2D2D" offset=".355"/><stop stop-color="#2D2D2D" offset=".359"/><stop stop-color="#2C2C2C" offset=".367"/><stop stop-color="#2C2C2C" offset=".375"/><stop stop-color="#2B2B2B" offset=".391"/><stop stop-color="#292929" offset=".395"/><stop stop-color="#292929" offset=".398"/><stop stop-color="#282828" offset=".406"/><stop stop-color="#272727" offset=".422"/><stop stop-color="#262626" offset=".43"/><stop stop-color="#252525" offset=".438"/><stop stop-color="#242424" offset=".441"/><stop stop-color="#242424" offset=".445"/><stop stop-color="#232323" offset=".453"/><stop stop-color="#232323" offset=".461"/><stop stop-color="#222" offset=".469"/><stop stop-color="#212121" offset=".477"/><stop stop-color="#212121" offset=".484"/><stop stop-color="#202020" offset=".492"/><stop stop-color="#1F1F1F" offset=".5"/><stop stop-color="#1F1F1F" offset=".516"/><stop stop-color="#1E1E1E" offset=".52"/><stop stop-color="#1D1D1D" offset=".523"/><stop stop-color="#1D1D1D" offset=".531"/><stop stop-color="#1C1C1C" offset=".539"/><stop stop-color="#1B1B1B" offset=".547"/><stop stop-color="#1B1B1B" offset=".563"/><stop stop-color="#191919" offset=".566"/><stop stop-color="#191919" offset=".57"/><stop stop-color="#181818" offset=".578"/><stop stop-color="#181818" offset=".586"/><stop stop-color="#171717" offset=".594"/><stop stop-color="#161616" offset=".602"/><stop stop-color="#161616" offset=".609"/><stop stop-color="#151515" offset=".617"/><stop stop-color="#141414" offset=".625"/><stop stop-color="#141414" offset=".641"/><stop stop-color="#131313" offset=".648"/><stop stop-color="#131313" offset=".656"/><stop stop-color="#121212" offset=".672"/><stop stop-color="#111" offset=".68"/><stop stop-color="#101010" offset=".688"/><stop stop-color="#101010" offset=".691"/><stop stop-color="#0F0F0F" offset=".695"/><stop stop-color="#0E0E0E" offset=".703"/><stop stop-color="#0E0E0E" offset=".711"/><stop stop-color="#0E0E0E" offset=".719"/><stop stop-color="#0D0D0D" offset=".727"/><stop stop-color="#0C0C0C" offset=".73"/><stop stop-color="#0C0C0C" offset=".734"/><stop stop-color="#0C0C0C" offset=".742"/><stop stop-color="#0B0B0B" offset=".75"/><stop stop-color="#0B0B0B" offset=".758"/><stop stop-color="#0A0A0A" offset=".766"/><stop stop-color="#0A0A0A" offset=".773"/><stop stop-color="#090909" offset=".781"/><stop stop-color="#080808" offset=".813"/><stop stop-color="#080808" offset=".82"/><stop stop-color="#070707" offset=".828"/><stop stop-color="#060606" offset=".844"/><stop stop-color="#060606" offset=".852"/><stop stop-color="#050505" offset=".859"/><stop stop-color="#050505" offset=".875"/><stop stop-color="#040404" offset=".891"/><stop stop-color="#040404" offset=".898"/><stop stop-color="#030303" offset=".906"/><stop stop-color="#030303" offset=".922"/><stop stop-color="#020202" offset=".938"/><stop stop-color="#020202" offset=".953"/><stop stop-color="#010101" offset=".969"/><stop stop-color="#010101" offset=".984"/><stop offset="1"/></linearGradient></defs><g fill="#13293D"><g><g><path d="M 32.1875 -4.21875 C 32.613281 -3.144531 33.085938 -2.347656 33.609375 -1.828125 C 34.128906 -1.316406 34.640625 -1.039062 35.140625 -1 L 35.140625 0 C 32.734375 -0.101562 29.6875 -0.15625 26 -0.15625 C 22.175781 -0.15625 19.359375 -0.101562 17.546875 0 L 17.546875 -1 C 18.816406 -1.070312 19.71875 -1.234375 20.25 -1.484375 C 20.789062 -1.734375 21.0625 -2.175781 21.0625 -2.8125 C 21.0625 -3.414062 20.863281 -4.222656 20.46875 -5.234375 L 17.5 -13.46875 L 7.34375 -13.46875 L 6.484375 -11.21875 C 5.378906 -8.363281 4.828125 -6.179688 4.828125 -4.671875 C 4.828125 -3.296875 5.210938 -2.359375 5.984375 -1.859375 C 6.753906 -1.359375 7.894531 -1.070312 9.40625 -1 L 9.40625 0 C 6.882812 -0.101562 4.6875 -0.15625 2.8125 -0.15625 C 1.238281 -0.15625 -0.0507812 -0.101562 -1.0625 0 L -1.0625 -1 C -0.21875 -1.132812 0.566406 -1.65625 1.296875 -2.5625 C 2.035156 -3.46875 2.789062 -4.910156 3.5625 -6.890625 L 14.734375 -35.59375 C 15.804688 -35.53125 16.691406 -35.5 17.390625 -35.5 C 18.066406 -35.5 18.941406 -35.53125 20.015625 -35.59375 Z M 17.140625 -14.484375 L 12.578125 -27.046875 L 7.75 -14.484375 Z M 17.140625 -14.484375" transform="translate(111.878 180.367)"/></g></g></g><g fill="#13293D"><g><g><path d="M 15.1875 -14.375 L 15.1875 -5.828125 C 15.1875 -4.421875 15.328125 -3.398438 15.609375 -2.765625 C 15.898438 -2.128906 16.421875 -1.703125 17.171875 -1.484375 C 17.921875 -1.265625 19.117188 -1.15625 20.765625 -1.15625 L 20.765625 0 C 16.242188 -0.101562 12.789062 -0.15625 10.40625 -0.15625 C 8.832031 -0.15625 6.640625 -0.117188 3.828125 -0.046875 L 1.40625 0 L 1.40625 -1 C 2.476562 -1.070312 3.253906 -1.207031 3.734375 -1.40625 C 4.222656 -1.601562 4.550781 -1.988281 4.71875 -2.5625 C 4.894531 -3.132812 4.984375 -4.054688 4.984375 -5.328125 L 4.984375 -30.265625 C 4.984375 -31.546875 4.890625 -32.46875 4.703125 -33.03125 C 4.515625 -33.601562 4.1875 -33.988281 3.71875 -34.1875 C 3.25 -34.394531 2.476562 -34.53125 1.40625 -34.59375 L 1.40625 -35.59375 C 3.320312 -35.5 6.207031 -35.453125 10.0625 -35.453125 L 15.84375 -35.5 C 16.507812 -35.53125 17.28125 -35.546875 18.15625 -35.546875 C 23.113281 -35.546875 26.875 -34.648438 29.4375 -32.859375 C 32 -31.066406 33.28125 -28.660156 33.28125 -25.640625 C 33.28125 -23.796875 32.773438 -22.023438 31.765625 -20.328125 C 30.765625 -18.640625 29.054688 -17.222656 26.640625 -16.078125 C 24.234375 -14.941406 21.035156 -14.375 17.046875 -14.375 Z M 17.90625 -34.59375 C 17.132812 -34.59375 16.554688 -34.472656 16.171875 -34.234375 C 15.785156 -34.003906 15.523438 -33.585938 15.390625 -32.984375 C 15.253906 -32.378906 15.1875 -31.472656 15.1875 -30.265625 L 15.1875 -15.390625 L 16.546875 -15.390625 C 18.890625 -15.390625 20.503906 -16.257812 21.390625 -18 C 22.285156 -19.738281 22.734375 -22.101562 22.734375 -25.09375 C 22.734375 -28.34375 22.363281 -30.738281 21.625 -32.28125 C 20.882812 -33.820312 19.644531 -34.59375 17.90625 -34.59375 Z M 17.90625 -34.59375" transform="translate(146.67 180.367)"/></g></g></g><g fill="#13293D"><g><g><path d="M 20.8125 -36.296875 C 24.601562 -36.296875 27.921875 -35.578125 30.765625 -34.140625 C 33.617188 -32.703125 35.832031 -30.613281 37.40625 -27.875 C 38.976562 -25.144531 39.765625 -21.882812 39.765625 -18.09375 C 39.765625 -14.414062 38.960938 -11.148438 37.359375 -8.296875 C 35.753906 -5.441406 33.507812 -3.226562 30.625 -1.65625 C 27.738281 -0.0820312 24.453125 0.703125 20.765625 0.703125 C 16.972656 0.703125 13.648438 -0.015625 10.796875 -1.453125 C 7.953125 -2.898438 5.742188 -4.988281 4.171875 -7.71875 C 2.597656 -10.445312 1.8125 -13.707031 1.8125 -17.5 C 1.8125 -21.1875 2.613281 -24.453125 4.21875 -27.296875 C 5.832031 -30.148438 8.078125 -32.363281 10.953125 -33.9375 C 13.835938 -35.507812 17.125 -36.296875 20.8125 -36.296875 Z M 20.609375 -35.390625 C 18.972656 -35.390625 17.523438 -34.644531 16.265625 -33.15625 C 15.003906 -31.664062 14.039062 -29.578125 13.375 -26.890625 C 12.707031 -24.210938 12.375 -21.148438 12.375 -17.703125 C 12.375 -14.210938 12.757812 -11.144531 13.53125 -8.5 C 14.300781 -5.851562 15.335938 -3.804688 16.640625 -2.359375 C 17.953125 -0.921875 19.394531 -0.203125 20.96875 -0.203125 C 22.613281 -0.203125 24.0625 -0.945312 25.3125 -2.4375 C 26.570312 -3.925781 27.535156 -6.007812 28.203125 -8.6875 C 28.878906 -11.375 29.21875 -14.445312 29.21875 -17.90625 C 29.21875 -21.382812 28.832031 -24.445312 28.0625 -27.09375 C 27.289062 -29.75 26.25 -31.796875 24.9375 -33.234375 C 23.632812 -34.671875 22.191406 -35.390625 20.609375 -35.390625 Z M 20.609375 -35.390625" transform="translate(180.757 180.367)"/></g></g></g><g fill="#13293D"><g><g><path d="M 18.15625 -35.59375 C 25.09375 -35.59375 30.285156 -34.109375 33.734375 -31.140625 C 37.191406 -28.179688 38.921875 -23.867188 38.921875 -18.203125 C 38.921875 -14.546875 38.070312 -11.351562 36.375 -8.625 C 34.6875 -5.894531 32.25 -3.773438 29.0625 -2.265625 C 25.875 -0.753906 22.085938 0 17.703125 0 L 14.578125 -0.046875 C 12.566406 -0.117188 11.09375 -0.15625 10.15625 -0.15625 C 6.238281 -0.15625 3.320312 -0.101562 1.40625 0 L 1.40625 -1 C 2.476562 -1.070312 3.253906 -1.207031 3.734375 -1.40625 C 4.222656 -1.601562 4.550781 -1.988281 4.71875 -2.5625 C 4.894531 -3.132812 4.984375 -4.054688 4.984375 -5.328125 L 4.984375 -30.265625 C 4.984375 -31.546875 4.890625 -32.46875 4.703125 -33.03125 C 4.515625 -33.601562 4.1875 -33.988281 3.71875 -34.1875 C 3.25 -34.394531 2.476562 -34.53125 1.40625 -34.59375 L 1.40625 -35.59375 C 2.945312 -35.5 5.226562 -35.453125 8.25 -35.453125 L 10.0625 -35.453125 L 12.265625 -35.5 C 15.085938 -35.5625 17.050781 -35.59375 18.15625 -35.59375 Z M 18.90625 -34.6875 C 17.863281 -34.6875 17.082031 -34.566406 16.5625 -34.328125 C 16.039062 -34.097656 15.679688 -33.679688 15.484375 -33.078125 C 15.285156 -32.484375 15.1875 -31.582031 15.1875 -30.375 L 15.1875 -5.234375 C 15.1875 -4.023438 15.285156 -3.117188 15.484375 -2.515625 C 15.679688 -1.910156 16.039062 -1.488281 16.5625 -1.25 C 17.082031 -1.019531 17.878906 -0.90625 18.953125 -0.90625 C 22.273438 -0.90625 24.671875 -2.335938 26.140625 -5.203125 C 27.617188 -8.066406 28.359375 -12.332031 28.359375 -18 C 28.359375 -23.664062 27.59375 -27.863281 26.0625 -30.59375 C 24.539062 -33.320312 22.15625 -34.6875 18.90625 -34.6875 Z M 18.90625 -34.6875" transform="translate(222.336 180.367)"/></g></g></g><path fill="#011936" d="M 280.460938 10.828125 L 279.425781 22.664062 L 290.921875 25.578125 L 279.367188 28.25 L 280.152344 40.105469 L 274.046875 29.921875 L 263.042969 34.332031 L 270.816406 25.367188 L 263.230469 16.238281 L 274.144531 20.878906 L 280.460938 10.828125"/><path fill="#011936" d="M 324.972656 44.363281 L 321.410156 52.90625 L 329.257812 57.796875 L 320.050781 57.042969 L 317.832031 66.03125 L 315.703125 57.023438 L 306.488281 57.6875 L 314.382812 52.875 L 310.902344 44.296875 L 317.910156 50.332031 L 324.972656 44.363281"/><path fill="#011936" d="M 206.972656 20.128906 L 210.890625 24.21875 L 215.550781 20.996094 L 212.875 26 L 217.375 29.445312 L 211.804688 28.441406 L 209.925781 33.792969 L 209.152344 28.171875 L 203.492188 28.035156 L 208.589844 25.5625 L 206.972656 20.128906"/><path fill="#011936" d="M 137.578125 39.3125 L 136.382812 41.886719 L 138.722656 43.480469 L 135.914062 43.132812 L 135.125 45.859375 L 134.582031 43.074219 L 131.753906 43.164062 L 134.230469 41.789062 L 133.269531 39.121094 L 135.339844 41.054688 L 137.578125 39.3125"/><path fill="#011936" d="M 164.996094 107.542969 L 165.414062 109.242188 L 167.15625 109.101562 L 165.671875 110.023438 L 166.339844 111.640625 L 165.007812 110.511719 L 163.679688 111.648438 L 164.339844 110.027344 L 162.851562 109.117188 L 164.59375 109.246094 L 164.996094 107.542969"/><path fill="#011936" d="M 171.332031 60.050781 L 171.582031 62.503906 L 174.039062 62.652344 L 171.789062 63.648438 L 172.40625 66.03125 L 170.769531 64.195312 L 168.695312 65.523438 L 169.933594 63.390625 L 168.03125 61.828125 L 170.433594 62.347656 L 171.332031 60.050781"/><path fill="#011936" d="M 263.105469 53.820312 L 265.042969 56.53125 L 268.03125 55.042969 L 266.054688 57.734375 L 268.386719 60.117188 L 265.226562 59.066406 L 263.683594 62.027344 L 263.703125 58.6875 L 260.417969 58.132812 L 263.59375 57.121094 L 263.105469 53.820312"/><g clip-path="url(#a)"><path fill="#011936" d="M 333.238281 94.597656 L 333.484375 97.046875 L 335.945312 97.195312 L 333.691406 98.191406 L 334.3125 100.578125 L 332.671875 98.738281 L 330.601562 100.070312 L 331.835938 97.9375 L 329.933594 96.371094 L 332.339844 96.890625 L 333.238281 94.597656"/></g><g clip-path="url(#b)"><path fill="#011936" d="M 167.871094 136.6875 L 168.503906 139.070312 L 170.953125 138.824219 L 168.886719 140.164062 L 169.878906 142.421875 L 167.96875 140.867188 L 166.132812 142.511719 L 167.015625 140.207031 L 164.890625 138.964844 L 167.347656 139.097656 L 167.871094 136.6875"/></g><path fill="#011936" d="M 249.007812 87.207031 L 251.710938 90.53125 L 255.417969 88.382812 L 253.101562 91.988281 L 256.28125 94.855469 L 252.144531 93.765625 L 250.40625 97.683594 L 250.164062 93.398438 L 245.910156 92.957031 L 249.902344 91.402344 L 249.007812 87.207031"/><path fill="#011936" d="M 102.5625 118.382812 L 103.914062 122.449219 L 108.140625 121.765625 L 104.695312 124.308594 L 106.648438 128.121094 L 103.171875 125.628906 L 100.15625 128.671875 L 101.449219 124.582031 L 97.628906 122.652344 L 101.910156 122.621094 L 102.5625 118.382812"/><path fill="#011936" d="M 317.78125 0 L 317.339844 4.261719 L 321.472656 5.382812 L 317.289062 6.28125 L 317.503906 10.5625 L 315.359375 6.855469 L 311.359375 8.382812 L 314.21875 5.191406 L 311.53125 1.855469 L 315.445312 3.59375 L 317.78125 0"/><g clip-path="url(#c)"><path fill="#011936" d="M 45.160156 86.90625 L 44.71875 91.167969 L 48.851562 92.289062 L 44.667969 93.1875 L 44.882812 97.46875 L 42.738281 93.757812 L 38.738281 95.289062 L 41.597656 92.09375 L 38.910156 88.757812 L 42.824219 90.5 L 45.160156 86.90625"/></g><path fill="#011936" d="M 92.027344 21.679688 L 94 25.480469 L 98.066406 24.136719 L 95.070312 27.195312 L 97.601562 30.648438 L 93.773438 28.738281 L 91.273438 32.21875 L 91.90625 27.976562 L 87.832031 26.675781 L 92.050781 25.96875 L 92.027344 21.679688"/><path fill="#011936" d="M 100.746094 65.179688 L 101.160156 66.878906 L 102.902344 66.738281 L 101.417969 67.660156 L 102.089844 69.277344 L 100.757812 68.148438 L 99.429688 69.289062 L 100.089844 67.664062 L 98.597656 66.753906 L 100.339844 66.882812 L 100.746094 65.179688"/><path fill="#011936" d="M 292.542969 87.785156 L 296.816406 93.773438 L 303.402344 90.507812 L 299.035156 96.429688 L 304.175781 101.695312 L 297.203125 99.367188 L 293.792969 105.890625 L 293.851562 98.527344 L 286.605469 97.292969 L 293.613281 95.070312 L 292.542969 87.785156"/><g clip-path="url(#d)"><g clip-path="url(#e)"><g clip-path="url(#f)"><path fill="url(#g)" d="M 74.652344 24.78125 L 74.652344 87.890625 L 274.851562 87.890625 L 274.851562 24.78125 Z M 74.652344 24.78125"/></g></g></g><g clip-path="url(#h)"><g clip-path="url(#i)"><g clip-path="url(#j)"><path fill="url(#k)" d="M 59.558594 52.265625 L 59.558594 99.863281 L 318.039062 99.863281 L 318.039062 52.265625 Z M 59.558594 52.265625"/></g></g></g><g clip-path="url(#l)"><g clip-path="url(#m)"><g clip-path="url(#n)"><path fill="url(#o)" d="M 76.214844 66.03125 L 76.214844 119.867188 L 294.742188 119.867188 L 294.742188 66.03125 Z M 76.214844 66.03125"/></g></g></g><g fill="#011936"><g><g><path d="M 8.09375 -1.203125 C 8.320312 -0.609375 8.648438 -0.300781 9.078125 -0.28125 L 9.078125 0 C 8.703125 -0.03125 8.195312 -0.046875 7.5625 -0.046875 C 6.738281 -0.046875 6.128906 -0.03125 5.734375 0 L 5.734375 -0.28125 C 6.085938 -0.300781 6.34375 -0.347656 6.5 -0.421875 C 6.65625 -0.492188 6.734375 -0.625 6.734375 -0.8125 C 6.734375 -0.976562 6.675781 -1.203125 6.5625 -1.484375 L 5.703125 -3.828125 L 2.234375 -3.828125 L 1.65625 -2.3125 C 1.46875 -1.800781 1.375 -1.410156 1.375 -1.140625 C 1.375 -0.847656 1.472656 -0.632812 1.671875 -0.5 C 1.878906 -0.363281 2.191406 -0.289062 2.609375 -0.28125 L 2.609375 0 C 2.066406 -0.03125 1.519531 -0.046875 0.96875 -0.046875 C 0.539062 -0.046875 0.1875 -0.03125 -0.09375 0 L -0.09375 -0.28125 C 0.375 -0.394531 0.75 -0.8125 1.03125 -1.53125 L 4.390625 -10.1875 L 4.609375 -10.1875 Z M 5.578125 -4.109375 L 3.984375 -8.390625 L 2.359375 -4.109375 Z M 5.578125 -4.109375" transform="translate(92.85 195.33)"/></g></g></g><g fill="#011936"><g><g><path d="M 2.96875 -7.5625 C 3.3125 -7.5625 3.613281 -7.503906 3.875 -7.390625 C 4.144531 -7.285156 4.363281 -7.164062 4.53125 -7.03125 C 4.632812 -6.945312 4.71875 -6.90625 4.78125 -6.90625 C 4.957031 -6.90625 5.0625 -7.117188 5.09375 -7.546875 L 5.421875 -7.546875 C 5.390625 -7.078125 5.375 -6.265625 5.375 -5.109375 L 5.046875 -5.109375 C 4.941406 -5.742188 4.738281 -6.265625 4.4375 -6.671875 C 4.132812 -7.078125 3.6875 -7.28125 3.09375 -7.28125 C 2.75 -7.28125 2.46875 -7.179688 2.25 -6.984375 C 2.03125 -6.796875 1.921875 -6.53125 1.921875 -6.1875 C 1.921875 -5.851562 2.035156 -5.570312 2.265625 -5.34375 C 2.492188 -5.125 2.863281 -4.859375 3.375 -4.546875 C 3.457031 -4.492188 3.582031 -4.410156 3.75 -4.296875 C 4.1875 -4.015625 4.539062 -3.765625 4.8125 -3.546875 C 5.082031 -3.328125 5.300781 -3.070312 5.46875 -2.78125 C 5.632812 -2.5 5.71875 -2.171875 5.71875 -1.796875 C 5.71875 -1.171875 5.476562 -0.679688 5 -0.328125 C 4.53125 0.0234375 3.953125 0.203125 3.265625 0.203125 C 2.835938 0.203125 2.460938 0.132812 2.140625 0 C 1.929688 -0.101562 1.738281 -0.234375 1.5625 -0.390625 C 1.519531 -0.421875 1.472656 -0.4375 1.421875 -0.4375 C 1.359375 -0.4375 1.300781 -0.390625 1.25 -0.296875 C 1.195312 -0.203125 1.15625 -0.0703125 1.125 0.09375 L 0.796875 0.09375 C 0.835938 -0.445312 0.859375 -1.394531 0.859375 -2.75 L 1.1875 -2.75 C 1.289062 -1.851562 1.476562 -1.179688 1.75 -0.734375 C 2.03125 -0.296875 2.503906 -0.078125 3.171875 -0.078125 C 3.503906 -0.078125 3.796875 -0.1875 4.046875 -0.40625 C 4.304688 -0.632812 4.4375 -0.976562 4.4375 -1.4375 C 4.4375 -1.8125 4.3125 -2.125 4.0625 -2.375 C 3.8125 -2.632812 3.398438 -2.945312 2.828125 -3.3125 C 2.359375 -3.601562 2 -3.84375 1.75 -4.03125 C 1.5 -4.226562 1.285156 -4.460938 1.109375 -4.734375 C 0.941406 -5.015625 0.859375 -5.34375 0.859375 -5.71875 C 0.859375 -6.3125 1.054688 -6.765625 1.453125 -7.078125 C 1.859375 -7.398438 2.363281 -7.5625 2.96875 -7.5625 Z M 2.96875 -7.5625" transform="translate(101.844 195.33)"/></g></g></g><g fill="#011936"><g><g><path d="M 2.71875 -7.34375 L 4.828125 -7.34375 L 4.828125 -7.0625 L 2.71875 -7.0625 L 2.71875 -1.53125 C 2.71875 -1.101562 2.796875 -0.789062 2.953125 -0.59375 C 3.109375 -0.40625 3.332031 -0.3125 3.625 -0.3125 C 3.914062 -0.3125 4.164062 -0.429688 4.375 -0.671875 C 4.59375 -0.910156 4.769531 -1.300781 4.90625 -1.84375 L 5.203125 -1.765625 C 4.960938 -0.453125 4.34375 0.203125 3.34375 0.203125 C 3.019531 0.203125 2.753906 0.160156 2.546875 0.078125 C 2.335938 0.00390625 2.148438 -0.109375 1.984375 -0.265625 C 1.773438 -0.472656 1.628906 -0.726562 1.546875 -1.03125 C 1.460938 -1.34375 1.421875 -1.753906 1.421875 -2.265625 L 1.421875 -7.0625 L 0.0625 -7.0625 L 0.0625 -7.34375 L 1.421875 -7.34375 L 1.421875 -9.53125 C 1.960938 -9.539062 2.394531 -9.601562 2.71875 -9.71875 Z M 2.71875 -7.34375" transform="translate(108.226 195.33)"/></g></g></g><g fill="#011936"><g><g><path d="M 4.859375 -7.5625 C 5.234375 -7.5625 5.539062 -7.445312 5.78125 -7.21875 C 6.03125 -7 6.15625 -6.734375 6.15625 -6.421875 C 6.15625 -6.179688 6.082031 -5.972656 5.9375 -5.796875 C 5.789062 -5.617188 5.59375 -5.53125 5.34375 -5.53125 C 5.132812 -5.53125 4.953125 -5.59375 4.796875 -5.71875 C 4.648438 -5.851562 4.578125 -6.035156 4.578125 -6.265625 C 4.578125 -6.578125 4.738281 -6.835938 5.0625 -7.046875 C 5 -7.140625 4.898438 -7.1875 4.765625 -7.1875 C 4.398438 -7.1875 4.0625 -7.039062 3.75 -6.75 C 3.445312 -6.457031 3.207031 -6.101562 3.03125 -5.6875 C 2.863281 -5.269531 2.78125 -4.875 2.78125 -4.5 L 2.78125 -1.46875 C 2.78125 -1.03125 2.90625 -0.722656 3.15625 -0.546875 C 3.414062 -0.378906 3.796875 -0.296875 4.296875 -0.296875 L 4.296875 0 L 3.953125 -0.015625 C 2.984375 -0.046875 2.363281 -0.0625 2.09375 -0.0625 C 1.851562 -0.0625 1.296875 -0.0390625 0.421875 0 L 0.421875 -0.296875 C 0.816406 -0.296875 1.09375 -0.367188 1.25 -0.515625 C 1.414062 -0.671875 1.5 -0.941406 1.5 -1.328125 L 1.5 -5.796875 C 1.5 -6.234375 1.414062 -6.550781 1.25 -6.75 C 1.09375 -6.957031 0.816406 -7.0625 0.421875 -7.0625 L 0.421875 -7.359375 C 0.722656 -7.328125 1.015625 -7.3125 1.296875 -7.3125 C 1.898438 -7.3125 2.394531 -7.378906 2.78125 -7.515625 L 2.78125 -5.734375 C 2.957031 -6.203125 3.234375 -6.625 3.609375 -7 C 3.984375 -7.375 4.398438 -7.5625 4.859375 -7.5625 Z M 4.859375 -7.5625" transform="translate(113.28 195.33)"/></g></g></g><g fill="#011936"><g><g><path d="M 3.90625 -7.5625 C 4.882812 -7.5625 5.671875 -7.238281 6.265625 -6.59375 C 6.859375 -5.945312 7.15625 -4.972656 7.15625 -3.671875 C 7.15625 -2.367188 6.859375 -1.394531 6.265625 -0.75 C 5.671875 -0.113281 4.882812 0.203125 3.90625 0.203125 C 2.9375 0.203125 2.15625 -0.113281 1.5625 -0.75 C 0.96875 -1.394531 0.671875 -2.367188 0.671875 -3.671875 C 0.671875 -4.972656 0.96875 -5.945312 1.5625 -6.59375 C 2.15625 -7.238281 2.9375 -7.5625 3.90625 -7.5625 Z M 3.90625 -7.265625 C 3.34375 -7.265625 2.894531 -6.972656 2.5625 -6.390625 C 2.226562 -5.804688 2.0625 -4.898438 2.0625 -3.671875 C 2.0625 -2.441406 2.226562 -1.535156 2.5625 -0.953125 C 2.894531 -0.367188 3.34375 -0.078125 3.90625 -0.078125 C 4.476562 -0.078125 4.929688 -0.367188 5.265625 -0.953125 C 5.597656 -1.535156 5.765625 -2.441406 5.765625 -3.671875 C 5.765625 -4.898438 5.597656 -5.804688 5.265625 -6.390625 C 4.929688 -6.972656 4.476562 -7.265625 3.90625 -7.265625 Z M 3.90625 -7.265625" transform="translate(119.632 195.33)"/></g></g></g><g fill="#011936"><g><g><path d="M 5.21875 -7.5625 C 5.882812 -7.5625 6.382812 -7.378906 6.71875 -7.015625 C 6.90625 -6.816406 7.035156 -6.578125 7.109375 -6.296875 C 7.179688 -6.015625 7.21875 -5.628906 7.21875 -5.140625 L 7.21875 -1.328125 C 7.21875 -0.941406 7.300781 -0.671875 7.46875 -0.515625 C 7.632812 -0.367188 7.914062 -0.296875 8.3125 -0.296875 L 8.3125 0 C 7.4375 -0.0390625 6.863281 -0.0625 6.59375 -0.0625 C 6.332031 -0.0625 5.800781 -0.0390625 5 0 L 5 -0.296875 C 5.351562 -0.296875 5.597656 -0.367188 5.734375 -0.515625 C 5.867188 -0.671875 5.9375 -0.941406 5.9375 -1.328125 L 5.9375 -5.453125 C 5.9375 -5.984375 5.859375 -6.390625 5.703125 -6.671875 C 5.554688 -6.953125 5.25 -7.09375 4.78125 -7.09375 C 4.394531 -7.09375 4.046875 -6.976562 3.734375 -6.75 C 3.429688 -6.519531 3.195312 -6.207031 3.03125 -5.8125 C 2.863281 -5.425781 2.78125 -4.988281 2.78125 -4.5 L 2.78125 -1.328125 C 2.78125 -0.941406 2.847656 -0.671875 2.984375 -0.515625 C 3.128906 -0.367188 3.378906 -0.296875 3.734375 -0.296875 L 3.734375 0 C 2.929688 -0.0390625 2.394531 -0.0625 2.125 -0.0625 C 1.863281 -0.0625 1.296875 -0.0390625 0.421875 0 L 0.421875 -0.296875 C 0.816406 -0.296875 1.09375 -0.367188 1.25 -0.515625 C 1.414062 -0.671875 1.5 -0.941406 1.5 -1.328125 L 1.5 -5.796875 C 1.5 -6.234375 1.414062 -6.550781 1.25 -6.75 C 1.09375 -6.957031 0.816406 -7.0625 0.421875 -7.0625 L 0.421875 -7.359375 C 0.722656 -7.328125 1.015625 -7.3125 1.296875 -7.3125 C 1.898438 -7.3125 2.394531 -7.378906 2.78125 -7.515625 L 2.78125 -5.828125 C 3.019531 -6.429688 3.347656 -6.867188 3.765625 -7.140625 C 4.191406 -7.421875 4.675781 -7.5625 5.21875 -7.5625 Z M 5.21875 -7.5625" transform="translate(127.455 195.33)"/></g></g></g><g fill="#011936"><g><g><path d="M 3.90625 -7.5625 C 4.882812 -7.5625 5.671875 -7.238281 6.265625 -6.59375 C 6.859375 -5.945312 7.15625 -4.972656 7.15625 -3.671875 C 7.15625 -2.367188 6.859375 -1.394531 6.265625 -0.75 C 5.671875 -0.113281 4.882812 0.203125 3.90625 0.203125 C 2.9375 0.203125 2.15625 -0.113281 1.5625 -0.75 C 0.96875 -1.394531 0.671875 -2.367188 0.671875 -3.671875 C 0.671875 -4.972656 0.96875 -5.945312 1.5625 -6.59375 C 2.15625 -7.238281 2.9375 -7.5625 3.90625 -7.5625 Z M 3.90625 -7.265625 C 3.34375 -7.265625 2.894531 -6.972656 2.5625 -6.390625 C 2.226562 -5.804688 2.0625 -4.898438 2.0625 -3.671875 C 2.0625 -2.441406 2.226562 -1.535156 2.5625 -0.953125 C 2.894531 -0.367188 3.34375 -0.078125 3.90625 -0.078125 C 4.476562 -0.078125 4.929688 -0.367188 5.265625 -0.953125 C 5.597656 -1.535156 5.765625 -2.441406 5.765625 -3.671875 C 5.765625 -4.898438 5.597656 -5.804688 5.265625 -6.390625 C 4.929688 -6.972656 4.476562 -7.265625 3.90625 -7.265625 Z M 3.90625 -7.265625" transform="translate(135.978 195.33)"/></g></g></g><g fill="#011936"><g><g><path d="M 11.375 -1.328125 C 11.375 -0.941406 11.457031 -0.671875 11.625 -0.515625 C 11.789062 -0.367188 12.070312 -0.296875 12.46875 -0.296875 L 12.46875 0 C 11.59375 -0.0390625 11.019531 -0.0625 10.75 -0.0625 C 10.488281 -0.0625 9.957031 -0.0390625 9.15625 0 L 9.15625 -0.296875 C 9.507812 -0.296875 9.753906 -0.367188 9.890625 -0.515625 C 10.023438 -0.671875 10.09375 -0.941406 10.09375 -1.328125 L 10.09375 -5.453125 C 10.09375 -5.816406 10.070312 -6.109375 10.03125 -6.328125 C 9.988281 -6.554688 9.890625 -6.738281 9.734375 -6.875 C 9.578125 -7.019531 9.335938 -7.09375 9.015625 -7.09375 C 8.648438 -7.09375 8.316406 -6.976562 8.015625 -6.75 C 7.722656 -6.519531 7.492188 -6.207031 7.328125 -5.8125 C 7.160156 -5.425781 7.078125 -4.992188 7.078125 -4.515625 L 7.078125 -1.328125 C 7.078125 -0.941406 7.15625 -0.671875 7.3125 -0.515625 C 7.476562 -0.367188 7.765625 -0.296875 8.171875 -0.296875 L 8.171875 0 C 7.296875 -0.0390625 6.722656 -0.0625 6.453125 -0.0625 C 6.191406 -0.0625 5.660156 -0.0390625 4.859375 0 L 4.859375 -0.296875 C 5.210938 -0.296875 5.457031 -0.367188 5.59375 -0.515625 C 5.726562 -0.671875 5.796875 -0.941406 5.796875 -1.328125 L 5.796875 -5.453125 C 5.796875 -5.816406 5.773438 -6.109375 5.734375 -6.328125 C 5.691406 -6.554688 5.59375 -6.738281 5.4375 -6.875 C 5.28125 -7.019531 5.039062 -7.09375 4.71875 -7.09375 C 4.351562 -7.09375 4.019531 -6.976562 3.71875 -6.75 C 3.425781 -6.519531 3.195312 -6.207031 3.03125 -5.8125 C 2.863281 -5.414062 2.78125 -4.976562 2.78125 -4.5 L 2.78125 -1.328125 C 2.78125 -0.941406 2.847656 -0.671875 2.984375 -0.515625 C 3.128906 -0.367188 3.378906 -0.296875 3.734375 -0.296875 L 3.734375 0 C 2.929688 -0.0390625 2.394531 -0.0625 2.125 -0.0625 C 1.863281 -0.0625 1.296875 -0.0390625 0.421875 0 L 0.421875 -0.296875 C 0.816406 -0.296875 1.09375 -0.367188 1.25 -0.515625 C 1.414062 -0.671875 1.5 -0.941406 1.5 -1.328125 L 1.5 -5.796875 C 1.5 -6.234375 1.414062 -6.550781 1.25 -6.75 C 1.09375 -6.957031 0.816406 -7.0625 0.421875 -7.0625 L 0.421875 -7.359375 C 0.722656 -7.328125 1.015625 -7.3125 1.296875 -7.3125 C 1.898438 -7.3125 2.394531 -7.378906 2.78125 -7.515625 L 2.78125 -5.828125 C 3.007812 -6.421875 3.332031 -6.859375 3.75 -7.140625 C 4.175781 -7.421875 4.632812 -7.5625 5.125 -7.5625 C 5.769531 -7.5625 6.265625 -7.378906 6.609375 -7.015625 C 6.847656 -6.765625 7 -6.382812 7.0625 -5.875 C 7.289062 -6.46875 7.613281 -6.894531 8.03125 -7.15625 C 8.457031 -7.425781 8.921875 -7.5625 9.421875 -7.5625 C 10.066406 -7.5625 10.5625 -7.378906 10.90625 -7.015625 C 11.082031 -6.816406 11.203125 -6.570312 11.265625 -6.28125 C 11.335938 -5.988281 11.375 -5.609375 11.375 -5.140625 Z M 11.375 -1.328125" transform="translate(143.801 195.33)"/></g></g></g><g fill="#011936"><g><g><path d="M 5.96875 -7.3125 C 6.382812 -7.3125 6.75 -7.328125 7.0625 -7.359375 L 7.0625 -7.0625 C 6.863281 -7.050781 6.691406 -6.96875 6.546875 -6.8125 C 6.398438 -6.65625 6.257812 -6.40625 6.125 -6.0625 L 3.78125 0.078125 L 3.296875 1.3125 C 3.117188 1.78125 2.914062 2.113281 2.6875 2.3125 C 2.539062 2.445312 2.367188 2.539062 2.171875 2.59375 C 1.972656 2.65625 1.773438 2.6875 1.578125 2.6875 C 1.285156 2.6875 1.046875 2.609375 0.859375 2.453125 C 0.679688 2.304688 0.59375 2.097656 0.59375 1.828125 C 0.59375 1.597656 0.660156 1.414062 0.796875 1.28125 C 0.929688 1.144531 1.117188 1.078125 1.359375 1.078125 C 1.566406 1.078125 1.738281 1.132812 1.875 1.25 C 2.007812 1.363281 2.078125 1.53125 2.078125 1.75 C 2.078125 2.03125 1.953125 2.242188 1.703125 2.390625 C 1.722656 2.398438 1.75 2.40625 1.78125 2.40625 C 2.3125 2.40625 2.71875 2.03125 3 1.28125 L 3.5 -0.015625 L 0.90625 -6.25 C 0.75 -6.570312 0.585938 -6.785156 0.421875 -6.890625 C 0.265625 -7.003906 0.101562 -7.0625 -0.0625 -7.0625 L -0.0625 -7.359375 C 0.351562 -7.296875 0.820312 -7.265625 1.34375 -7.265625 C 1.820312 -7.265625 2.441406 -7.296875 3.203125 -7.359375 L 3.203125 -7.0625 C 2.859375 -7.0625 2.609375 -7.03125 2.453125 -6.96875 C 2.296875 -6.914062 2.21875 -6.78125 2.21875 -6.5625 C 2.21875 -6.351562 2.273438 -6.117188 2.390625 -5.859375 L 4.09375 -1.59375 L 5.6875 -5.734375 C 5.789062 -6.015625 5.84375 -6.234375 5.84375 -6.390625 C 5.84375 -6.609375 5.753906 -6.769531 5.578125 -6.875 C 5.410156 -6.976562 5.140625 -7.039062 4.765625 -7.0625 L 4.765625 -7.359375 C 5.273438 -7.328125 5.675781 -7.3125 5.96875 -7.3125 Z M 5.96875 -7.3125" transform="translate(156.478 195.33)"/></g></g></g><g fill="#011936"><g><g><path d="M 3.078125 -4.078125 L 3.078125 -1.515625 C 3.078125 -1.148438 3.113281 -0.882812 3.1875 -0.71875 C 3.269531 -0.5625 3.40625 -0.453125 3.59375 -0.390625 C 3.789062 -0.335938 4.101562 -0.300781 4.53125 -0.28125 L 4.53125 0 C 4.03125 -0.03125 3.328125 -0.046875 2.421875 -0.046875 C 1.609375 -0.046875 1 -0.03125 0.59375 0 L 0.59375 -0.28125 C 0.9375 -0.300781 1.1875 -0.335938 1.34375 -0.390625 C 1.5 -0.453125 1.601562 -0.5625 1.65625 -0.71875 C 1.71875 -0.882812 1.75 -1.148438 1.75 -1.515625 L 1.75 -8.59375 C 1.75 -8.957031 1.71875 -9.21875 1.65625 -9.375 C 1.601562 -9.539062 1.5 -9.648438 1.34375 -9.703125 C 1.1875 -9.765625 0.9375 -9.804688 0.59375 -9.828125 L 0.59375 -10.109375 C 1 -10.078125 1.582031 -10.0625 2.34375 -10.0625 L 3.890625 -10.078125 C 4.066406 -10.085938 4.269531 -10.09375 4.5 -10.09375 C 5.613281 -10.09375 6.460938 -9.835938 7.046875 -9.328125 C 7.640625 -8.816406 7.9375 -8.132812 7.9375 -7.28125 C 7.9375 -6.757812 7.816406 -6.257812 7.578125 -5.78125 C 7.347656 -5.300781 6.953125 -4.894531 6.390625 -4.5625 C 5.835938 -4.238281 5.101562 -4.078125 4.1875 -4.078125 Z M 4.140625 -9.828125 C 3.847656 -9.828125 3.625 -9.789062 3.46875 -9.71875 C 3.320312 -9.65625 3.21875 -9.535156 3.15625 -9.359375 C 3.101562 -9.191406 3.078125 -8.9375 3.078125 -8.59375 L 3.078125 -4.375 L 4.046875 -4.375 C 4.972656 -4.375 5.613281 -4.625 5.96875 -5.125 C 6.332031 -5.625 6.515625 -6.289062 6.515625 -7.125 C 6.515625 -8.050781 6.328125 -8.734375 5.953125 -9.171875 C 5.585938 -9.609375 4.984375 -9.828125 4.140625 -9.828125 Z M 4.140625 -9.828125" transform="translate(167.228 195.33)"/></g></g></g><g fill="#011936"><g><g><path d="M 2.046875 -10.921875 C 2.285156 -10.921875 2.492188 -10.828125 2.671875 -10.640625 C 2.859375 -10.460938 2.953125 -10.253906 2.953125 -10.015625 C 2.953125 -9.765625 2.859375 -9.546875 2.671875 -9.359375 C 2.492188 -9.179688 2.285156 -9.09375 2.046875 -9.09375 C 1.796875 -9.09375 1.578125 -9.179688 1.390625 -9.359375 C 1.210938 -9.546875 1.125 -9.765625 1.125 -10.015625 C 1.125 -10.253906 1.210938 -10.460938 1.390625 -10.640625 C 1.578125 -10.828125 1.796875 -10.921875 2.046875 -10.921875 Z M 2.78125 -1.328125 C 2.78125 -0.941406 2.859375 -0.671875 3.015625 -0.515625 C 3.179688 -0.367188 3.46875 -0.296875 3.875 -0.296875 L 3.875 0 C 3 -0.0390625 2.421875 -0.0625 2.140625 -0.0625 C 1.867188 -0.0625 1.296875 -0.0390625 0.421875 0 L 0.421875 -0.296875 C 0.816406 -0.296875 1.09375 -0.367188 1.25 -0.515625 C 1.414062 -0.671875 1.5 -0.941406 1.5 -1.328125 L 1.5 -5.796875 C 1.5 -6.234375 1.414062 -6.550781 1.25 -6.75 C 1.09375 -6.957031 0.816406 -7.0625 0.421875 -7.0625 L 0.421875 -7.359375 C 0.722656 -7.328125 1.015625 -7.3125 1.296875 -7.3125 C 1.898438 -7.3125 2.394531 -7.378906 2.78125 -7.515625 Z M 2.78125 -1.328125" transform="translate(175.58 195.33)"/></g></g></g><g fill="#011936"><g><g><path d="M 3.984375 -7.5625 C 4.617188 -7.5625 5.171875 -7.40625 5.640625 -7.09375 C 6.085938 -6.800781 6.3125 -6.4375 6.3125 -6 C 6.3125 -5.75 6.238281 -5.550781 6.09375 -5.40625 C 5.957031 -5.269531 5.78125 -5.203125 5.5625 -5.203125 C 5.34375 -5.203125 5.15625 -5.265625 5 -5.390625 C 4.84375 -5.515625 4.765625 -5.6875 4.765625 -5.90625 C 4.765625 -6.113281 4.820312 -6.285156 4.9375 -6.421875 C 5.050781 -6.554688 5.195312 -6.648438 5.375 -6.703125 C 5.28125 -6.867188 5.109375 -7.007812 4.859375 -7.125 C 4.617188 -7.238281 4.359375 -7.296875 4.078125 -7.296875 C 3.734375 -7.296875 3.40625 -7.179688 3.09375 -6.953125 C 2.789062 -6.734375 2.539062 -6.363281 2.34375 -5.84375 C 2.144531 -5.320312 2.046875 -4.640625 2.046875 -3.796875 C 2.046875 -2.617188 2.234375 -1.757812 2.609375 -1.21875 C 2.992188 -0.6875 3.488281 -0.421875 4.09375 -0.421875 C 4.507812 -0.421875 4.898438 -0.535156 5.265625 -0.765625 C 5.628906 -1.003906 5.929688 -1.378906 6.171875 -1.890625 L 6.4375 -1.78125 C 6.28125 -1.238281 5.976562 -0.769531 5.53125 -0.375 C 5.09375 0.0078125 4.519531 0.203125 3.8125 0.203125 C 3.21875 0.203125 2.679688 0.0507812 2.203125 -0.25 C 1.722656 -0.5625 1.34375 -1.003906 1.0625 -1.578125 C 0.789062 -2.148438 0.65625 -2.816406 0.65625 -3.578125 C 0.65625 -4.347656 0.796875 -5.035156 1.078125 -5.640625 C 1.359375 -6.242188 1.75 -6.710938 2.25 -7.046875 C 2.757812 -7.390625 3.335938 -7.5625 3.984375 -7.5625 Z M 3.984375 -7.5625" transform="translate(179.762 195.33)"/></g></g></g><g fill="#011936"><g><g><path d="M 2.71875 -7.34375 L 4.828125 -7.34375 L 4.828125 -7.0625 L 2.71875 -7.0625 L 2.71875 -1.53125 C 2.71875 -1.101562 2.796875 -0.789062 2.953125 -0.59375 C 3.109375 -0.40625 3.332031 -0.3125 3.625 -0.3125 C 3.914062 -0.3125 4.164062 -0.429688 4.375 -0.671875 C 4.59375 -0.910156 4.769531 -1.300781 4.90625 -1.84375 L 5.203125 -1.765625 C 4.960938 -0.453125 4.34375 0.203125 3.34375 0.203125 C 3.019531 0.203125 2.753906 0.160156 2.546875 0.078125 C 2.335938 0.00390625 2.148438 -0.109375 1.984375 -0.265625 C 1.773438 -0.472656 1.628906 -0.726562 1.546875 -1.03125 C 1.460938 -1.34375 1.421875 -1.753906 1.421875 -2.265625 L 1.421875 -7.0625 L 0.0625 -7.0625 L 0.0625 -7.34375 L 1.421875 -7.34375 L 1.421875 -9.53125 C 1.960938 -9.539062 2.394531 -9.601562 2.71875 -9.71875 Z M 2.71875 -7.34375" transform="translate(186.7 195.33)"/></g></g></g><g fill="#011936"><g><g><path d="M 6.890625 -1.546875 C 6.890625 -1.109375 6.972656 -0.785156 7.140625 -0.578125 C 7.304688 -0.378906 7.585938 -0.28125 7.984375 -0.28125 L 7.984375 0.015625 C 7.691406 -0.015625 7.394531 -0.03125 7.09375 -0.03125 C 6.5 -0.03125 6.003906 0.0351562 5.609375 0.171875 L 5.609375 -1.515625 C 5.378906 -0.921875 5.054688 -0.484375 4.640625 -0.203125 C 4.222656 0.0664062 3.765625 0.203125 3.265625 0.203125 C 2.617188 0.203125 2.125 0.0195312 1.78125 -0.34375 C 1.613281 -0.53125 1.492188 -0.769531 1.421875 -1.0625 C 1.347656 -1.363281 1.3125 -1.75 1.3125 -2.21875 L 1.3125 -5.796875 C 1.3125 -6.234375 1.226562 -6.550781 1.0625 -6.75 C 0.90625 -6.957031 0.628906 -7.0625 0.234375 -7.0625 L 0.234375 -7.359375 C 0.523438 -7.328125 0.816406 -7.3125 1.109375 -7.3125 C 1.710938 -7.3125 2.207031 -7.378906 2.59375 -7.515625 L 2.59375 -1.90625 C 2.59375 -1.539062 2.613281 -1.242188 2.65625 -1.015625 C 2.707031 -0.796875 2.8125 -0.613281 2.96875 -0.46875 C 3.125 -0.320312 3.363281 -0.25 3.6875 -0.25 C 4.050781 -0.25 4.378906 -0.363281 4.671875 -0.59375 C 4.960938 -0.820312 5.191406 -1.132812 5.359375 -1.53125 C 5.523438 -1.925781 5.609375 -2.363281 5.609375 -2.84375 L 5.609375 -5.796875 C 5.609375 -6.234375 5.523438 -6.550781 5.359375 -6.75 C 5.203125 -6.957031 4.925781 -7.0625 4.53125 -7.0625 L 4.53125 -7.359375 C 4.820312 -7.328125 5.113281 -7.3125 5.40625 -7.3125 C 6.007812 -7.3125 6.503906 -7.378906 6.890625 -7.515625 Z M 6.890625 -1.546875" transform="translate(191.754 195.33)"/></g></g></g><g fill="#011936"><g><g><path d="M 4.859375 -7.5625 C 5.234375 -7.5625 5.539062 -7.445312 5.78125 -7.21875 C 6.03125 -7 6.15625 -6.734375 6.15625 -6.421875 C 6.15625 -6.179688 6.082031 -5.972656 5.9375 -5.796875 C 5.789062 -5.617188 5.59375 -5.53125 5.34375 -5.53125 C 5.132812 -5.53125 4.953125 -5.59375 4.796875 -5.71875 C 4.648438 -5.851562 4.578125 -6.035156 4.578125 -6.265625 C 4.578125 -6.578125 4.738281 -6.835938 5.0625 -7.046875 C 5 -7.140625 4.898438 -7.1875 4.765625 -7.1875 C 4.398438 -7.1875 4.0625 -7.039062 3.75 -6.75 C 3.445312 -6.457031 3.207031 -6.101562 3.03125 -5.6875 C 2.863281 -5.269531 2.78125 -4.875 2.78125 -4.5 L 2.78125 -1.46875 C 2.78125 -1.03125 2.90625 -0.722656 3.15625 -0.546875 C 3.414062 -0.378906 3.796875 -0.296875 4.296875 -0.296875 L 4.296875 0 L 3.953125 -0.015625 C 2.984375 -0.046875 2.363281 -0.0625 2.09375 -0.0625 C 1.851562 -0.0625 1.296875 -0.0390625 0.421875 0 L 0.421875 -0.296875 C 0.816406 -0.296875 1.09375 -0.367188 1.25 -0.515625 C 1.414062 -0.671875 1.5 -0.941406 1.5 -1.328125 L 1.5 -5.796875 C 1.5 -6.234375 1.414062 -6.550781 1.25 -6.75 C 1.09375 -6.957031 0.816406 -7.0625 0.421875 -7.0625 L 0.421875 -7.359375 C 0.722656 -7.328125 1.015625 -7.3125 1.296875 -7.3125 C 1.898438 -7.3125 2.394531 -7.378906 2.78125 -7.515625 L 2.78125 -5.734375 C 2.957031 -6.203125 3.234375 -6.625 3.609375 -7 C 3.984375 -7.375 4.398438 -7.5625 4.859375 -7.5625 Z M 4.859375 -7.5625" transform="translate(200.048 195.33)"/></g></g></g><g fill="#011936"><g><g><path d="M 6.609375 -1.71875 C 6.441406 -1.1875 6.117188 -0.734375 5.640625 -0.359375 C 5.171875 0.015625 4.601562 0.203125 3.9375 0.203125 C 3.257812 0.203125 2.671875 0.046875 2.171875 -0.265625 C 1.679688 -0.578125 1.304688 -1.007812 1.046875 -1.5625 C 0.785156 -2.125 0.65625 -2.769531 0.65625 -3.5 C 0.65625 -4.320312 0.785156 -5.035156 1.046875 -5.640625 C 1.316406 -6.253906 1.691406 -6.726562 2.171875 -7.0625 C 2.660156 -7.394531 3.234375 -7.5625 3.890625 -7.5625 C 4.742188 -7.5625 5.398438 -7.300781 5.859375 -6.78125 C 6.328125 -6.257812 6.5625 -5.46875 6.5625 -4.40625 L 2.078125 -4.40625 C 2.054688 -4.144531 2.046875 -3.84375 2.046875 -3.5 C 2.046875 -2.875 2.144531 -2.328125 2.34375 -1.859375 C 2.550781 -1.390625 2.820312 -1.03125 3.15625 -0.78125 C 3.5 -0.53125 3.859375 -0.40625 4.234375 -0.40625 C 4.679688 -0.40625 5.082031 -0.515625 5.4375 -0.734375 C 5.789062 -0.953125 6.085938 -1.316406 6.328125 -1.828125 Z M 3.828125 -7.28125 C 3.378906 -7.28125 2.992188 -7.0625 2.671875 -6.625 C 2.347656 -6.1875 2.148438 -5.539062 2.078125 -4.6875 L 5.1875 -4.6875 C 5.207031 -5.425781 5.097656 -6.039062 4.859375 -6.53125 C 4.628906 -7.03125 4.285156 -7.28125 3.828125 -7.28125 Z M 3.828125 -7.28125" transform="translate(206.401 195.33)"/></g></g></g><g fill="#011936"><g><g><path d="M 3.90625 -7.5625 C 4.882812 -7.5625 5.671875 -7.238281 6.265625 -6.59375 C 6.859375 -5.945312 7.15625 -4.972656 7.15625 -3.671875 C 7.15625 -2.367188 6.859375 -1.394531 6.265625 -0.75 C 5.671875 -0.113281 4.882812 0.203125 3.90625 0.203125 C 2.9375 0.203125 2.15625 -0.113281 1.5625 -0.75 C 0.96875 -1.394531 0.671875 -2.367188 0.671875 -3.671875 C 0.671875 -4.972656 0.96875 -5.945312 1.5625 -6.59375 C 2.15625 -7.238281 2.9375 -7.5625 3.90625 -7.5625 Z M 3.90625 -7.265625 C 3.34375 -7.265625 2.894531 -6.972656 2.5625 -6.390625 C 2.226562 -5.804688 2.0625 -4.898438 2.0625 -3.671875 C 2.0625 -2.441406 2.226562 -1.535156 2.5625 -0.953125 C 2.894531 -0.367188 3.34375 -0.078125 3.90625 -0.078125 C 4.476562 -0.078125 4.929688 -0.367188 5.265625 -0.953125 C 5.597656 -1.535156 5.765625 -2.441406 5.765625 -3.671875 C 5.765625 -4.898438 5.597656 -5.804688 5.265625 -6.390625 C 4.929688 -6.972656 4.476562 -7.265625 3.90625 -7.265625 Z M 3.90625 -7.265625" transform="translate(217.18 195.33)"/></g></g></g><g fill="#011936"><g><g><path d="M 3.9375 -11.171875 C 4.4375 -11.171875 4.851562 -11.039062 5.1875 -10.78125 C 5.476562 -10.539062 5.625 -10.242188 5.625 -9.890625 C 5.625 -9.671875 5.550781 -9.488281 5.40625 -9.34375 C 5.269531 -9.207031 5.09375 -9.140625 4.875 -9.140625 C 4.65625 -9.140625 4.46875 -9.207031 4.3125 -9.34375 C 4.15625 -9.476562 4.078125 -9.664062 4.078125 -9.90625 C 4.078125 -10.113281 4.128906 -10.273438 4.234375 -10.390625 C 4.347656 -10.515625 4.5 -10.597656 4.6875 -10.640625 C 4.65625 -10.734375 4.578125 -10.804688 4.453125 -10.859375 C 4.328125 -10.921875 4.171875 -10.953125 3.984375 -10.953125 C 3.773438 -10.953125 3.585938 -10.90625 3.421875 -10.8125 C 3.265625 -10.71875 3.144531 -10.585938 3.0625 -10.421875 C 2.957031 -10.234375 2.882812 -9.953125 2.84375 -9.578125 C 2.8125 -9.210938 2.796875 -8.59375 2.796875 -7.71875 L 2.796875 -7.34375 L 4.328125 -7.34375 L 4.328125 -7.0625 L 2.796875 -7.0625 L 2.796875 -1.46875 C 2.796875 -1.03125 2.921875 -0.722656 3.171875 -0.546875 C 3.429688 -0.378906 3.8125 -0.296875 4.3125 -0.296875 L 4.3125 0 L 3.96875 -0.015625 C 3 -0.046875 2.378906 -0.0625 2.109375 -0.0625 C 1.867188 -0.0625 1.304688 -0.0390625 0.421875 0 L 0.421875 -0.296875 C 0.828125 -0.296875 1.109375 -0.367188 1.265625 -0.515625 C 1.429688 -0.671875 1.515625 -0.941406 1.515625 -1.328125 L 1.515625 -7.0625 L 0.375 -7.0625 L 0.375 -7.34375 L 1.515625 -7.34375 C 1.515625 -8.175781 1.566406 -8.820312 1.671875 -9.28125 C 1.773438 -9.738281 1.960938 -10.128906 2.234375 -10.453125 C 2.429688 -10.671875 2.675781 -10.84375 2.96875 -10.96875 C 3.257812 -11.101562 3.582031 -11.171875 3.9375 -11.171875 Z M 3.9375 -11.171875" transform="translate(225.003 195.33)"/></g></g></g><g fill="#011936"><g><g><path d="M 2.71875 -7.34375 L 4.828125 -7.34375 L 4.828125 -7.0625 L 2.71875 -7.0625 L 2.71875 -1.53125 C 2.71875 -1.101562 2.796875 -0.789062 2.953125 -0.59375 C 3.109375 -0.40625 3.332031 -0.3125 3.625 -0.3125 C 3.914062 -0.3125 4.164062 -0.429688 4.375 -0.671875 C 4.59375 -0.910156 4.769531 -1.300781 4.90625 -1.84375 L 5.203125 -1.765625 C 4.960938 -0.453125 4.34375 0.203125 3.34375 0.203125 C 3.019531 0.203125 2.753906 0.160156 2.546875 0.078125 C 2.335938 0.00390625 2.148438 -0.109375 1.984375 -0.265625 C 1.773438 -0.472656 1.628906 -0.726562 1.546875 -1.03125 C 1.460938 -1.34375 1.421875 -1.753906 1.421875 -2.265625 L 1.421875 -7.0625 L 0.0625 -7.0625 L 0.0625 -7.34375 L 1.421875 -7.34375 L 1.421875 -9.53125 C 1.960938 -9.539062 2.394531 -9.601562 2.71875 -9.71875 Z M 2.71875 -7.34375" transform="translate(233.297 195.33)"/></g></g></g><g fill="#011936"><g><g><path d="M 2.65625 -5.84375 C 2.894531 -6.4375 3.222656 -6.867188 3.640625 -7.140625 C 4.066406 -7.421875 4.546875 -7.5625 5.078125 -7.5625 C 5.742188 -7.5625 6.25 -7.378906 6.59375 -7.015625 C 6.78125 -6.816406 6.910156 -6.578125 6.984375 -6.296875 C 7.054688 -6.015625 7.09375 -5.628906 7.09375 -5.140625 L 7.09375 -1.328125 C 7.09375 -0.941406 7.171875 -0.671875 7.328125 -0.515625 C 7.492188 -0.367188 7.78125 -0.296875 8.1875 -0.296875 L 8.1875 0 C 7.3125 -0.0390625 6.738281 -0.0625 6.46875 -0.0625 C 6.195312 -0.0625 5.664062 -0.0390625 4.875 0 L 4.875 -0.296875 C 5.21875 -0.296875 5.457031 -0.367188 5.59375 -0.515625 C 5.738281 -0.671875 5.8125 -0.941406 5.8125 -1.328125 L 5.8125 -5.453125 C 5.8125 -5.984375 5.734375 -6.390625 5.578125 -6.671875 C 5.429688 -6.953125 5.125 -7.09375 4.65625 -7.09375 C 4.257812 -7.09375 3.910156 -6.984375 3.609375 -6.765625 C 3.316406 -6.546875 3.082031 -6.238281 2.90625 -5.84375 C 2.738281 -5.445312 2.65625 -5.003906 2.65625 -4.515625 L 2.65625 -1.328125 C 2.65625 -0.941406 2.722656 -0.671875 2.859375 -0.515625 C 3.003906 -0.367188 3.25 -0.296875 3.59375 -0.296875 L 3.59375 0 C 2.800781 -0.0390625 2.269531 -0.0625 2 -0.0625 C 1.726562 -0.0625 1.15625 -0.0390625 0.28125 0 L 0.28125 -0.296875 C 0.6875 -0.296875 0.96875 -0.367188 1.125 -0.515625 C 1.289062 -0.671875 1.375 -0.941406 1.375 -1.328125 L 1.375 -9.46875 C 1.375 -9.90625 1.289062 -10.222656 1.125 -10.421875 C 0.96875 -10.617188 0.6875 -10.71875 0.28125 -10.71875 L 0.28125 -11.03125 C 0.59375 -11 0.890625 -10.984375 1.171875 -10.984375 C 1.773438 -10.984375 2.269531 -11.050781 2.65625 -11.1875 Z M 2.65625 -5.84375" transform="translate(238.35 195.33)"/></g></g></g><g fill="#011936"><g><g><path d="M 6.609375 -1.71875 C 6.441406 -1.1875 6.117188 -0.734375 5.640625 -0.359375 C 5.171875 0.015625 4.601562 0.203125 3.9375 0.203125 C 3.257812 0.203125 2.671875 0.046875 2.171875 -0.265625 C 1.679688 -0.578125 1.304688 -1.007812 1.046875 -1.5625 C 0.785156 -2.125 0.65625 -2.769531 0.65625 -3.5 C 0.65625 -4.320312 0.785156 -5.035156 1.046875 -5.640625 C 1.316406 -6.253906 1.691406 -6.726562 2.171875 -7.0625 C 2.660156 -7.394531 3.234375 -7.5625 3.890625 -7.5625 C 4.742188 -7.5625 5.398438 -7.300781 5.859375 -6.78125 C 6.328125 -6.257812 6.5625 -5.46875 6.5625 -4.40625 L 2.078125 -4.40625 C 2.054688 -4.144531 2.046875 -3.84375 2.046875 -3.5 C 2.046875 -2.875 2.144531 -2.328125 2.34375 -1.859375 C 2.550781 -1.390625 2.820312 -1.03125 3.15625 -0.78125 C 3.5 -0.53125 3.859375 -0.40625 4.234375 -0.40625 C 4.679688 -0.40625 5.082031 -0.515625 5.4375 -0.734375 C 5.789062 -0.953125 6.085938 -1.316406 6.328125 -1.828125 Z M 3.828125 -7.28125 C 3.378906 -7.28125 2.992188 -7.0625 2.671875 -6.625 C 2.347656 -6.1875 2.148438 -5.539062 2.078125 -4.6875 L 5.1875 -4.6875 C 5.207031 -5.425781 5.097656 -6.039062 4.859375 -6.53125 C 4.628906 -7.03125 4.285156 -7.28125 3.828125 -7.28125 Z M 3.828125 -7.28125" transform="translate(246.745 195.33)"/></g></g></g><g fill="#011936"><g><g><path d="M 4.5 -10.109375 C 6.1875 -10.109375 7.445312 -9.6875 8.28125 -8.84375 C 9.125 -8 9.546875 -6.773438 9.546875 -5.171875 C 9.546875 -4.128906 9.335938 -3.21875 8.921875 -2.4375 C 8.515625 -1.65625 7.921875 -1.050781 7.140625 -0.625 C 6.367188 -0.207031 5.445312 0 4.375 0 L 3.546875 -0.015625 C 3.003906 -0.0351562 2.613281 -0.046875 2.375 -0.046875 C 1.59375 -0.046875 1 -0.03125 0.59375 0 L 0.59375 -0.28125 C 0.9375 -0.300781 1.1875 -0.335938 1.34375 -0.390625 C 1.5 -0.453125 1.601562 -0.5625 1.65625 -0.71875 C 1.71875 -0.882812 1.75 -1.148438 1.75 -1.515625 L 1.75 -8.59375 C 1.75 -8.957031 1.71875 -9.21875 1.65625 -9.375 C 1.601562 -9.539062 1.5 -9.648438 1.34375 -9.703125 C 1.1875 -9.765625 0.9375 -9.804688 0.59375 -9.828125 L 0.59375 -10.109375 C 0.925781 -10.078125 1.390625 -10.0625 1.984375 -10.0625 L 3.203125 -10.078125 C 3.847656 -10.097656 4.28125 -10.109375 4.5 -10.109375 Z M 4.140625 -9.859375 C 3.847656 -9.859375 3.625 -9.820312 3.46875 -9.75 C 3.320312 -9.6875 3.21875 -9.566406 3.15625 -9.390625 C 3.101562 -9.222656 3.078125 -8.96875 3.078125 -8.625 L 3.078125 -1.484375 C 3.078125 -1.140625 3.101562 -0.878906 3.15625 -0.703125 C 3.21875 -0.535156 3.320312 -0.414062 3.46875 -0.34375 C 3.625 -0.28125 3.851562 -0.25 4.15625 -0.25 C 5.164062 -0.25 5.957031 -0.429688 6.53125 -0.796875 C 7.113281 -1.171875 7.519531 -1.707031 7.75 -2.40625 C 7.988281 -3.113281 8.109375 -4.015625 8.109375 -5.109375 C 8.109375 -6.203125 7.976562 -7.09375 7.71875 -7.78125 C 7.46875 -8.476562 7.050781 -9 6.46875 -9.34375 C 5.894531 -9.6875 5.117188 -9.859375 4.140625 -9.859375 Z M 4.140625 -9.859375" transform="translate(257.523 195.33)"/></g></g></g><g fill="#011936"><g><g><path d="M 2.328125 0.09375 C 1.722656 0.09375 1.273438 -0.0507812 0.984375 -0.34375 C 0.703125 -0.644531 0.5625 -1.0625 0.5625 -1.59375 C 0.5625 -2.019531 0.675781 -2.375 0.90625 -2.65625 C 1.132812 -2.9375 1.410156 -3.15625 1.734375 -3.3125 C 2.054688 -3.476562 2.476562 -3.648438 3 -3.828125 C 3.53125 -4.003906 3.921875 -4.171875 4.171875 -4.328125 C 4.429688 -4.484375 4.5625 -4.6875 4.5625 -4.9375 L 4.5625 -5.828125 C 4.5625 -6.378906 4.445312 -6.753906 4.21875 -6.953125 C 3.988281 -7.160156 3.660156 -7.265625 3.234375 -7.265625 C 2.566406 -7.265625 2.097656 -7.09375 1.828125 -6.75 C 2.015625 -6.707031 2.171875 -6.609375 2.296875 -6.453125 C 2.429688 -6.304688 2.5 -6.117188 2.5 -5.890625 C 2.5 -5.648438 2.421875 -5.457031 2.265625 -5.3125 C 2.117188 -5.175781 1.925781 -5.109375 1.6875 -5.109375 C 1.414062 -5.109375 1.210938 -5.191406 1.078125 -5.359375 C 0.953125 -5.523438 0.890625 -5.726562 0.890625 -5.96875 C 0.890625 -6.195312 0.941406 -6.382812 1.046875 -6.53125 C 1.160156 -6.6875 1.328125 -6.84375 1.546875 -7 C 1.773438 -7.15625 2.0625 -7.285156 2.40625 -7.390625 C 2.757812 -7.503906 3.148438 -7.5625 3.578125 -7.5625 C 4.316406 -7.5625 4.875 -7.382812 5.25 -7.03125 C 5.488281 -6.8125 5.648438 -6.546875 5.734375 -6.234375 C 5.816406 -5.921875 5.859375 -5.515625 5.859375 -5.015625 L 5.859375 -1.046875 C 5.859375 -0.804688 5.890625 -0.632812 5.953125 -0.53125 C 6.023438 -0.425781 6.140625 -0.375 6.296875 -0.375 C 6.410156 -0.375 6.515625 -0.398438 6.609375 -0.453125 C 6.710938 -0.503906 6.820312 -0.578125 6.9375 -0.671875 L 7.09375 -0.421875 C 6.84375 -0.234375 6.628906 -0.0976562 6.453125 -0.015625 C 6.285156 0.0546875 6.066406 0.09375 5.796875 0.09375 C 5.335938 0.09375 5.015625 -0.015625 4.828125 -0.234375 C 4.648438 -0.460938 4.5625 -0.773438 4.5625 -1.171875 C 4.28125 -0.691406 3.953125 -0.359375 3.578125 -0.171875 C 3.210938 0.00390625 2.796875 0.09375 2.328125 0.09375 Z M 2.953125 -0.46875 C 3.585938 -0.46875 4.125 -0.832031 4.5625 -1.5625 L 4.5625 -4.359375 C 4.476562 -4.222656 4.359375 -4.113281 4.203125 -4.03125 C 4.054688 -3.945312 3.828125 -3.832031 3.515625 -3.6875 C 3.148438 -3.53125 2.851562 -3.382812 2.625 -3.25 C 2.40625 -3.113281 2.210938 -2.925781 2.046875 -2.6875 C 1.890625 -2.445312 1.8125 -2.140625 1.8125 -1.765625 C 1.8125 -1.335938 1.914062 -1.015625 2.125 -0.796875 C 2.332031 -0.578125 2.609375 -0.46875 2.953125 -0.46875 Z M 2.953125 -0.46875" transform="translate(267.845 195.33)"/></g></g></g><g fill="#011936"><g><g><path d="M 5.96875 -7.3125 C 6.382812 -7.3125 6.75 -7.328125 7.0625 -7.359375 L 7.0625 -7.0625 C 6.863281 -7.050781 6.691406 -6.96875 6.546875 -6.8125 C 6.398438 -6.65625 6.257812 -6.40625 6.125 -6.0625 L 3.78125 0.078125 L 3.296875 1.3125 C 3.117188 1.78125 2.914062 2.113281 2.6875 2.3125 C 2.539062 2.445312 2.367188 2.539062 2.171875 2.59375 C 1.972656 2.65625 1.773438 2.6875 1.578125 2.6875 C 1.285156 2.6875 1.046875 2.609375 0.859375 2.453125 C 0.679688 2.304688 0.59375 2.097656 0.59375 1.828125 C 0.59375 1.597656 0.660156 1.414062 0.796875 1.28125 C 0.929688 1.144531 1.117188 1.078125 1.359375 1.078125 C 1.566406 1.078125 1.738281 1.132812 1.875 1.25 C 2.007812 1.363281 2.078125 1.53125 2.078125 1.75 C 2.078125 2.03125 1.953125 2.242188 1.703125 2.390625 C 1.722656 2.398438 1.75 2.40625 1.78125 2.40625 C 2.3125 2.40625 2.71875 2.03125 3 1.28125 L 3.5 -0.015625 L 0.90625 -6.25 C 0.75 -6.570312 0.585938 -6.785156 0.421875 -6.890625 C 0.265625 -7.003906 0.101562 -7.0625 -0.0625 -7.0625 L -0.0625 -7.359375 C 0.351562 -7.296875 0.820312 -7.265625 1.34375 -7.265625 C 1.820312 -7.265625 2.441406 -7.296875 3.203125 -7.359375 L 3.203125 -7.0625 C 2.859375 -7.0625 2.609375 -7.03125 2.453125 -6.96875 C 2.296875 -6.914062 2.21875 -6.78125 2.21875 -6.5625 C 2.21875 -6.351562 2.273438 -6.117188 2.390625 -5.859375 L 4.09375 -1.59375 L 5.6875 -5.734375 C 5.789062 -6.015625 5.84375 -6.234375 5.84375 -6.390625 C 5.84375 -6.609375 5.753906 -6.769531 5.578125 -6.875 C 5.410156 -6.976562 5.140625 -7.039062 4.765625 -7.0625 L 4.765625 -7.359375 C 5.273438 -7.328125 5.675781 -7.3125 5.96875 -7.3125 Z M 5.96875 -7.3125" transform="translate(274.954 195.33)"/></g></g></g></svg>