<svg xmlns="http://www.w3.org/2000/svg" xmlns:xlink="http://www.w3.org/1999/xlink" width="375" viewBox="0 0 375 375" height="375" version="1.0"><defs><clipPath id="a"><path d="M 252.191406 140.84375 L 255.023438 140.84375 L 255.023438 143.675781 L 252.191406 143.675781 Z M 252.191406 140.84375"/></clipPath><clipPath id="b"><path d="M 177.578125 159.964844 L 180.523438 159.964844 L 180.523438 162.609375 L 177.578125 162.609375 Z M 177.578125 159.964844"/></clipPath><clipPath id="c"><path d="M 243 98.109375 L 249 98.109375 L 249 103 L 243 103 Z M 243 98.109375"/></clipPath><clipPath id="d"><path d="M 120.324219 137 L 126 137 L 126 143 L 120.324219 143 Z M 120.324219 137"/></clipPath><clipPath id="e"><path d="M 136.863281 109.328125 L 227.394531 109.328125 L 227.394531 137.890625 L 136.863281 137.890625 Z M 136.863281 109.328125"/></clipPath><clipPath id="f"><path d="M 138.496094 119.570312 C 138.496094 119.570312 138.421875 119.648438 138.285156 119.796875 C 138.148438 119.945312 137.960938 120.179688 137.753906 120.511719 C 137.347656 121.171875 136.914062 122.289062 136.964844 123.75 C 137.003906 125.203125 137.511719 126.960938 138.605469 128.660156 C 139.691406 130.367188 141.363281 131.996094 143.5625 133.167969 C 145.730469 134.386719 148.253906 135.398438 151.019531 136.058594 C 153.785156 136.734375 156.785156 137.0625 159.886719 137.066406 C 162.988281 137.070312 166.195312 136.761719 169.40625 136.203125 C 172.621094 135.644531 175.84375 134.84375 179.015625 133.878906 C 185.363281 131.945312 191.507812 129.363281 197.109375 126.648438 C 202.710938 123.929688 207.785156 121.070312 212.050781 118.492188 C 216.316406 115.914062 219.777344 113.613281 222.167969 111.964844 C 223.363281 111.140625 224.289062 110.480469 224.917969 110.023438 C 225.535156 109.570312 225.863281 109.328125 225.863281 109.328125 L 227.394531 111.425781 C 227.394531 111.425781 227.046875 111.667969 226.390625 112.128906 C 225.738281 112.578125 224.777344 113.226562 223.546875 114.03125 C 221.082031 115.640625 217.527344 117.882812 213.152344 120.378906 C 208.78125 122.878906 203.585938 125.636719 197.855469 128.246094 C 192.125 130.851562 185.851562 133.308594 179.371094 135.105469 C 176.132812 136.007812 172.84375 136.734375 169.570312 137.21875 C 166.296875 137.707031 163.03125 137.941406 159.875 137.859375 C 156.722656 137.773438 153.675781 137.367188 150.878906 136.613281 C 148.082031 135.867188 145.546875 134.777344 143.375 133.488281 C 142.292969 132.859375 141.289062 132.136719 140.46875 131.328125 C 139.640625 130.523438 138.957031 129.65625 138.425781 128.777344 C 137.347656 127.019531 136.871094 125.226562 136.863281 123.753906 C 136.847656 122.269531 137.308594 121.152344 137.730469 120.496094 C 137.945312 120.167969 138.140625 119.9375 138.28125 119.789062 C 138.421875 119.644531 138.496094 119.570312 138.496094 119.570312 Z M 138.496094 119.570312"/></clipPath><clipPath id="g"><path d="M 138.496094 119.570312 C 138.496094 119.570312 138.421875 119.648438 138.285156 119.796875 C 138.148438 119.945312 137.960938 120.179688 137.753906 120.511719 C 137.347656 121.171875 136.914062 122.289062 136.964844 123.75 C 137.003906 125.203125 137.511719 126.960938 138.605469 128.660156 C 139.691406 130.367188 141.363281 131.996094 143.5625 133.167969 C 145.730469 134.386719 148.253906 135.398438 151.019531 136.058594 C 153.785156 136.734375 156.785156 137.0625 159.886719 137.066406 C 162.988281 137.070312 166.195312 136.761719 169.40625 136.203125 C 172.621094 135.644531 175.84375 134.84375 179.015625 133.878906 C 185.363281 131.945312 191.507812 129.363281 197.109375 126.648438 C 202.710938 123.929688 207.785156 121.070312 212.050781 118.492188 C 216.316406 115.914062 219.777344 113.613281 222.167969 111.964844 C 223.363281 111.140625 224.289062 110.480469 224.917969 110.023438 C 225.535156 109.570312 225.863281 109.328125 225.863281 109.328125 L 227.394531 111.425781 C 227.394531 111.425781 227.046875 111.667969 226.390625 112.128906 C 225.738281 112.578125 224.777344 113.226562 223.546875 114.03125 C 221.082031 115.640625 217.527344 117.882812 213.152344 120.378906 C 208.78125 122.878906 203.585938 125.636719 197.855469 128.246094 C 192.125 130.851562 185.851562 133.308594 179.371094 135.105469 C 176.132812 136.007812 172.84375 136.734375 169.570312 137.21875 C 166.296875 137.707031 163.03125 137.941406 159.875 137.859375 C 156.722656 137.773438 153.675781 137.367188 150.878906 136.613281 C 148.082031 135.867188 145.546875 134.777344 143.375 133.488281 C 142.292969 132.859375 141.289062 132.136719 140.46875 131.328125 C 139.640625 130.523438 138.957031 129.65625 138.425781 128.777344 C 137.347656 127.019531 136.871094 125.226562 136.863281 123.753906 C 136.847656 122.269531 137.308594 121.152344 137.730469 120.496094 C 137.945312 120.167969 138.140625 119.9375 138.28125 119.789062 C 138.421875 119.644531 138.496094 119.570312 138.496094 119.570312"/></clipPath><clipPath id="i"><path d="M 130.035156 121.769531 L 246.925781 121.769531 L 246.925781 143.3125 L 130.035156 143.3125 Z M 130.035156 121.769531"/></clipPath><clipPath id="j"><path d="M 130.824219 121.769531 C 130.824219 121.769531 130.773438 121.886719 130.675781 122.113281 C 130.589844 122.34375 130.457031 122.683594 130.34375 123.148438 C 130.113281 124.0625 129.941406 125.503906 130.402344 127.230469 C 130.84375 128.953125 131.910156 130.894531 133.550781 132.738281 C 135.191406 134.582031 137.382812 136.371094 140.039062 137.839844 C 140.703125 138.203125 141.398438 138.546875 142.121094 138.855469 C 142.476562 139.007812 142.859375 139.148438 143.234375 139.296875 C 143.609375 139.441406 143.988281 139.59375 144.378906 139.71875 C 144.765625 139.847656 145.152344 139.980469 145.546875 140.113281 C 145.945312 140.234375 146.347656 140.351562 146.753906 140.472656 C 147.15625 140.59375 147.570312 140.703125 147.984375 140.804688 C 148.402344 140.90625 148.820312 141.019531 149.242188 141.113281 C 150.941406 141.496094 152.703125 141.800781 154.511719 142.042969 C 156.324219 142.261719 158.183594 142.441406 160.082031 142.527344 C 163.871094 142.707031 167.804688 142.632812 171.777344 142.335938 C 175.757812 142.050781 179.78125 141.539062 183.78125 140.902344 C 187.78125 140.253906 191.761719 139.464844 195.652344 138.574219 C 199.542969 137.691406 203.347656 136.707031 207.007812 135.683594 C 214.328125 133.636719 221.074219 131.410156 226.804688 129.371094 C 232.535156 127.328125 237.253906 125.46875 240.53125 124.125 C 242.171875 123.453125 243.453125 122.90625 244.324219 122.53125 C 244.757812 122.34375 245.09375 122.199219 245.316406 122.101562 C 245.425781 122.050781 245.511719 122.015625 245.566406 121.988281 L 245.585938 121.980469 L 245.597656 121.976562 L 245.601562 121.976562 L 245.601562 121.972656 L 245.574219 121.988281 C 245.421875 122.058594 245.265625 122.21875 245.203125 122.359375 C 245.078125 122.660156 245.132812 122.769531 245.121094 122.769531 L 246.894531 122.769531 C 246.882812 122.765625 246.925781 122.882812 246.773438 123.191406 C 246.691406 123.34375 246.523438 123.511719 246.34375 123.59375 C 246.324219 123.601562 246.304688 123.609375 246.277344 123.621094 C 246.21875 123.644531 246.132812 123.683594 246.015625 123.734375 C 245.789062 123.828125 245.449219 123.96875 245.007812 124.15625 C 244.121094 124.523438 242.824219 125.054688 241.164062 125.707031 C 237.84375 127.015625 233.078125 128.816406 227.296875 130.789062 C 221.511719 132.757812 214.707031 134.898438 207.324219 136.855469 C 203.632812 137.828125 199.800781 138.769531 195.875 139.601562 C 191.953125 140.441406 187.945312 141.175781 183.914062 141.773438 C 179.882812 142.359375 175.832031 142.816406 171.824219 143.046875 C 167.820312 143.292969 163.867188 143.3125 160.050781 143.078125 C 158.140625 142.964844 156.273438 142.757812 154.449219 142.511719 C 152.628906 142.242188 150.859375 141.910156 149.152344 141.5 C 148.726562 141.402344 148.308594 141.28125 147.890625 141.171875 C 147.46875 141.066406 147.058594 140.949219 146.652344 140.820312 C 146.246094 140.691406 145.839844 140.566406 145.441406 140.445312 C 145.042969 140.304688 144.652344 140.164062 144.261719 140.023438 C 143.871094 139.894531 143.492188 139.738281 143.121094 139.585938 C 142.746094 139.429688 142.375 139.289062 142.003906 139.128906 C 141.273438 138.804688 140.578125 138.445312 139.910156 138.070312 C 137.246094 136.550781 135.066406 134.722656 133.433594 132.839844 C 131.800781 130.960938 130.753906 128.992188 130.332031 127.25 C 129.890625 125.503906 130.082031 124.058594 130.324219 123.144531 C 130.445312 122.679688 130.582031 122.339844 130.671875 122.109375 C 130.773438 121.882812 130.824219 121.769531 130.824219 121.769531 Z M 130.824219 121.769531"/></clipPath><clipPath id="k"><path d="M 130.824219 121.769531 C 130.824219 121.769531 130.773438 121.886719 130.675781 122.113281 C 130.589844 122.34375 130.457031 122.683594 130.34375 123.148438 C 130.113281 124.0625 129.941406 125.503906 130.402344 127.230469 C 130.84375 128.953125 131.910156 130.894531 133.550781 132.738281 C 135.191406 134.582031 137.382812 136.371094 140.039062 137.839844 C 140.703125 138.203125 141.398438 138.546875 142.121094 138.855469 C 142.476562 139.007812 142.859375 139.148438 143.234375 139.296875 C 143.609375 139.441406 143.988281 139.59375 144.378906 139.71875 C 144.765625 139.847656 145.152344 139.980469 145.546875 140.113281 C 145.945312 140.234375 146.347656 140.351562 146.753906 140.472656 C 147.15625 140.59375 147.570312 140.703125 147.984375 140.804688 C 148.402344 140.90625 148.820312 141.019531 149.242188 141.113281 C 150.941406 141.496094 152.703125 141.800781 154.511719 142.042969 C 156.324219 142.261719 158.183594 142.441406 160.082031 142.527344 C 163.871094 142.707031 167.804688 142.632812 171.777344 142.335938 C 175.757812 142.050781 179.78125 141.539062 183.78125 140.902344 C 187.78125 140.253906 191.761719 139.464844 195.652344 138.574219 C 199.542969 137.691406 203.347656 136.707031 207.007812 135.683594 C 214.328125 133.636719 221.074219 131.410156 226.804688 129.371094 C 232.535156 127.328125 237.253906 125.46875 240.53125 124.125 C 242.171875 123.453125 243.453125 122.90625 244.324219 122.53125 C 244.757812 122.34375 245.09375 122.199219 245.316406 122.101562 C 245.425781 122.050781 245.511719 122.015625 245.566406 121.988281 L 245.585938 121.980469 L 245.597656 121.976562 L 245.601562 121.976562 L 245.601562 121.972656 L 245.574219 121.988281 C 245.421875 122.058594 245.265625 122.21875 245.203125 122.359375 C 245.078125 122.660156 245.132812 122.769531 245.121094 122.769531 L 246.894531 122.769531 C 246.882812 122.765625 246.925781 122.882812 246.773438 123.191406 C 246.691406 123.34375 246.523438 123.511719 246.34375 123.59375 C 246.324219 123.601562 246.304688 123.609375 246.277344 123.621094 C 246.21875 123.644531 246.132812 123.683594 246.015625 123.734375 C 245.789062 123.828125 245.449219 123.96875 245.007812 124.15625 C 244.121094 124.523438 242.824219 125.054688 241.164062 125.707031 C 237.84375 127.015625 233.078125 128.816406 227.296875 130.789062 C 221.511719 132.757812 214.707031 134.898438 207.324219 136.855469 C 203.632812 137.828125 199.800781 138.769531 195.875 139.601562 C 191.953125 140.441406 187.945312 141.175781 183.914062 141.773438 C 179.882812 142.359375 175.832031 142.816406 171.824219 143.046875 C 167.820312 143.292969 163.867188 143.3125 160.050781 143.078125 C 158.140625 142.964844 156.273438 142.757812 154.449219 142.511719 C 152.628906 142.242188 150.859375 141.910156 149.152344 141.5 C 148.726562 141.402344 148.308594 141.28125 147.890625 141.171875 C 147.46875 141.066406 147.058594 140.949219 146.652344 140.820312 C 146.246094 140.691406 145.839844 140.566406 145.441406 140.445312 C 145.042969 140.304688 144.652344 140.164062 144.261719 140.023438 C 143.871094 139.894531 143.492188 139.738281 143.121094 139.585938 C 142.746094 139.429688 142.375 139.289062 142.003906 139.128906 C 141.273438 138.804688 140.578125 138.445312 139.910156 138.070312 C 137.246094 136.550781 135.066406 134.722656 133.433594 132.839844 C 131.800781 130.960938 130.753906 128.992188 130.332031 127.25 C 129.890625 125.503906 130.082031 124.058594 130.324219 123.144531 C 130.445312 122.679688 130.582031 122.339844 130.671875 122.109375 C 130.773438 121.882812 130.824219 121.769531 130.824219 121.769531"/></clipPath><clipPath id="m"><path d="M 137.566406 128 L 236.390625 128 L 236.390625 152.367188 L 137.566406 152.367188 Z M 137.566406 128"/></clipPath><clipPath id="n"><path d="M 143.074219 128 C 143.074219 128 142.972656 128.050781 142.777344 128.148438 C 142.578125 128.242188 142.289062 128.398438 141.921875 128.613281 C 141.199219 129.050781 140.125 129.746094 139.144531 131.003906 C 138.671875 131.632812 138.234375 132.414062 137.988281 133.335938 C 137.738281 134.253906 137.679688 135.304688 137.859375 136.386719 C 138.207031 138.570312 139.464844 140.828125 141.289062 142.820312 C 143.117188 144.820312 145.519531 146.597656 148.320312 147.914062 C 149.726562 148.574219 151.222656 149.105469 152.808594 149.484375 C 154.394531 149.886719 156.023438 150.226562 157.699219 150.492188 C 161.050781 151.027344 164.550781 151.332031 168.113281 151.441406 C 171.675781 151.5625 175.304688 151.496094 178.921875 151.308594 C 186.160156 150.929688 193.371094 150.050781 200.085938 148.992188 C 206.800781 147.929688 213.027344 146.683594 218.335938 145.503906 C 223.648438 144.320312 228.042969 143.207031 231.109375 142.394531 C 232.640625 141.988281 233.839844 141.652344 234.65625 141.421875 C 235.46875 141.191406 235.898438 141.066406 235.898438 141.066406 L 236.390625 142.777344 C 236.390625 142.777344 235.949219 142.898438 235.121094 143.121094 C 234.292969 143.34375 233.078125 143.660156 231.53125 144.046875 C 228.4375 144.820312 224.003906 145.871094 218.652344 146.976562 C 213.300781 148.082031 207.027344 149.242188 200.265625 150.210938 C 193.503906 151.171875 186.25 151.949219 178.960938 152.21875 C 175.320312 152.351562 171.671875 152.367188 168.082031 152.191406 C 164.496094 152.027344 160.972656 151.667969 157.601562 151.078125 C 155.917969 150.78125 154.265625 150.414062 152.679688 149.984375 C 151.082031 149.574219 149.546875 149.003906 148.132812 148.3125 C 145.300781 146.925781 142.890625 145.078125 141.066406 143.019531 C 139.25 140.964844 138.007812 138.648438 137.683594 136.414062 C 137.519531 135.304688 137.597656 134.230469 137.871094 133.300781 C 138.136719 132.367188 138.59375 131.582031 139.082031 130.953125 C 140.089844 129.699219 141.179688 129.019531 141.910156 128.59375 C 142.28125 128.382812 142.574219 128.234375 142.773438 128.144531 C 142.972656 128.046875 143.074219 128 143.074219 128 Z M 143.074219 128"/></clipPath><clipPath id="o"><path d="M 143.074219 128 C 143.074219 128 142.972656 128.050781 142.777344 128.148438 C 142.578125 128.242188 142.289062 128.398438 141.921875 128.613281 C 141.199219 129.050781 140.125 129.746094 139.144531 131.003906 C 138.671875 131.632812 138.234375 132.414062 137.988281 133.335938 C 137.738281 134.253906 137.679688 135.304688 137.859375 136.386719 C 138.207031 138.570312 139.464844 140.828125 141.289062 142.820312 C 143.117188 144.820312 145.519531 146.597656 148.320312 147.914062 C 149.726562 148.574219 151.222656 149.105469 152.808594 149.484375 C 154.394531 149.886719 156.023438 150.226562 157.699219 150.492188 C 161.050781 151.027344 164.550781 151.332031 168.113281 151.441406 C 171.675781 151.5625 175.304688 151.496094 178.921875 151.308594 C 186.160156 150.929688 193.371094 150.050781 200.085938 148.992188 C 206.800781 147.929688 213.027344 146.683594 218.335938 145.503906 C 223.648438 144.320312 228.042969 143.207031 231.109375 142.394531 C 232.640625 141.988281 233.839844 141.652344 234.65625 141.421875 C 235.46875 141.191406 235.898438 141.066406 235.898438 141.066406 L 236.390625 142.777344 C 236.390625 142.777344 235.949219 142.898438 235.121094 143.121094 C 234.292969 143.34375 233.078125 143.660156 231.53125 144.046875 C 228.4375 144.820312 224.003906 145.871094 218.652344 146.976562 C 213.300781 148.082031 207.027344 149.242188 200.265625 150.210938 C 193.503906 151.171875 186.25 151.949219 178.960938 152.21875 C 175.320312 152.351562 171.671875 152.367188 168.082031 152.191406 C 164.496094 152.027344 160.972656 151.667969 157.601562 151.078125 C 155.917969 150.78125 154.265625 150.414062 152.679688 149.984375 C 151.082031 149.574219 149.546875 149.003906 148.132812 148.3125 C 145.300781 146.925781 142.890625 145.078125 141.066406 143.019531 C 139.25 140.964844 138.007812 138.648438 137.683594 136.414062 C 137.519531 135.304688 137.597656 134.230469 137.871094 133.300781 C 138.136719 132.367188 138.59375 131.582031 139.082031 130.953125 C 140.089844 129.699219 141.179688 129.019531 141.910156 128.59375 C 142.28125 128.382812 142.574219 128.234375 142.773438 128.144531 C 142.972656 128.046875 143.074219 128 143.074219 128"/></clipPath><linearGradient x1=".014" gradientTransform="matrix(91.78191 0 0 92.06466 135.615 123.602)" xmlns:xlink="http://www.w3.org/1999/xlink" y1="0" x2="1" gradientUnits="userSpaceOnUse" y2="0" xlink:type="simple" xlink:actuate="onLoad" id="h" xlink:show="other"><stop stop-color="#555" offset="0"/><stop stop-color="#555" offset=".008"/><stop stop-color="#545454" offset=".012"/><stop stop-color="#545454" offset=".016"/><stop stop-color="#535353" offset=".02"/><stop stop-color="#535353" offset=".023"/><stop stop-color="#525252" offset=".031"/><stop stop-color="#525252" offset=".039"/><stop stop-color="#515151" offset=".047"/><stop stop-color="#505050" offset=".055"/><stop stop-color="#4F4F4F" offset=".059"/><stop stop-color="#4E4E4E" offset=".063"/><stop stop-color="#4D4D4D" offset=".066"/><stop stop-color="#4D4D4D" offset=".07"/><stop stop-color="#4C4C4C" offset=".078"/><stop stop-color="#4B4B4B" offset=".086"/><stop stop-color="#4A4A4A" offset=".094"/><stop stop-color="#494949" offset=".098"/><stop stop-color="#494949" offset=".102"/><stop stop-color="#484848" offset=".105"/><stop stop-color="#484848" offset=".109"/><stop stop-color="#474747" offset=".117"/><stop stop-color="#464646" offset=".125"/><stop stop-color="#464646" offset=".141"/><stop stop-color="#454545" offset=".145"/><stop stop-color="#444" offset=".148"/><stop stop-color="#434343" offset=".156"/><stop stop-color="#424242" offset=".164"/><stop stop-color="#414141" offset=".172"/><stop stop-color="#404040" offset=".18"/><stop stop-color="#3F3F3F" offset=".188"/><stop stop-color="#3E3E3E" offset=".191"/><stop stop-color="#3E3E3E" offset=".195"/><stop stop-color="#3D3D3D" offset=".203"/><stop stop-color="#3C3C3C" offset=".219"/><stop stop-color="#3B3B3B" offset=".227"/><stop stop-color="#3A3A3A" offset=".23"/><stop stop-color="#3A3A3A" offset=".234"/><stop stop-color="#393939" offset=".242"/><stop stop-color="#393939" offset=".25"/><stop stop-color="#383838" offset=".258"/><stop stop-color="#373737" offset=".266"/><stop stop-color="#363636" offset=".27"/><stop stop-color="#353535" offset=".273"/><stop stop-color="#353535" offset=".281"/><stop stop-color="#343434" offset=".289"/><stop stop-color="#333" offset=".297"/><stop stop-color="#323232" offset=".305"/><stop stop-color="#313131" offset=".313"/><stop stop-color="#303030" offset=".316"/><stop stop-color="#303030" offset=".32"/><stop stop-color="#303030" offset=".328"/><stop stop-color="#2F2F2F" offset=".336"/><stop stop-color="#2E2E2E" offset=".344"/><stop stop-color="#2D2D2D" offset=".352"/><stop stop-color="#2C2C2C" offset=".359"/><stop stop-color="#2C2C2C" offset=".367"/><stop stop-color="#2C2C2C" offset=".375"/><stop stop-color="#2B2B2B" offset=".383"/><stop stop-color="#2A2A2A" offset=".391"/><stop stop-color="#292929" offset=".395"/><stop stop-color="#282828" offset=".398"/><stop stop-color="#282828" offset=".406"/><stop stop-color="#272727" offset=".414"/><stop stop-color="#262626" offset=".422"/><stop stop-color="#252525" offset=".438"/><stop stop-color="#242424" offset=".441"/><stop stop-color="#242424" offset=".445"/><stop stop-color="#232323" offset=".453"/><stop stop-color="#222" offset=".469"/><stop stop-color="#212121" offset=".477"/><stop stop-color="#202020" offset=".48"/><stop stop-color="#202020" offset=".484"/><stop stop-color="#1F1F1F" offset=".5"/><stop stop-color="#1F1F1F" offset=".508"/><stop stop-color="#1E1E1E" offset=".516"/><stop stop-color="#1D1D1D" offset=".523"/><stop stop-color="#1C1C1C" offset=".531"/><stop stop-color="#1B1B1B" offset=".547"/><stop stop-color="#1B1B1B" offset=".555"/><stop stop-color="#1A1A1A" offset=".563"/><stop stop-color="#191919" offset=".57"/><stop stop-color="#181818" offset=".578"/><stop stop-color="#171717" offset=".594"/><stop stop-color="#161616" offset=".602"/><stop stop-color="#151515" offset=".605"/><stop stop-color="#151515" offset=".609"/><stop stop-color="#151515" offset=".617"/><stop stop-color="#141414" offset=".625"/><stop stop-color="#141414" offset=".641"/><stop stop-color="#131313" offset=".645"/><stop stop-color="#121212" offset=".648"/><stop stop-color="#121212" offset=".656"/><stop stop-color="#121212" offset=".672"/><stop stop-color="#111" offset=".68"/><stop stop-color="#101010" offset=".688"/><stop stop-color="#0F0F0F" offset=".695"/><stop stop-color="#0F0F0F" offset=".703"/><stop stop-color="#0E0E0E" offset=".711"/><stop stop-color="#0E0E0E" offset=".719"/><stop stop-color="#0D0D0D" offset=".727"/><stop stop-color="#0C0C0C" offset=".73"/><stop stop-color="#0C0C0C" offset=".734"/><stop stop-color="#0C0C0C" offset=".742"/><stop stop-color="#0B0B0B" offset=".75"/><stop stop-color="#0A0A0A" offset=".766"/><stop stop-color="#0A0A0A" offset=".773"/><stop stop-color="#090909" offset=".781"/><stop stop-color="#080808" offset=".813"/><stop stop-color="#080808" offset=".82"/><stop stop-color="#070707" offset=".828"/><stop stop-color="#060606" offset=".844"/><stop stop-color="#060606" offset=".852"/><stop stop-color="#050505" offset=".859"/><stop stop-color="#050505" offset=".875"/><stop stop-color="#040404" offset=".891"/><stop stop-color="#040404" offset=".898"/><stop stop-color="#030303" offset=".906"/><stop stop-color="#030303" offset=".922"/><stop stop-color="#020202" offset=".938"/><stop stop-color="#020202" offset=".953"/><stop stop-color="#010101" offset=".969"/><stop stop-color="#010101" offset=".984"/><stop offset="1"/></linearGradient><linearGradient x1=".007" gradientTransform="matrix(117.16704 0 0 117.52799 129.2 132.505)" xmlns:xlink="http://www.w3.org/1999/xlink" y1="0" x2="1.005" gradientUnits="userSpaceOnUse" y2="0" xlink:type="simple" xlink:actuate="onLoad" id="l" xlink:show="other"><stop stop-color="#565656" offset="0"/><stop stop-color="#555" offset=".004"/><stop stop-color="#555" offset=".008"/><stop stop-color="#545454" offset=".012"/><stop stop-color="#545454" offset=".016"/><stop stop-color="#545454" offset=".023"/><stop stop-color="#535353" offset=".031"/><stop stop-color="#525252" offset=".039"/><stop stop-color="#515151" offset=".047"/><stop stop-color="#505050" offset=".055"/><stop stop-color="#4F4F4F" offset=".059"/><stop stop-color="#4F4F4F" offset=".063"/><stop stop-color="#4E4E4E" offset=".066"/><stop stop-color="#4E4E4E" offset=".07"/><stop stop-color="#4D4D4D" offset=".078"/><stop stop-color="#4C4C4C" offset=".086"/><stop stop-color="#4B4B4B" offset=".094"/><stop stop-color="#4A4A4A" offset=".098"/><stop stop-color="#4A4A4A" offset=".102"/><stop stop-color="#494949" offset=".105"/><stop stop-color="#494949" offset=".109"/><stop stop-color="#484848" offset=".117"/><stop stop-color="#474747" offset=".125"/><stop stop-color="#464646" offset=".133"/><stop stop-color="#464646" offset=".137"/><stop stop-color="#454545" offset=".141"/><stop stop-color="#444" offset=".145"/><stop stop-color="#444" offset=".148"/><stop stop-color="#434343" offset=".156"/><stop stop-color="#424242" offset=".172"/><stop stop-color="#414141" offset=".18"/><stop stop-color="#404040" offset=".184"/><stop stop-color="#404040" offset=".188"/><stop stop-color="#3F3F3F" offset=".191"/><stop stop-color="#3F3F3F" offset=".195"/><stop stop-color="#3E3E3E" offset=".203"/><stop stop-color="#3D3D3D" offset=".211"/><stop stop-color="#3C3C3C" offset=".219"/><stop stop-color="#3B3B3B" offset=".223"/><stop stop-color="#3B3B3B" offset=".227"/><stop stop-color="#3A3A3A" offset=".23"/><stop stop-color="#3A3A3A" offset=".234"/><stop stop-color="#393939" offset=".25"/><stop stop-color="#393939" offset=".258"/><stop stop-color="#383838" offset=".262"/><stop stop-color="#373737" offset=".266"/><stop stop-color="#363636" offset=".27"/><stop stop-color="#363636" offset=".273"/><stop stop-color="#353535" offset=".281"/><stop stop-color="#343434" offset=".289"/><stop stop-color="#333" offset=".297"/><stop stop-color="#333" offset=".305"/><stop stop-color="#323232" offset=".313"/><stop stop-color="#313131" offset=".316"/><stop stop-color="#313131" offset=".32"/><stop stop-color="#303030" offset=".328"/><stop stop-color="#2F2F2F" offset=".336"/><stop stop-color="#2E2E2E" offset=".344"/><stop stop-color="#2E2E2E" offset=".352"/><stop stop-color="#2D2D2D" offset=".355"/><stop stop-color="#2D2D2D" offset=".359"/><stop stop-color="#2C2C2C" offset=".367"/><stop stop-color="#2C2C2C" offset=".375"/><stop stop-color="#2B2B2B" offset=".391"/><stop stop-color="#292929" offset=".395"/><stop stop-color="#292929" offset=".398"/><stop stop-color="#282828" offset=".406"/><stop stop-color="#272727" offset=".414"/><stop stop-color="#262626" offset=".422"/><stop stop-color="#262626" offset=".43"/><stop stop-color="#252525" offset=".438"/><stop stop-color="#242424" offset=".441"/><stop stop-color="#242424" offset=".445"/><stop stop-color="#232323" offset=".453"/><stop stop-color="#232323" offset=".461"/><stop stop-color="#222" offset=".469"/><stop stop-color="#212121" offset=".477"/><stop stop-color="#202020" offset=".48"/><stop stop-color="#202020" offset=".484"/><stop stop-color="#1F1F1F" offset=".5"/><stop stop-color="#1F1F1F" offset=".516"/><stop stop-color="#1E1E1E" offset=".52"/><stop stop-color="#1D1D1D" offset=".523"/><stop stop-color="#1C1C1C" offset=".531"/><stop stop-color="#1B1B1B" offset=".547"/><stop stop-color="#1A1A1A" offset=".555"/><stop stop-color="#1A1A1A" offset=".563"/><stop stop-color="#191919" offset=".57"/><stop stop-color="#181818" offset=".578"/><stop stop-color="#171717" offset=".594"/><stop stop-color="#161616" offset=".602"/><stop stop-color="#151515" offset=".605"/><stop stop-color="#151515" offset=".609"/><stop stop-color="#151515" offset=".617"/><stop stop-color="#141414" offset=".625"/><stop stop-color="#141414" offset=".641"/><stop stop-color="#131313" offset=".645"/><stop stop-color="#121212" offset=".648"/><stop stop-color="#121212" offset=".656"/><stop stop-color="#121212" offset=".672"/><stop stop-color="#111" offset=".68"/><stop stop-color="#101010" offset=".688"/><stop stop-color="#0F0F0F" offset=".695"/><stop stop-color="#0F0F0F" offset=".703"/><stop stop-color="#0E0E0E" offset=".711"/><stop stop-color="#0E0E0E" offset=".719"/><stop stop-color="#0D0D0D" offset=".727"/><stop stop-color="#0C0C0C" offset=".73"/><stop stop-color="#0C0C0C" offset=".734"/><stop stop-color="#0C0C0C" offset=".742"/><stop stop-color="#0B0B0B" offset=".75"/><stop stop-color="#0A0A0A" offset=".766"/><stop stop-color="#0A0A0A" offset=".773"/><stop stop-color="#090909" offset=".781"/><stop stop-color="#080808" offset=".797"/><stop stop-color="#070707" offset=".813"/><stop stop-color="#070707" offset=".844"/><stop stop-color="#060606" offset=".852"/><stop stop-color="#050505" offset=".859"/><stop stop-color="#050505" offset=".875"/><stop stop-color="#040404" offset=".891"/><stop stop-color="#030303" offset=".906"/><stop stop-color="#030303" offset=".922"/><stop stop-color="#020202" offset=".938"/><stop stop-color="#020202" offset=".953"/><stop stop-color="#010101" offset=".969"/><stop stop-color="#010101" offset=".984"/><stop offset="1"/></linearGradient><linearGradient x1=".008" gradientTransform="matrix(99.60559 0 0 99.91243 136.787 140.16)" xmlns:xlink="http://www.w3.org/1999/xlink" y1="0" x2="1" gradientUnits="userSpaceOnUse" y2="0" xlink:type="simple" xlink:actuate="onLoad" id="p" xlink:show="other"><stop stop-color="#565656" offset="0"/><stop stop-color="#565656" offset=".008"/><stop stop-color="#555" offset=".012"/><stop stop-color="#555" offset=".016"/><stop stop-color="#545454" offset=".02"/><stop stop-color="#545454" offset=".023"/><stop stop-color="#535353" offset=".031"/><stop stop-color="#525252" offset=".039"/><stop stop-color="#515151" offset=".047"/><stop stop-color="#515151" offset=".055"/><stop stop-color="#505050" offset=".059"/><stop stop-color="#4F4F4F" offset=".063"/><stop stop-color="#4E4E4E" offset=".066"/><stop stop-color="#4E4E4E" offset=".07"/><stop stop-color="#4D4D4D" offset=".078"/><stop stop-color="#4C4C4C" offset=".086"/><stop stop-color="#4B4B4B" offset=".094"/><stop stop-color="#4A4A4A" offset=".098"/><stop stop-color="#4A4A4A" offset=".102"/><stop stop-color="#494949" offset=".105"/><stop stop-color="#494949" offset=".109"/><stop stop-color="#484848" offset=".117"/><stop stop-color="#474747" offset=".125"/><stop stop-color="#464646" offset=".133"/><stop stop-color="#464646" offset=".137"/><stop stop-color="#454545" offset=".141"/><stop stop-color="#444" offset=".145"/><stop stop-color="#444" offset=".148"/><stop stop-color="#434343" offset=".156"/><stop stop-color="#424242" offset=".164"/><stop stop-color="#414141" offset=".172"/><stop stop-color="#414141" offset=".18"/><stop stop-color="#404040" offset=".184"/><stop stop-color="#404040" offset=".188"/><stop stop-color="#3F3F3F" offset=".191"/><stop stop-color="#3F3F3F" offset=".195"/><stop stop-color="#3E3E3E" offset=".203"/><stop stop-color="#3D3D3D" offset=".211"/><stop stop-color="#3C3C3C" offset=".219"/><stop stop-color="#3B3B3B" offset=".223"/><stop stop-color="#3B3B3B" offset=".227"/><stop stop-color="#3A3A3A" offset=".23"/><stop stop-color="#3A3A3A" offset=".234"/><stop stop-color="#393939" offset=".25"/><stop stop-color="#393939" offset=".258"/><stop stop-color="#383838" offset=".262"/><stop stop-color="#373737" offset=".266"/><stop stop-color="#363636" offset=".27"/><stop stop-color="#363636" offset=".273"/><stop stop-color="#353535" offset=".281"/><stop stop-color="#343434" offset=".289"/><stop stop-color="#333" offset=".297"/><stop stop-color="#333" offset=".305"/><stop stop-color="#323232" offset=".313"/><stop stop-color="#313131" offset=".316"/><stop stop-color="#313131" offset=".32"/><stop stop-color="#303030" offset=".328"/><stop stop-color="#2F2F2F" offset=".336"/><stop stop-color="#2E2E2E" offset=".344"/><stop stop-color="#2E2E2E" offset=".352"/><stop stop-color="#2D2D2D" offset=".355"/><stop stop-color="#2D2D2D" offset=".359"/><stop stop-color="#2C2C2C" offset=".367"/><stop stop-color="#2C2C2C" offset=".375"/><stop stop-color="#2B2B2B" offset=".391"/><stop stop-color="#292929" offset=".395"/><stop stop-color="#292929" offset=".398"/><stop stop-color="#282828" offset=".406"/><stop stop-color="#272727" offset=".422"/><stop stop-color="#262626" offset=".43"/><stop stop-color="#252525" offset=".438"/><stop stop-color="#242424" offset=".441"/><stop stop-color="#242424" offset=".445"/><stop stop-color="#232323" offset=".453"/><stop stop-color="#232323" offset=".461"/><stop stop-color="#222" offset=".469"/><stop stop-color="#212121" offset=".477"/><stop stop-color="#212121" offset=".484"/><stop stop-color="#202020" offset=".492"/><stop stop-color="#1F1F1F" offset=".5"/><stop stop-color="#1F1F1F" offset=".516"/><stop stop-color="#1E1E1E" offset=".52"/><stop stop-color="#1D1D1D" offset=".523"/><stop stop-color="#1D1D1D" offset=".531"/><stop stop-color="#1C1C1C" offset=".539"/><stop stop-color="#1B1B1B" offset=".547"/><stop stop-color="#1B1B1B" offset=".563"/><stop stop-color="#191919" offset=".566"/><stop stop-color="#191919" offset=".57"/><stop stop-color="#181818" offset=".578"/><stop stop-color="#181818" offset=".586"/><stop stop-color="#171717" offset=".594"/><stop stop-color="#161616" offset=".602"/><stop stop-color="#161616" offset=".609"/><stop stop-color="#151515" offset=".617"/><stop stop-color="#141414" offset=".625"/><stop stop-color="#141414" offset=".641"/><stop stop-color="#131313" offset=".648"/><stop stop-color="#131313" offset=".656"/><stop stop-color="#121212" offset=".672"/><stop stop-color="#111" offset=".68"/><stop stop-color="#101010" offset=".688"/><stop stop-color="#101010" offset=".691"/><stop stop-color="#0F0F0F" offset=".695"/><stop stop-color="#0E0E0E" offset=".703"/><stop stop-color="#0E0E0E" offset=".711"/><stop stop-color="#0E0E0E" offset=".719"/><stop stop-color="#0D0D0D" offset=".727"/><stop stop-color="#0C0C0C" offset=".73"/><stop stop-color="#0C0C0C" offset=".734"/><stop stop-color="#0C0C0C" offset=".742"/><stop stop-color="#0B0B0B" offset=".75"/><stop stop-color="#0B0B0B" offset=".758"/><stop stop-color="#0A0A0A" offset=".766"/><stop stop-color="#0A0A0A" offset=".773"/><stop stop-color="#090909" offset=".781"/><stop stop-color="#080808" offset=".813"/><stop stop-color="#080808" offset=".82"/><stop stop-color="#070707" offset=".828"/><stop stop-color="#060606" offset=".844"/><stop stop-color="#060606" offset=".852"/><stop stop-color="#050505" offset=".859"/><stop stop-color="#050505" offset=".875"/><stop stop-color="#040404" offset=".891"/><stop stop-color="#040404" offset=".898"/><stop stop-color="#030303" offset=".906"/><stop stop-color="#030303" offset=".922"/><stop stop-color="#020202" offset=".938"/><stop stop-color="#020202" offset=".953"/><stop stop-color="#010101" offset=".969"/><stop stop-color="#010101" offset=".984"/><stop offset="1"/></linearGradient></defs><g fill="#13293D"><g><g><path d="M 33.28125 -4.375 C 33.726562 -3.257812 34.21875 -2.429688 34.75 -1.890625 C 35.289062 -1.359375 35.820312 -1.078125 36.34375 -1.046875 L 36.34375 0 C 33.851562 -0.101562 30.703125 -0.15625 26.890625 -0.15625 C 22.929688 -0.15625 20.015625 -0.101562 18.140625 0 L 18.140625 -1.046875 C 19.460938 -1.109375 20.398438 -1.269531 20.953125 -1.53125 C 21.503906 -1.789062 21.78125 -2.25 21.78125 -2.90625 C 21.78125 -3.53125 21.570312 -4.363281 21.15625 -5.40625 L 18.09375 -13.9375 L 7.59375 -13.9375 L 6.703125 -11.59375 C 5.554688 -8.644531 4.984375 -6.394531 4.984375 -4.84375 C 4.984375 -3.414062 5.382812 -2.441406 6.1875 -1.921875 C 6.988281 -1.398438 8.164062 -1.109375 9.71875 -1.046875 L 9.71875 0 C 7.125 -0.101562 4.851562 -0.15625 2.90625 -0.15625 C 1.28125 -0.15625 -0.0507812 -0.101562 -1.09375 0 L -1.09375 -1.046875 C -0.226562 -1.179688 0.582031 -1.71875 1.34375 -2.65625 C 2.113281 -3.59375 2.894531 -5.082031 3.6875 -7.125 L 15.234375 -36.8125 C 16.347656 -36.75 17.265625 -36.71875 17.984375 -36.71875 C 18.679688 -36.71875 19.585938 -36.75 20.703125 -36.8125 Z M 17.734375 -14.96875 L 13 -27.96875 L 8.015625 -14.96875 Z M 17.734375 -14.96875" transform="translate(109.3 208.875)"/></g></g></g><g fill="#13293D"><g><g><path d="M 15.703125 -14.875 L 15.703125 -6.03125 C 15.703125 -4.570312 15.847656 -3.515625 16.140625 -2.859375 C 16.441406 -2.203125 16.976562 -1.757812 17.75 -1.53125 C 18.53125 -1.3125 19.769531 -1.203125 21.46875 -1.203125 L 21.46875 0 C 16.789062 -0.101562 13.222656 -0.15625 10.765625 -0.15625 C 9.128906 -0.15625 6.859375 -0.117188 3.953125 -0.046875 L 1.453125 0 L 1.453125 -1.046875 C 2.566406 -1.109375 3.375 -1.242188 3.875 -1.453125 C 4.375 -1.660156 4.707031 -2.054688 4.875 -2.640625 C 5.050781 -3.234375 5.140625 -4.191406 5.140625 -5.515625 L 5.140625 -31.296875 C 5.140625 -32.617188 5.046875 -33.570312 4.859375 -34.15625 C 4.671875 -34.75 4.332031 -35.148438 3.84375 -35.359375 C 3.363281 -35.566406 2.566406 -35.707031 1.453125 -35.78125 L 1.453125 -36.8125 C 3.429688 -36.707031 6.414062 -36.65625 10.40625 -36.65625 L 16.375 -36.71875 C 17.070312 -36.75 17.867188 -36.765625 18.765625 -36.765625 C 23.898438 -36.765625 27.789062 -35.835938 30.4375 -33.984375 C 33.09375 -32.128906 34.421875 -29.640625 34.421875 -26.515625 C 34.421875 -24.609375 33.898438 -22.78125 32.859375 -21.03125 C 31.816406 -19.28125 30.046875 -17.816406 27.546875 -16.640625 C 25.054688 -15.460938 21.75 -14.875 17.625 -14.875 Z M 18.515625 -35.78125 C 17.710938 -35.78125 17.113281 -35.65625 16.71875 -35.40625 C 16.320312 -35.164062 16.050781 -34.734375 15.90625 -34.109375 C 15.769531 -33.484375 15.703125 -32.546875 15.703125 -31.296875 L 15.703125 -15.90625 L 17.109375 -15.90625 C 19.535156 -15.90625 21.207031 -16.804688 22.125 -18.609375 C 23.039062 -20.410156 23.5 -22.859375 23.5 -25.953125 C 23.5 -29.304688 23.117188 -31.78125 22.359375 -33.375 C 21.597656 -34.976562 20.316406 -35.78125 18.515625 -35.78125 Z M 18.515625 -35.78125" transform="translate(145.282 208.875)"/></g></g></g><g fill="#13293D"><g><g><path d="M 21.53125 -37.546875 C 25.445312 -37.546875 28.878906 -36.800781 31.828125 -35.3125 C 34.773438 -33.820312 37.0625 -31.660156 38.6875 -28.828125 C 40.3125 -26.003906 41.125 -22.632812 41.125 -18.71875 C 41.125 -14.90625 40.289062 -11.523438 38.625 -8.578125 C 36.96875 -5.628906 34.648438 -3.335938 31.671875 -1.703125 C 28.691406 -0.078125 25.289062 0.734375 21.46875 0.734375 C 17.550781 0.734375 14.117188 -0.0078125 11.171875 -1.5 C 8.234375 -3 5.945312 -5.160156 4.3125 -7.984375 C 2.6875 -10.804688 1.875 -14.175781 1.875 -18.09375 C 1.875 -21.90625 2.703125 -25.285156 4.359375 -28.234375 C 6.023438 -31.179688 8.347656 -33.46875 11.328125 -35.09375 C 14.316406 -36.726562 17.71875 -37.546875 21.53125 -37.546875 Z M 21.3125 -36.609375 C 19.613281 -36.609375 18.113281 -35.835938 16.8125 -34.296875 C 15.519531 -32.753906 14.523438 -30.59375 13.828125 -27.8125 C 13.140625 -25.039062 12.796875 -21.867188 12.796875 -18.296875 C 12.796875 -14.691406 13.191406 -11.519531 13.984375 -8.78125 C 14.785156 -6.050781 15.859375 -3.9375 17.203125 -2.4375 C 18.554688 -0.945312 20.050781 -0.203125 21.6875 -0.203125 C 23.382812 -0.203125 24.878906 -0.972656 26.171875 -2.515625 C 27.472656 -4.066406 28.472656 -6.226562 29.171875 -9 C 29.867188 -11.769531 30.21875 -14.941406 30.21875 -18.515625 C 30.21875 -22.117188 29.816406 -25.289062 29.015625 -28.03125 C 28.210938 -30.769531 27.132812 -32.882812 25.78125 -34.375 C 24.4375 -35.863281 22.945312 -36.609375 21.3125 -36.609375 Z M 21.3125 -36.609375" transform="translate(180.535 208.875)"/></g></g></g><g fill="#13293D"><g><g><path d="M 18.765625 -36.8125 C 25.941406 -36.8125 31.316406 -35.273438 34.890625 -32.203125 C 38.460938 -29.140625 40.25 -24.679688 40.25 -18.828125 C 40.25 -15.046875 39.375 -11.742188 37.625 -8.921875 C 35.875 -6.097656 33.347656 -3.90625 30.046875 -2.34375 C 26.753906 -0.78125 22.835938 0 18.296875 0 L 15.078125 -0.046875 C 12.992188 -0.117188 11.46875 -0.15625 10.5 -0.15625 C 6.445312 -0.15625 3.429688 -0.101562 1.453125 0 L 1.453125 -1.046875 C 2.566406 -1.109375 3.375 -1.242188 3.875 -1.453125 C 4.375 -1.660156 4.707031 -2.054688 4.875 -2.640625 C 5.050781 -3.234375 5.140625 -4.191406 5.140625 -5.515625 L 5.140625 -31.296875 C 5.140625 -32.617188 5.046875 -33.570312 4.859375 -34.15625 C 4.671875 -34.75 4.332031 -35.148438 3.84375 -35.359375 C 3.363281 -35.566406 2.566406 -35.707031 1.453125 -35.78125 L 1.453125 -36.8125 C 3.046875 -36.707031 5.40625 -36.65625 8.53125 -36.65625 L 10.40625 -36.65625 L 12.6875 -36.71875 C 15.601562 -36.78125 17.628906 -36.8125 18.765625 -36.8125 Z M 19.546875 -35.875 C 18.472656 -35.875 17.664062 -35.753906 17.125 -35.515625 C 16.59375 -35.273438 16.222656 -34.84375 16.015625 -34.21875 C 15.804688 -33.59375 15.703125 -32.65625 15.703125 -31.40625 L 15.703125 -5.40625 C 15.703125 -4.15625 15.804688 -3.21875 16.015625 -2.59375 C 16.222656 -1.96875 16.59375 -1.535156 17.125 -1.296875 C 17.664062 -1.054688 18.492188 -0.9375 19.609375 -0.9375 C 23.035156 -0.9375 25.507812 -2.414062 27.03125 -5.375 C 28.5625 -8.34375 29.328125 -12.753906 29.328125 -18.609375 C 29.328125 -24.472656 28.535156 -28.816406 26.953125 -31.640625 C 25.378906 -34.460938 22.910156 -35.875 19.546875 -35.875 Z M 19.546875 -35.875" transform="translate(223.536 208.875)"/></g></g></g><path fill="#011936" d="M 229.933594 103.011719 L 229.464844 108.367188 L 234.664062 109.6875 L 229.4375 110.898438 L 229.792969 116.261719 L 227.035156 111.652344 L 222.054688 113.652344 L 225.574219 109.59375 L 222.140625 105.460938 L 227.074219 107.5625 L 229.933594 103.011719"/><path fill="#011936" d="M 250.0625 118.191406 L 248.453125 122.058594 L 252 124.273438 L 247.835938 123.929688 L 246.832031 128 L 245.871094 123.921875 L 241.703125 124.222656 L 245.273438 122.042969 L 243.699219 118.160156 L 246.867188 120.890625 L 250.0625 118.191406"/><path fill="#011936" d="M 196.699219 107.222656 L 198.472656 109.074219 L 200.578125 107.613281 L 199.371094 109.878906 L 201.40625 111.4375 L 198.882812 110.984375 L 198.035156 113.40625 L 197.6875 110.863281 L 195.125 110.800781 L 197.429688 109.683594 L 196.699219 107.222656"/><path fill="#011936" d="M 165.316406 115.90625 L 164.777344 117.070312 L 165.835938 117.792969 L 164.566406 117.636719 L 164.207031 118.867188 L 163.964844 117.609375 L 162.683594 117.648438 L 163.804688 117.023438 L 163.371094 115.816406 L 164.304688 116.691406 L 165.316406 115.90625"/><path fill="#011936" d="M 177.71875 146.789062 L 177.90625 147.554688 L 178.695312 147.492188 L 178.023438 147.910156 L 178.324219 148.640625 L 177.722656 148.132812 L 177.121094 148.644531 L 177.421875 147.914062 L 176.746094 147.5 L 177.535156 147.558594 L 177.71875 146.789062"/><path fill="#011936" d="M 180.582031 125.292969 L 180.695312 126.402344 L 181.808594 126.46875 L 180.789062 126.917969 L 181.070312 128 L 180.328125 127.167969 L 179.390625 127.769531 L 179.949219 126.804688 L 179.089844 126.097656 L 180.175781 126.332031 L 180.582031 125.292969"/><path fill="#011936" d="M 222.085938 122.472656 L 222.960938 123.699219 L 224.3125 123.027344 L 223.417969 124.242188 L 224.472656 125.320312 L 223.042969 124.847656 L 222.347656 126.1875 L 222.355469 124.675781 L 220.871094 124.425781 L 222.304688 123.964844 L 222.085938 122.472656"/><g clip-path="url(#a)"><path fill="#011936" d="M 253.800781 140.929688 L 253.914062 142.039062 L 255.023438 142.105469 L 254.003906 142.554688 L 254.285156 143.632812 L 253.542969 142.804688 L 252.605469 143.40625 L 253.167969 142.441406 L 252.304688 141.730469 L 253.394531 141.96875 L 253.800781 140.929688"/></g><g clip-path="url(#b)"><path fill="#011936" d="M 179.015625 159.980469 L 179.304688 161.058594 L 180.410156 160.945312 L 179.476562 161.554688 L 179.925781 162.574219 L 179.0625 161.871094 L 178.230469 162.617188 L 178.628906 161.574219 L 177.667969 161.011719 L 178.78125 161.070312 L 179.015625 159.980469"/></g><path fill="#011936" d="M 215.710938 137.585938 L 216.933594 139.085938 L 218.609375 138.117188 L 217.5625 139.746094 L 219 141.046875 L 217.128906 140.550781 L 216.34375 142.324219 L 216.230469 140.386719 L 214.308594 140.183594 L 216.113281 139.484375 L 215.710938 137.585938"/><path fill="#011936" d="M 149.484375 151.695312 L 150.09375 153.535156 L 152.003906 153.226562 L 150.449219 154.375 L 151.332031 156.101562 L 149.757812 154.972656 L 148.394531 156.351562 L 148.980469 154.5 L 147.253906 153.625 L 149.1875 153.613281 L 149.484375 151.695312"/><g clip-path="url(#c)"><path fill="#011936" d="M 246.808594 98.109375 L 246.609375 100.039062 L 248.480469 100.546875 L 246.589844 100.953125 L 246.683594 102.890625 L 245.714844 101.214844 L 243.90625 101.90625 L 245.199219 100.460938 L 243.984375 98.949219 L 245.753906 99.738281 L 246.808594 98.109375"/></g><g clip-path="url(#d)"><path fill="#011936" d="M 123.523438 137.445312 L 123.324219 139.375 L 125.195312 139.882812 L 123.300781 140.289062 L 123.398438 142.226562 L 122.429688 140.550781 L 120.621094 141.242188 L 121.914062 139.796875 L 120.699219 138.285156 L 122.46875 139.074219 L 123.523438 137.445312"/></g><path fill="#011936" d="M 144.71875 107.921875 L 145.613281 109.644531 L 147.449219 109.035156 L 146.09375 110.417969 L 147.238281 111.984375 L 145.507812 111.117188 L 144.378906 112.695312 L 144.664062 110.773438 L 142.820312 110.183594 L 144.730469 109.863281 L 144.71875 107.921875"/><path fill="#011936" d="M 148.660156 127.613281 L 148.851562 128.382812 L 149.636719 128.320312 L 148.964844 128.738281 L 149.269531 129.46875 L 148.667969 128.957031 L 148.066406 129.472656 L 148.367188 128.738281 L 147.691406 128.328125 L 148.480469 128.382812 L 148.660156 127.613281"/><path fill="#011936" d="M 235.398438 137.84375 L 237.328125 140.554688 L 240.308594 139.078125 L 238.332031 141.757812 L 240.65625 144.140625 L 237.503906 143.085938 L 235.960938 146.039062 L 235.988281 142.707031 L 232.710938 142.148438 L 235.878906 141.140625 L 235.398438 137.84375"/><g clip-path="url(#e)"><g clip-path="url(#f)"><g clip-path="url(#g)"><path fill="url(#h)" d="M 136.863281 109.328125 L 136.863281 137.890625 L 227.394531 137.890625 L 227.394531 109.328125 Z M 136.863281 109.328125"/></g></g></g><g clip-path="url(#i)"><g clip-path="url(#j)"><g clip-path="url(#k)"><path fill="url(#l)" d="M 130.035156 121.769531 L 130.035156 143.3125 L 246.925781 143.3125 L 246.925781 121.769531 Z M 130.035156 121.769531"/></g></g></g><g clip-path="url(#m)"><g clip-path="url(#n)"><g clip-path="url(#o)"><path fill="url(#p)" d="M 137.566406 128 L 137.566406 152.367188 L 236.390625 152.367188 L 236.390625 128 Z M 137.566406 128"/></g></g></g><g fill="#011936"><g><g><path d="M 9.078125 -1.34375 C 9.328125 -0.6875 9.691406 -0.34375 10.171875 -0.3125 L 10.171875 0 C 9.742188 -0.03125 9.175781 -0.046875 8.46875 -0.046875 C 7.550781 -0.046875 6.867188 -0.03125 6.421875 0 L 6.421875 -0.3125 C 6.828125 -0.34375 7.113281 -0.394531 7.28125 -0.46875 C 7.457031 -0.550781 7.546875 -0.695312 7.546875 -0.90625 C 7.546875 -1.09375 7.484375 -1.34375 7.359375 -1.65625 L 6.390625 -4.28125 L 2.515625 -4.28125 L 1.859375 -2.59375 C 1.640625 -2.019531 1.53125 -1.582031 1.53125 -1.28125 C 1.53125 -0.945312 1.644531 -0.707031 1.875 -0.5625 C 2.101562 -0.414062 2.453125 -0.332031 2.921875 -0.3125 L 2.921875 0 C 2.316406 -0.03125 1.707031 -0.046875 1.09375 -0.046875 C 0.613281 -0.046875 0.210938 -0.03125 -0.109375 0 L -0.109375 -0.3125 C 0.421875 -0.445312 0.84375 -0.914062 1.15625 -1.71875 L 4.90625 -11.40625 L 5.171875 -11.40625 Z M 6.25 -4.609375 L 4.46875 -9.390625 L 2.640625 -4.609375 Z M 6.25 -4.609375" transform="translate(81.445 234.115)"/></g></g></g><g fill="#011936"><g><g><path d="M 3.328125 -8.46875 C 3.710938 -8.46875 4.050781 -8.40625 4.34375 -8.28125 C 4.644531 -8.164062 4.890625 -8.03125 5.078125 -7.875 C 5.191406 -7.789062 5.285156 -7.75 5.359375 -7.75 C 5.546875 -7.75 5.664062 -7.984375 5.71875 -8.453125 L 6.078125 -8.453125 C 6.035156 -7.921875 6.015625 -7.015625 6.015625 -5.734375 L 5.640625 -5.734375 C 5.523438 -6.429688 5.300781 -7.007812 4.96875 -7.46875 C 4.632812 -7.925781 4.132812 -8.15625 3.46875 -8.15625 C 3.082031 -8.15625 2.765625 -8.046875 2.515625 -7.828125 C 2.273438 -7.609375 2.15625 -7.304688 2.15625 -6.921875 C 2.15625 -6.554688 2.28125 -6.242188 2.53125 -5.984375 C 2.789062 -5.734375 3.207031 -5.4375 3.78125 -5.09375 C 3.875 -5.039062 4.015625 -4.945312 4.203125 -4.8125 C 4.691406 -4.5 5.085938 -4.21875 5.390625 -3.96875 C 5.691406 -3.71875 5.9375 -3.429688 6.125 -3.109375 C 6.3125 -2.796875 6.40625 -2.429688 6.40625 -2.015625 C 6.40625 -1.304688 6.140625 -0.753906 5.609375 -0.359375 C 5.078125 0.0234375 4.425781 0.21875 3.65625 0.21875 C 3.175781 0.21875 2.757812 0.144531 2.40625 0 C 2.164062 -0.113281 1.945312 -0.257812 1.75 -0.4375 C 1.707031 -0.476562 1.65625 -0.5 1.59375 -0.5 C 1.519531 -0.5 1.453125 -0.441406 1.390625 -0.328125 C 1.335938 -0.222656 1.296875 -0.078125 1.265625 0.109375 L 0.890625 0.109375 C 0.929688 -0.492188 0.953125 -1.5625 0.953125 -3.09375 L 1.328125 -3.09375 C 1.441406 -2.082031 1.65625 -1.328125 1.96875 -0.828125 C 2.28125 -0.335938 2.804688 -0.09375 3.546875 -0.09375 C 3.921875 -0.09375 4.25 -0.210938 4.53125 -0.453125 C 4.820312 -0.703125 4.96875 -1.085938 4.96875 -1.609375 C 4.96875 -2.023438 4.828125 -2.378906 4.546875 -2.671875 C 4.265625 -2.960938 3.804688 -3.3125 3.171875 -3.71875 C 2.648438 -4.039062 2.242188 -4.304688 1.953125 -4.515625 C 1.671875 -4.734375 1.429688 -5 1.234375 -5.3125 C 1.046875 -5.625 0.953125 -5.988281 0.953125 -6.40625 C 0.953125 -7.070312 1.175781 -7.582031 1.625 -7.9375 C 2.070312 -8.289062 2.640625 -8.46875 3.328125 -8.46875 Z M 3.328125 -8.46875" transform="translate(91.523 234.115)"/></g></g></g><g fill="#011936"><g><g><path d="M 3.046875 -8.21875 L 5.40625 -8.21875 L 5.40625 -7.90625 L 3.046875 -7.90625 L 3.046875 -1.71875 C 3.046875 -1.226562 3.128906 -0.878906 3.296875 -0.671875 C 3.472656 -0.460938 3.726562 -0.359375 4.0625 -0.359375 C 4.394531 -0.359375 4.675781 -0.488281 4.90625 -0.75 C 5.144531 -1.019531 5.34375 -1.457031 5.5 -2.0625 L 5.828125 -1.984375 C 5.554688 -0.515625 4.863281 0.21875 3.75 0.21875 C 3.382812 0.21875 3.082031 0.175781 2.84375 0.09375 C 2.613281 0.0078125 2.40625 -0.117188 2.21875 -0.296875 C 1.988281 -0.535156 1.828125 -0.828125 1.734375 -1.171875 C 1.640625 -1.515625 1.59375 -1.972656 1.59375 -2.546875 L 1.59375 -7.90625 L 0.0625 -7.90625 L 0.0625 -8.21875 L 1.59375 -8.21875 L 1.59375 -10.671875 C 2.195312 -10.691406 2.679688 -10.765625 3.046875 -10.890625 Z M 3.046875 -8.21875" transform="translate(98.673 234.115)"/></g></g></g><g fill="#011936"><g><g><path d="M 5.4375 -8.46875 C 5.863281 -8.46875 6.210938 -8.34375 6.484375 -8.09375 C 6.753906 -7.851562 6.890625 -7.554688 6.890625 -7.203125 C 6.890625 -6.921875 6.804688 -6.679688 6.640625 -6.484375 C 6.484375 -6.285156 6.265625 -6.1875 5.984375 -6.1875 C 5.742188 -6.1875 5.539062 -6.257812 5.375 -6.40625 C 5.21875 -6.5625 5.140625 -6.769531 5.140625 -7.03125 C 5.140625 -7.375 5.320312 -7.660156 5.6875 -7.890625 C 5.601562 -7.992188 5.488281 -8.046875 5.34375 -8.046875 C 4.925781 -8.046875 4.546875 -7.882812 4.203125 -7.5625 C 3.867188 -7.238281 3.601562 -6.835938 3.40625 -6.359375 C 3.21875 -5.890625 3.125 -5.453125 3.125 -5.046875 L 3.125 -1.640625 C 3.125 -1.148438 3.265625 -0.8125 3.546875 -0.625 C 3.828125 -0.4375 4.25 -0.34375 4.8125 -0.34375 L 4.8125 0 L 4.4375 -0.015625 C 3.34375 -0.046875 2.648438 -0.0625 2.359375 -0.0625 C 2.078125 -0.0625 1.445312 -0.0390625 0.46875 0 L 0.46875 -0.34375 C 0.914062 -0.34375 1.226562 -0.421875 1.40625 -0.578125 C 1.59375 -0.742188 1.6875 -1.046875 1.6875 -1.484375 L 1.6875 -6.5 C 1.6875 -6.988281 1.59375 -7.34375 1.40625 -7.5625 C 1.226562 -7.789062 0.914062 -7.90625 0.46875 -7.90625 L 0.46875 -8.234375 C 0.800781 -8.203125 1.128906 -8.1875 1.453125 -8.1875 C 2.128906 -8.1875 2.6875 -8.265625 3.125 -8.421875 L 3.125 -6.421875 C 3.3125 -6.953125 3.613281 -7.425781 4.03125 -7.84375 C 4.457031 -8.257812 4.925781 -8.46875 5.4375 -8.46875 Z M 5.4375 -8.46875" transform="translate(104.336 234.115)"/></g></g></g><g fill="#011936"><g><g><path d="M 4.390625 -8.46875 C 5.472656 -8.46875 6.347656 -8.101562 7.015625 -7.375 C 7.679688 -6.65625 8.015625 -5.566406 8.015625 -4.109375 C 8.015625 -2.648438 7.679688 -1.5625 7.015625 -0.84375 C 6.347656 -0.132812 5.472656 0.21875 4.390625 0.21875 C 3.296875 0.21875 2.414062 -0.132812 1.75 -0.84375 C 1.082031 -1.5625 0.75 -2.648438 0.75 -4.109375 C 0.75 -5.566406 1.082031 -6.65625 1.75 -7.375 C 2.414062 -8.101562 3.296875 -8.46875 4.390625 -8.46875 Z M 4.390625 -8.140625 C 3.742188 -8.140625 3.234375 -7.8125 2.859375 -7.15625 C 2.484375 -6.5 2.296875 -5.484375 2.296875 -4.109375 C 2.296875 -2.734375 2.484375 -1.71875 2.859375 -1.0625 C 3.234375 -0.414062 3.742188 -0.09375 4.390625 -0.09375 C 5.023438 -0.09375 5.53125 -0.414062 5.90625 -1.0625 C 6.28125 -1.71875 6.46875 -2.734375 6.46875 -4.109375 C 6.46875 -5.484375 6.28125 -6.5 5.90625 -7.15625 C 5.53125 -7.8125 5.023438 -8.140625 4.390625 -8.140625 Z M 4.390625 -8.140625" transform="translate(111.454 234.115)"/></g></g></g><g fill="#011936"><g><g><path d="M 5.84375 -8.46875 C 6.582031 -8.46875 7.144531 -8.265625 7.53125 -7.859375 C 7.738281 -7.640625 7.882812 -7.367188 7.96875 -7.046875 C 8.050781 -6.734375 8.09375 -6.304688 8.09375 -5.765625 L 8.09375 -1.484375 C 8.09375 -1.046875 8.179688 -0.742188 8.359375 -0.578125 C 8.546875 -0.421875 8.863281 -0.34375 9.3125 -0.34375 L 9.3125 0 C 8.332031 -0.0390625 7.691406 -0.0625 7.390625 -0.0625 C 7.085938 -0.0625 6.488281 -0.0390625 5.59375 0 L 5.59375 -0.34375 C 5.988281 -0.34375 6.265625 -0.421875 6.421875 -0.578125 C 6.578125 -0.742188 6.65625 -1.046875 6.65625 -1.484375 L 6.65625 -6.109375 C 6.65625 -6.710938 6.566406 -7.171875 6.390625 -7.484375 C 6.222656 -7.796875 5.878906 -7.953125 5.359375 -7.953125 C 4.921875 -7.953125 4.53125 -7.820312 4.1875 -7.5625 C 3.851562 -7.3125 3.59375 -6.960938 3.40625 -6.515625 C 3.21875 -6.078125 3.125 -5.585938 3.125 -5.046875 L 3.125 -1.484375 C 3.125 -1.046875 3.195312 -0.742188 3.34375 -0.578125 C 3.5 -0.421875 3.773438 -0.34375 4.171875 -0.34375 L 4.171875 0 C 3.273438 -0.0390625 2.679688 -0.0625 2.390625 -0.0625 C 2.085938 -0.0625 1.445312 -0.0390625 0.46875 0 L 0.46875 -0.34375 C 0.914062 -0.34375 1.226562 -0.421875 1.40625 -0.578125 C 1.59375 -0.742188 1.6875 -1.046875 1.6875 -1.484375 L 1.6875 -6.5 C 1.6875 -6.988281 1.59375 -7.34375 1.40625 -7.5625 C 1.226562 -7.789062 0.914062 -7.90625 0.46875 -7.90625 L 0.46875 -8.234375 C 0.800781 -8.203125 1.128906 -8.1875 1.453125 -8.1875 C 2.128906 -8.1875 2.6875 -8.265625 3.125 -8.421875 L 3.125 -6.53125 C 3.382812 -7.207031 3.75 -7.695312 4.21875 -8 C 4.695312 -8.3125 5.238281 -8.46875 5.84375 -8.46875 Z M 5.84375 -8.46875" transform="translate(120.22 234.115)"/></g></g></g><g fill="#011936"><g><g><path d="M 4.390625 -8.46875 C 5.472656 -8.46875 6.347656 -8.101562 7.015625 -7.375 C 7.679688 -6.65625 8.015625 -5.566406 8.015625 -4.109375 C 8.015625 -2.648438 7.679688 -1.5625 7.015625 -0.84375 C 6.347656 -0.132812 5.472656 0.21875 4.390625 0.21875 C 3.296875 0.21875 2.414062 -0.132812 1.75 -0.84375 C 1.082031 -1.5625 0.75 -2.648438 0.75 -4.109375 C 0.75 -5.566406 1.082031 -6.65625 1.75 -7.375 C 2.414062 -8.101562 3.296875 -8.46875 4.390625 -8.46875 Z M 4.390625 -8.140625 C 3.742188 -8.140625 3.234375 -7.8125 2.859375 -7.15625 C 2.484375 -6.5 2.296875 -5.484375 2.296875 -4.109375 C 2.296875 -2.734375 2.484375 -1.71875 2.859375 -1.0625 C 3.234375 -0.414062 3.742188 -0.09375 4.390625 -0.09375 C 5.023438 -0.09375 5.53125 -0.414062 5.90625 -1.0625 C 6.28125 -1.71875 6.46875 -2.734375 6.46875 -4.109375 C 6.46875 -5.484375 6.28125 -6.5 5.90625 -7.15625 C 5.53125 -7.8125 5.023438 -8.140625 4.390625 -8.140625 Z M 4.390625 -8.140625" transform="translate(129.77 234.115)"/></g></g></g><g fill="#011936"><g><g><path d="M 12.75 -1.484375 C 12.75 -1.046875 12.835938 -0.742188 13.015625 -0.578125 C 13.203125 -0.421875 13.519531 -0.34375 13.96875 -0.34375 L 13.96875 0 C 12.988281 -0.0390625 12.347656 -0.0625 12.046875 -0.0625 C 11.742188 -0.0625 11.144531 -0.0390625 10.25 0 L 10.25 -0.34375 C 10.644531 -0.34375 10.921875 -0.421875 11.078125 -0.578125 C 11.234375 -0.742188 11.3125 -1.046875 11.3125 -1.484375 L 11.3125 -6.109375 C 11.3125 -6.515625 11.285156 -6.84375 11.234375 -7.09375 C 11.191406 -7.34375 11.082031 -7.546875 10.90625 -7.703125 C 10.726562 -7.867188 10.457031 -7.953125 10.09375 -7.953125 C 9.6875 -7.953125 9.316406 -7.820312 8.984375 -7.5625 C 8.660156 -7.3125 8.40625 -6.960938 8.21875 -6.515625 C 8.03125 -6.078125 7.9375 -5.59375 7.9375 -5.0625 L 7.9375 -1.484375 C 7.9375 -1.046875 8.023438 -0.742188 8.203125 -0.578125 C 8.390625 -0.421875 8.707031 -0.34375 9.15625 -0.34375 L 9.15625 0 C 8.175781 -0.0390625 7.535156 -0.0625 7.234375 -0.0625 C 6.929688 -0.0625 6.332031 -0.0390625 5.4375 0 L 5.4375 -0.34375 C 5.832031 -0.34375 6.109375 -0.421875 6.265625 -0.578125 C 6.421875 -0.742188 6.5 -1.046875 6.5 -1.484375 L 6.5 -6.109375 C 6.5 -6.515625 6.472656 -6.84375 6.421875 -7.09375 C 6.378906 -7.34375 6.269531 -7.546875 6.09375 -7.703125 C 5.914062 -7.867188 5.644531 -7.953125 5.28125 -7.953125 C 4.875 -7.953125 4.503906 -7.820312 4.171875 -7.5625 C 3.847656 -7.3125 3.59375 -6.960938 3.40625 -6.515625 C 3.21875 -6.066406 3.125 -5.578125 3.125 -5.046875 L 3.125 -1.484375 C 3.125 -1.046875 3.195312 -0.742188 3.34375 -0.578125 C 3.5 -0.421875 3.773438 -0.34375 4.171875 -0.34375 L 4.171875 0 C 3.273438 -0.0390625 2.679688 -0.0625 2.390625 -0.0625 C 2.085938 -0.0625 1.445312 -0.0390625 0.46875 0 L 0.46875 -0.34375 C 0.914062 -0.34375 1.226562 -0.421875 1.40625 -0.578125 C 1.59375 -0.742188 1.6875 -1.046875 1.6875 -1.484375 L 1.6875 -6.5 C 1.6875 -6.988281 1.59375 -7.34375 1.40625 -7.5625 C 1.226562 -7.789062 0.914062 -7.90625 0.46875 -7.90625 L 0.46875 -8.234375 C 0.800781 -8.203125 1.128906 -8.1875 1.453125 -8.1875 C 2.128906 -8.1875 2.6875 -8.265625 3.125 -8.421875 L 3.125 -6.53125 C 3.375 -7.1875 3.734375 -7.671875 4.203125 -7.984375 C 4.671875 -8.304688 5.1875 -8.46875 5.75 -8.46875 C 6.46875 -8.46875 7.019531 -8.265625 7.40625 -7.859375 C 7.675781 -7.578125 7.84375 -7.148438 7.90625 -6.578125 C 8.164062 -7.242188 8.53125 -7.722656 9 -8.015625 C 9.476562 -8.316406 10 -8.46875 10.5625 -8.46875 C 11.28125 -8.46875 11.832031 -8.265625 12.21875 -7.859375 C 12.414062 -7.640625 12.550781 -7.363281 12.625 -7.03125 C 12.707031 -6.707031 12.75 -6.285156 12.75 -5.765625 Z M 12.75 -1.484375" transform="translate(138.536 234.115)"/></g></g></g><g fill="#011936"><g><g><path d="M 6.6875 -8.1875 C 7.15625 -8.1875 7.5625 -8.203125 7.90625 -8.234375 L 7.90625 -7.921875 C 7.6875 -7.898438 7.492188 -7.800781 7.328125 -7.625 C 7.171875 -7.457031 7.015625 -7.179688 6.859375 -6.796875 L 4.234375 0.078125 L 3.703125 1.46875 C 3.492188 1.988281 3.265625 2.363281 3.015625 2.59375 C 2.847656 2.738281 2.648438 2.84375 2.421875 2.90625 C 2.203125 2.976562 1.984375 3.015625 1.765625 3.015625 C 1.441406 3.015625 1.175781 2.925781 0.96875 2.75 C 0.769531 2.582031 0.671875 2.347656 0.671875 2.046875 C 0.671875 1.785156 0.742188 1.578125 0.890625 1.421875 C 1.046875 1.273438 1.253906 1.203125 1.515625 1.203125 C 1.753906 1.203125 1.953125 1.265625 2.109375 1.390625 C 2.265625 1.523438 2.34375 1.710938 2.34375 1.953125 C 2.34375 2.273438 2.195312 2.515625 1.90625 2.671875 C 1.925781 2.679688 1.957031 2.6875 2 2.6875 C 2.582031 2.6875 3.035156 2.269531 3.359375 1.4375 L 3.921875 -0.015625 L 1.03125 -7.015625 C 0.84375 -7.367188 0.65625 -7.601562 0.46875 -7.71875 C 0.289062 -7.84375 0.113281 -7.90625 -0.0625 -7.90625 L -0.0625 -8.234375 C 0.394531 -8.171875 0.914062 -8.140625 1.5 -8.140625 C 2.03125 -8.140625 2.722656 -8.171875 3.578125 -8.234375 L 3.578125 -7.90625 C 3.203125 -7.90625 2.925781 -7.875 2.75 -7.8125 C 2.570312 -7.75 2.484375 -7.59375 2.484375 -7.34375 C 2.484375 -7.125 2.546875 -6.863281 2.671875 -6.5625 L 4.59375 -1.796875 L 6.375 -6.421875 C 6.488281 -6.734375 6.546875 -6.976562 6.546875 -7.15625 C 6.546875 -7.394531 6.445312 -7.570312 6.25 -7.6875 C 6.0625 -7.8125 5.757812 -7.890625 5.34375 -7.921875 L 5.34375 -8.234375 C 5.90625 -8.203125 6.351562 -8.1875 6.6875 -8.1875 Z M 6.6875 -8.1875" transform="translate(152.74 234.115)"/></g></g></g><g fill="#011936"><g><g><path d="M 3.453125 -4.578125 L 3.453125 -1.703125 C 3.453125 -1.296875 3.492188 -1 3.578125 -0.8125 C 3.671875 -0.632812 3.820312 -0.515625 4.03125 -0.453125 C 4.25 -0.390625 4.597656 -0.34375 5.078125 -0.3125 L 5.078125 0 C 4.515625 -0.03125 3.726562 -0.046875 2.71875 -0.046875 C 1.800781 -0.046875 1.117188 -0.03125 0.671875 0 L 0.671875 -0.3125 C 1.054688 -0.34375 1.335938 -0.390625 1.515625 -0.453125 C 1.691406 -0.515625 1.8125 -0.632812 1.875 -0.8125 C 1.9375 -1 1.96875 -1.296875 1.96875 -1.703125 L 1.96875 -9.625 C 1.96875 -10.03125 1.9375 -10.320312 1.875 -10.5 C 1.8125 -10.6875 1.691406 -10.8125 1.515625 -10.875 C 1.335938 -10.9375 1.054688 -10.984375 0.671875 -11.015625 L 0.671875 -11.328125 C 1.117188 -11.296875 1.769531 -11.28125 2.625 -11.28125 L 4.359375 -11.296875 C 4.554688 -11.304688 4.785156 -11.3125 5.046875 -11.3125 C 6.285156 -11.3125 7.234375 -11.023438 7.890625 -10.453125 C 8.554688 -9.878906 8.890625 -9.113281 8.890625 -8.15625 C 8.890625 -7.570312 8.757812 -7.007812 8.5 -6.46875 C 8.238281 -5.925781 7.796875 -5.472656 7.171875 -5.109375 C 6.546875 -4.753906 5.71875 -4.578125 4.6875 -4.578125 Z M 4.640625 -11.015625 C 4.304688 -11.015625 4.054688 -10.972656 3.890625 -10.890625 C 3.722656 -10.816406 3.609375 -10.679688 3.546875 -10.484375 C 3.484375 -10.296875 3.453125 -10.007812 3.453125 -9.625 L 3.453125 -4.890625 L 4.53125 -4.890625 C 5.570312 -4.890625 6.289062 -5.171875 6.6875 -5.734375 C 7.09375 -6.296875 7.296875 -7.046875 7.296875 -7.984375 C 7.296875 -9.015625 7.085938 -9.773438 6.671875 -10.265625 C 6.265625 -10.765625 5.585938 -11.015625 4.640625 -11.015625 Z M 4.640625 -11.015625" transform="translate(164.785 234.115)"/></g></g></g><g fill="#011936"><g><g><path d="M 2.296875 -12.234375 C 2.566406 -12.234375 2.800781 -12.128906 3 -11.921875 C 3.207031 -11.722656 3.3125 -11.488281 3.3125 -11.21875 C 3.3125 -10.9375 3.207031 -10.691406 3 -10.484375 C 2.800781 -10.285156 2.566406 -10.1875 2.296875 -10.1875 C 2.015625 -10.1875 1.769531 -10.285156 1.5625 -10.484375 C 1.363281 -10.691406 1.265625 -10.9375 1.265625 -11.21875 C 1.265625 -11.488281 1.363281 -11.722656 1.5625 -11.921875 C 1.769531 -12.128906 2.015625 -12.234375 2.296875 -12.234375 Z M 3.125 -1.484375 C 3.125 -1.046875 3.210938 -0.742188 3.390625 -0.578125 C 3.566406 -0.421875 3.882812 -0.34375 4.34375 -0.34375 L 4.34375 0 C 3.351562 -0.0390625 2.707031 -0.0625 2.40625 -0.0625 C 2.09375 -0.0625 1.445312 -0.0390625 0.46875 0 L 0.46875 -0.34375 C 0.914062 -0.34375 1.226562 -0.421875 1.40625 -0.578125 C 1.59375 -0.742188 1.6875 -1.046875 1.6875 -1.484375 L 1.6875 -6.5 C 1.6875 -6.988281 1.59375 -7.34375 1.40625 -7.5625 C 1.226562 -7.789062 0.914062 -7.90625 0.46875 -7.90625 L 0.46875 -8.234375 C 0.800781 -8.203125 1.128906 -8.1875 1.453125 -8.1875 C 2.128906 -8.1875 2.6875 -8.265625 3.125 -8.421875 Z M 3.125 -1.484375" transform="translate(174.143 234.115)"/></g></g></g><g fill="#011936"><g><g><path d="M 4.46875 -8.46875 C 5.175781 -8.46875 5.789062 -8.296875 6.3125 -7.953125 C 6.820312 -7.617188 7.078125 -7.207031 7.078125 -6.71875 C 7.078125 -6.4375 6.992188 -6.21875 6.828125 -6.0625 C 6.671875 -5.90625 6.46875 -5.828125 6.21875 -5.828125 C 5.976562 -5.828125 5.769531 -5.894531 5.59375 -6.03125 C 5.425781 -6.175781 5.34375 -6.375 5.34375 -6.625 C 5.34375 -6.84375 5.40625 -7.03125 5.53125 -7.1875 C 5.664062 -7.34375 5.828125 -7.445312 6.015625 -7.5 C 5.910156 -7.695312 5.722656 -7.859375 5.453125 -7.984375 C 5.179688 -8.109375 4.890625 -8.171875 4.578125 -8.171875 C 4.179688 -8.171875 3.8125 -8.046875 3.46875 -7.796875 C 3.125 -7.546875 2.835938 -7.128906 2.609375 -6.546875 C 2.390625 -5.972656 2.28125 -5.207031 2.28125 -4.25 C 2.28125 -2.925781 2.492188 -1.960938 2.921875 -1.359375 C 3.347656 -0.765625 3.90625 -0.46875 4.59375 -0.46875 C 5.050781 -0.46875 5.484375 -0.597656 5.890625 -0.859375 C 6.304688 -1.128906 6.644531 -1.546875 6.90625 -2.109375 L 7.21875 -2 C 7.03125 -1.394531 6.6875 -0.875 6.1875 -0.4375 C 5.695312 0 5.054688 0.21875 4.265625 0.21875 C 3.609375 0.21875 3.007812 0.0507812 2.46875 -0.28125 C 1.925781 -0.625 1.5 -1.117188 1.1875 -1.765625 C 0.882812 -2.410156 0.734375 -3.160156 0.734375 -4.015625 C 0.734375 -4.878906 0.890625 -5.644531 1.203125 -6.3125 C 1.523438 -6.988281 1.96875 -7.515625 2.53125 -7.890625 C 3.09375 -8.273438 3.738281 -8.46875 4.46875 -8.46875 Z M 4.46875 -8.46875" transform="translate(178.83 234.115)"/></g></g></g><g fill="#011936"><g><g><path d="M 3.046875 -8.21875 L 5.40625 -8.21875 L 5.40625 -7.90625 L 3.046875 -7.90625 L 3.046875 -1.71875 C 3.046875 -1.226562 3.128906 -0.878906 3.296875 -0.671875 C 3.472656 -0.460938 3.726562 -0.359375 4.0625 -0.359375 C 4.394531 -0.359375 4.675781 -0.488281 4.90625 -0.75 C 5.144531 -1.019531 5.34375 -1.457031 5.5 -2.0625 L 5.828125 -1.984375 C 5.554688 -0.515625 4.863281 0.21875 3.75 0.21875 C 3.382812 0.21875 3.082031 0.175781 2.84375 0.09375 C 2.613281 0.0078125 2.40625 -0.117188 2.21875 -0.296875 C 1.988281 -0.535156 1.828125 -0.828125 1.734375 -1.171875 C 1.640625 -1.515625 1.59375 -1.972656 1.59375 -2.546875 L 1.59375 -7.90625 L 0.0625 -7.90625 L 0.0625 -8.21875 L 1.59375 -8.21875 L 1.59375 -10.671875 C 2.195312 -10.691406 2.679688 -10.765625 3.046875 -10.890625 Z M 3.046875 -8.21875" transform="translate(186.604 234.115)"/></g></g></g><g fill="#011936"><g><g><path d="M 7.734375 -1.734375 C 7.734375 -1.234375 7.820312 -0.867188 8 -0.640625 C 8.175781 -0.421875 8.488281 -0.3125 8.9375 -0.3125 L 8.9375 0.015625 C 8.613281 -0.015625 8.285156 -0.03125 7.953125 -0.03125 C 7.273438 -0.03125 6.71875 0.0390625 6.28125 0.1875 L 6.28125 -1.703125 C 6.03125 -1.035156 5.671875 -0.546875 5.203125 -0.234375 C 4.734375 0.0664062 4.21875 0.21875 3.65625 0.21875 C 2.9375 0.21875 2.382812 0.015625 2 -0.390625 C 1.8125 -0.597656 1.675781 -0.867188 1.59375 -1.203125 C 1.507812 -1.535156 1.46875 -1.960938 1.46875 -2.484375 L 1.46875 -6.5 C 1.46875 -6.988281 1.375 -7.34375 1.1875 -7.5625 C 1.007812 -7.789062 0.695312 -7.90625 0.25 -7.90625 L 0.25 -8.234375 C 0.582031 -8.203125 0.914062 -8.1875 1.25 -8.1875 C 1.914062 -8.1875 2.46875 -8.265625 2.90625 -8.421875 L 2.90625 -2.125 C 2.90625 -1.71875 2.929688 -1.390625 2.984375 -1.140625 C 3.035156 -0.890625 3.144531 -0.679688 3.3125 -0.515625 C 3.488281 -0.359375 3.757812 -0.28125 4.125 -0.28125 C 4.53125 -0.28125 4.898438 -0.410156 5.234375 -0.671875 C 5.566406 -0.929688 5.820312 -1.28125 6 -1.71875 C 6.1875 -2.164062 6.28125 -2.65625 6.28125 -3.1875 L 6.28125 -6.5 C 6.28125 -6.988281 6.191406 -7.34375 6.015625 -7.5625 C 5.835938 -7.789062 5.523438 -7.90625 5.078125 -7.90625 L 5.078125 -8.234375 C 5.398438 -8.203125 5.726562 -8.1875 6.0625 -8.1875 C 6.738281 -8.1875 7.296875 -8.265625 7.734375 -8.421875 Z M 7.734375 -1.734375" transform="translate(192.267 234.115)"/></g></g></g><g fill="#011936"><g><g><path d="M 5.4375 -8.46875 C 5.863281 -8.46875 6.210938 -8.34375 6.484375 -8.09375 C 6.753906 -7.851562 6.890625 -7.554688 6.890625 -7.203125 C 6.890625 -6.921875 6.804688 -6.679688 6.640625 -6.484375 C 6.484375 -6.285156 6.265625 -6.1875 5.984375 -6.1875 C 5.742188 -6.1875 5.539062 -6.257812 5.375 -6.40625 C 5.21875 -6.5625 5.140625 -6.769531 5.140625 -7.03125 C 5.140625 -7.375 5.320312 -7.660156 5.6875 -7.890625 C 5.601562 -7.992188 5.488281 -8.046875 5.34375 -8.046875 C 4.925781 -8.046875 4.546875 -7.882812 4.203125 -7.5625 C 3.867188 -7.238281 3.601562 -6.835938 3.40625 -6.359375 C 3.21875 -5.890625 3.125 -5.453125 3.125 -5.046875 L 3.125 -1.640625 C 3.125 -1.148438 3.265625 -0.8125 3.546875 -0.625 C 3.828125 -0.4375 4.25 -0.34375 4.8125 -0.34375 L 4.8125 0 L 4.4375 -0.015625 C 3.34375 -0.046875 2.648438 -0.0625 2.359375 -0.0625 C 2.078125 -0.0625 1.445312 -0.0390625 0.46875 0 L 0.46875 -0.34375 C 0.914062 -0.34375 1.226562 -0.421875 1.40625 -0.578125 C 1.59375 -0.742188 1.6875 -1.046875 1.6875 -1.484375 L 1.6875 -6.5 C 1.6875 -6.988281 1.59375 -7.34375 1.40625 -7.5625 C 1.226562 -7.789062 0.914062 -7.90625 0.46875 -7.90625 L 0.46875 -8.234375 C 0.800781 -8.203125 1.128906 -8.1875 1.453125 -8.1875 C 2.128906 -8.1875 2.6875 -8.265625 3.125 -8.421875 L 3.125 -6.421875 C 3.3125 -6.953125 3.613281 -7.425781 4.03125 -7.84375 C 4.457031 -8.257812 4.925781 -8.46875 5.4375 -8.46875 Z M 5.4375 -8.46875" transform="translate(201.56 234.115)"/></g></g></g><g fill="#011936"><g><g><path d="M 7.40625 -1.921875 C 7.21875 -1.335938 6.859375 -0.832031 6.328125 -0.40625 C 5.796875 0.0078125 5.160156 0.21875 4.421875 0.21875 C 3.660156 0.21875 3 0.046875 2.4375 -0.296875 C 1.882812 -0.640625 1.460938 -1.125 1.171875 -1.75 C 0.878906 -2.375 0.734375 -3.097656 0.734375 -3.921875 C 0.734375 -4.847656 0.878906 -5.648438 1.171875 -6.328125 C 1.472656 -7.015625 1.894531 -7.539062 2.4375 -7.90625 C 2.988281 -8.28125 3.628906 -8.46875 4.359375 -8.46875 C 5.316406 -8.46875 6.050781 -8.175781 6.5625 -7.59375 C 7.082031 -7.007812 7.34375 -6.125 7.34375 -4.9375 L 2.34375 -4.9375 C 2.300781 -4.644531 2.28125 -4.304688 2.28125 -3.921875 C 2.28125 -3.210938 2.394531 -2.597656 2.625 -2.078125 C 2.851562 -1.554688 3.15625 -1.15625 3.53125 -0.875 C 3.914062 -0.59375 4.316406 -0.453125 4.734375 -0.453125 C 5.242188 -0.453125 5.695312 -0.570312 6.09375 -0.8125 C 6.488281 -1.0625 6.820312 -1.472656 7.09375 -2.046875 Z M 4.28125 -8.15625 C 3.78125 -8.15625 3.347656 -7.910156 2.984375 -7.421875 C 2.628906 -6.929688 2.40625 -6.207031 2.3125 -5.25 L 5.8125 -5.25 C 5.832031 -6.082031 5.710938 -6.773438 5.453125 -7.328125 C 5.191406 -7.878906 4.800781 -8.15625 4.28125 -8.15625 Z M 4.28125 -8.15625" transform="translate(208.679 234.115)"/></g></g></g><g fill="#011936"><g><g><path d="M 4.390625 -8.46875 C 5.472656 -8.46875 6.347656 -8.101562 7.015625 -7.375 C 7.679688 -6.65625 8.015625 -5.566406 8.015625 -4.109375 C 8.015625 -2.648438 7.679688 -1.5625 7.015625 -0.84375 C 6.347656 -0.132812 5.472656 0.21875 4.390625 0.21875 C 3.296875 0.21875 2.414062 -0.132812 1.75 -0.84375 C 1.082031 -1.5625 0.75 -2.648438 0.75 -4.109375 C 0.75 -5.566406 1.082031 -6.65625 1.75 -7.375 C 2.414062 -8.101562 3.296875 -8.46875 4.390625 -8.46875 Z M 4.390625 -8.140625 C 3.742188 -8.140625 3.234375 -7.8125 2.859375 -7.15625 C 2.484375 -6.5 2.296875 -5.484375 2.296875 -4.109375 C 2.296875 -2.734375 2.484375 -1.71875 2.859375 -1.0625 C 3.234375 -0.414062 3.742188 -0.09375 4.390625 -0.09375 C 5.023438 -0.09375 5.53125 -0.414062 5.90625 -1.0625 C 6.28125 -1.71875 6.46875 -2.734375 6.46875 -4.109375 C 6.46875 -5.484375 6.28125 -6.5 5.90625 -7.15625 C 5.53125 -7.8125 5.023438 -8.140625 4.390625 -8.140625 Z M 4.390625 -8.140625" transform="translate(220.756 234.115)"/></g></g></g><g fill="#011936"><g><g><path d="M 4.421875 -12.515625 C 4.972656 -12.515625 5.4375 -12.367188 5.8125 -12.078125 C 6.132812 -11.816406 6.296875 -11.488281 6.296875 -11.09375 C 6.296875 -10.84375 6.21875 -10.632812 6.0625 -10.46875 C 5.90625 -10.3125 5.703125 -10.234375 5.453125 -10.234375 C 5.210938 -10.234375 5.003906 -10.3125 4.828125 -10.46875 C 4.660156 -10.625 4.578125 -10.835938 4.578125 -11.109375 C 4.578125 -11.328125 4.632812 -11.503906 4.75 -11.640625 C 4.875 -11.785156 5.039062 -11.878906 5.25 -11.921875 C 5.21875 -12.023438 5.128906 -12.109375 4.984375 -12.171875 C 4.847656 -12.234375 4.675781 -12.265625 4.46875 -12.265625 C 4.226562 -12.265625 4.015625 -12.210938 3.828125 -12.109375 C 3.648438 -12.003906 3.515625 -11.863281 3.421875 -11.6875 C 3.304688 -11.46875 3.226562 -11.148438 3.1875 -10.734375 C 3.15625 -10.316406 3.140625 -9.617188 3.140625 -8.640625 L 3.140625 -8.21875 L 4.84375 -8.21875 L 4.84375 -7.90625 L 3.140625 -7.90625 L 3.140625 -1.640625 C 3.140625 -1.148438 3.28125 -0.8125 3.5625 -0.625 C 3.84375 -0.4375 4.265625 -0.34375 4.828125 -0.34375 L 4.828125 0 L 4.453125 -0.015625 C 3.359375 -0.046875 2.664062 -0.0625 2.375 -0.0625 C 2.09375 -0.0625 1.460938 -0.0390625 0.484375 0 L 0.484375 -0.34375 C 0.929688 -0.34375 1.242188 -0.421875 1.421875 -0.578125 C 1.609375 -0.742188 1.703125 -1.046875 1.703125 -1.484375 L 1.703125 -7.90625 L 0.421875 -7.90625 L 0.421875 -8.21875 L 1.703125 -8.21875 C 1.703125 -9.15625 1.757812 -9.878906 1.875 -10.390625 C 1.988281 -10.910156 2.203125 -11.351562 2.515625 -11.71875 C 2.722656 -11.957031 2.992188 -12.148438 3.328125 -12.296875 C 3.660156 -12.441406 4.023438 -12.515625 4.421875 -12.515625 Z M 4.421875 -12.515625" transform="translate(229.522 234.115)"/></g></g></g><g fill="#011936"><g><g><path d="M 3.046875 -8.21875 L 5.40625 -8.21875 L 5.40625 -7.90625 L 3.046875 -7.90625 L 3.046875 -1.71875 C 3.046875 -1.226562 3.128906 -0.878906 3.296875 -0.671875 C 3.472656 -0.460938 3.726562 -0.359375 4.0625 -0.359375 C 4.394531 -0.359375 4.675781 -0.488281 4.90625 -0.75 C 5.144531 -1.019531 5.34375 -1.457031 5.5 -2.0625 L 5.828125 -1.984375 C 5.554688 -0.515625 4.863281 0.21875 3.75 0.21875 C 3.382812 0.21875 3.082031 0.175781 2.84375 0.09375 C 2.613281 0.0078125 2.40625 -0.117188 2.21875 -0.296875 C 1.988281 -0.535156 1.828125 -0.828125 1.734375 -1.171875 C 1.640625 -1.515625 1.59375 -1.972656 1.59375 -2.546875 L 1.59375 -7.90625 L 0.0625 -7.90625 L 0.0625 -8.21875 L 1.59375 -8.21875 L 1.59375 -10.671875 C 2.195312 -10.691406 2.679688 -10.765625 3.046875 -10.890625 Z M 3.046875 -8.21875" transform="translate(238.816 234.115)"/></g></g></g><g fill="#011936"><g><g><path d="M 2.96875 -6.546875 C 3.238281 -7.210938 3.609375 -7.695312 4.078125 -8 C 4.554688 -8.3125 5.097656 -8.46875 5.703125 -8.46875 C 6.441406 -8.46875 7.003906 -8.265625 7.390625 -7.859375 C 7.597656 -7.640625 7.742188 -7.367188 7.828125 -7.046875 C 7.910156 -6.734375 7.953125 -6.304688 7.953125 -5.765625 L 7.953125 -1.484375 C 7.953125 -1.046875 8.039062 -0.742188 8.21875 -0.578125 C 8.40625 -0.421875 8.722656 -0.34375 9.171875 -0.34375 L 9.171875 0 C 8.191406 -0.0390625 7.550781 -0.0625 7.25 -0.0625 C 6.945312 -0.0625 6.347656 -0.0390625 5.453125 0 L 5.453125 -0.34375 C 5.847656 -0.34375 6.125 -0.421875 6.28125 -0.578125 C 6.4375 -0.742188 6.515625 -1.046875 6.515625 -1.484375 L 6.515625 -6.109375 C 6.515625 -6.710938 6.425781 -7.171875 6.25 -7.484375 C 6.082031 -7.796875 5.738281 -7.953125 5.21875 -7.953125 C 4.78125 -7.953125 4.390625 -7.828125 4.046875 -7.578125 C 3.710938 -7.335938 3.445312 -6.992188 3.25 -6.546875 C 3.0625 -6.109375 2.96875 -5.613281 2.96875 -5.0625 L 2.96875 -1.484375 C 2.96875 -1.046875 3.046875 -0.742188 3.203125 -0.578125 C 3.359375 -0.421875 3.632812 -0.34375 4.03125 -0.34375 L 4.03125 0 C 3.132812 -0.0390625 2.535156 -0.0625 2.234375 -0.0625 C 1.941406 -0.0625 1.300781 -0.0390625 0.3125 0 L 0.3125 -0.34375 C 0.757812 -0.34375 1.070312 -0.421875 1.25 -0.578125 C 1.4375 -0.742188 1.53125 -1.046875 1.53125 -1.484375 L 1.53125 -10.609375 C 1.53125 -11.097656 1.4375 -11.453125 1.25 -11.671875 C 1.070312 -11.898438 0.757812 -12.015625 0.3125 -12.015625 L 0.3125 -12.359375 C 0.65625 -12.316406 0.988281 -12.296875 1.3125 -12.296875 C 1.976562 -12.296875 2.53125 -12.375 2.96875 -12.53125 Z M 2.96875 -6.546875" transform="translate(244.478 234.115)"/></g></g></g><g fill="#011936"><g><g><path d="M 7.40625 -1.921875 C 7.21875 -1.335938 6.859375 -0.832031 6.328125 -0.40625 C 5.796875 0.0078125 5.160156 0.21875 4.421875 0.21875 C 3.660156 0.21875 3 0.046875 2.4375 -0.296875 C 1.882812 -0.640625 1.460938 -1.125 1.171875 -1.75 C 0.878906 -2.375 0.734375 -3.097656 0.734375 -3.921875 C 0.734375 -4.847656 0.878906 -5.648438 1.171875 -6.328125 C 1.472656 -7.015625 1.894531 -7.539062 2.4375 -7.90625 C 2.988281 -8.28125 3.628906 -8.46875 4.359375 -8.46875 C 5.316406 -8.46875 6.050781 -8.175781 6.5625 -7.59375 C 7.082031 -7.007812 7.34375 -6.125 7.34375 -4.9375 L 2.34375 -4.9375 C 2.300781 -4.644531 2.28125 -4.304688 2.28125 -3.921875 C 2.28125 -3.210938 2.394531 -2.597656 2.625 -2.078125 C 2.851562 -1.554688 3.15625 -1.15625 3.53125 -0.875 C 3.914062 -0.59375 4.316406 -0.453125 4.734375 -0.453125 C 5.242188 -0.453125 5.695312 -0.570312 6.09375 -0.8125 C 6.488281 -1.0625 6.820312 -1.472656 7.09375 -2.046875 Z M 4.28125 -8.15625 C 3.78125 -8.15625 3.347656 -7.910156 2.984375 -7.421875 C 2.628906 -6.929688 2.40625 -6.207031 2.3125 -5.25 L 5.8125 -5.25 C 5.832031 -6.082031 5.710938 -6.773438 5.453125 -7.328125 C 5.191406 -7.878906 4.800781 -8.15625 4.28125 -8.15625 Z M 4.28125 -8.15625" transform="translate(253.884 234.115)"/></g></g></g><g fill="#011936"><g><g><path d="M 5.046875 -11.328125 C 6.929688 -11.328125 8.34375 -10.851562 9.28125 -9.90625 C 10.21875 -8.96875 10.6875 -7.597656 10.6875 -5.796875 C 10.6875 -4.628906 10.457031 -3.609375 10 -2.734375 C 9.539062 -1.859375 8.875 -1.179688 8 -0.703125 C 7.132812 -0.234375 6.097656 0 4.890625 0 L 3.96875 -0.015625 C 3.375 -0.0351562 2.9375 -0.046875 2.65625 -0.046875 C 1.78125 -0.046875 1.117188 -0.03125 0.671875 0 L 0.671875 -0.3125 C 1.054688 -0.34375 1.335938 -0.390625 1.515625 -0.453125 C 1.691406 -0.515625 1.8125 -0.632812 1.875 -0.8125 C 1.9375 -1 1.96875 -1.296875 1.96875 -1.703125 L 1.96875 -9.625 C 1.96875 -10.03125 1.9375 -10.320312 1.875 -10.5 C 1.8125 -10.6875 1.691406 -10.8125 1.515625 -10.875 C 1.335938 -10.9375 1.054688 -10.984375 0.671875 -11.015625 L 0.671875 -11.328125 C 1.046875 -11.296875 1.5625 -11.28125 2.21875 -11.28125 L 3.578125 -11.296875 C 4.304688 -11.316406 4.796875 -11.328125 5.046875 -11.328125 Z M 4.640625 -11.046875 C 4.304688 -11.046875 4.054688 -11.003906 3.890625 -10.921875 C 3.722656 -10.847656 3.609375 -10.710938 3.546875 -10.515625 C 3.484375 -10.328125 3.453125 -10.039062 3.453125 -9.65625 L 3.453125 -1.65625 C 3.453125 -1.28125 3.484375 -0.992188 3.546875 -0.796875 C 3.609375 -0.609375 3.722656 -0.472656 3.890625 -0.390625 C 4.054688 -0.316406 4.3125 -0.28125 4.65625 -0.28125 C 5.789062 -0.28125 6.679688 -0.484375 7.328125 -0.890625 C 7.972656 -1.304688 8.425781 -1.910156 8.6875 -2.703125 C 8.957031 -3.492188 9.09375 -4.503906 9.09375 -5.734375 C 9.09375 -6.953125 8.945312 -7.945312 8.65625 -8.71875 C 8.363281 -9.5 7.894531 -10.082031 7.25 -10.46875 C 6.601562 -10.851562 5.734375 -11.046875 4.640625 -11.046875 Z M 4.640625 -11.046875" transform="translate(265.961 234.115)"/></g></g></g><g fill="#011936"><g><g><path d="M 2.609375 0.109375 C 1.929688 0.109375 1.429688 -0.0546875 1.109375 -0.390625 C 0.785156 -0.722656 0.625 -1.191406 0.625 -1.796875 C 0.625 -2.273438 0.753906 -2.664062 1.015625 -2.96875 C 1.273438 -3.28125 1.582031 -3.523438 1.9375 -3.703125 C 2.300781 -3.890625 2.773438 -4.082031 3.359375 -4.28125 C 3.953125 -4.488281 4.394531 -4.675781 4.6875 -4.84375 C 4.976562 -5.019531 5.125 -5.25 5.125 -5.53125 L 5.125 -6.53125 C 5.125 -7.144531 4.992188 -7.566406 4.734375 -7.796875 C 4.472656 -8.023438 4.101562 -8.140625 3.625 -8.140625 C 2.882812 -8.140625 2.359375 -7.945312 2.046875 -7.5625 C 2.265625 -7.507812 2.441406 -7.394531 2.578125 -7.21875 C 2.722656 -7.050781 2.796875 -6.84375 2.796875 -6.59375 C 2.796875 -6.320312 2.707031 -6.109375 2.53125 -5.953125 C 2.363281 -5.804688 2.148438 -5.734375 1.890625 -5.734375 C 1.585938 -5.734375 1.359375 -5.820312 1.203125 -6 C 1.054688 -6.1875 0.984375 -6.414062 0.984375 -6.6875 C 0.984375 -6.945312 1.046875 -7.160156 1.171875 -7.328125 C 1.296875 -7.492188 1.484375 -7.664062 1.734375 -7.84375 C 1.984375 -8.019531 2.304688 -8.164062 2.703125 -8.28125 C 3.097656 -8.40625 3.53125 -8.46875 4 -8.46875 C 4.832031 -8.46875 5.460938 -8.269531 5.890625 -7.875 C 6.148438 -7.625 6.328125 -7.328125 6.421875 -6.984375 C 6.515625 -6.640625 6.5625 -6.179688 6.5625 -5.609375 L 6.5625 -1.171875 C 6.5625 -0.898438 6.597656 -0.707031 6.671875 -0.59375 C 6.742188 -0.476562 6.875 -0.421875 7.0625 -0.421875 C 7.1875 -0.421875 7.300781 -0.445312 7.40625 -0.5 C 7.519531 -0.5625 7.644531 -0.644531 7.78125 -0.75 L 7.953125 -0.484375 C 7.671875 -0.265625 7.429688 -0.109375 7.234375 -0.015625 C 7.035156 0.0664062 6.789062 0.109375 6.5 0.109375 C 5.988281 0.109375 5.628906 -0.015625 5.421875 -0.265625 C 5.222656 -0.523438 5.125 -0.875 5.125 -1.3125 C 4.800781 -0.78125 4.429688 -0.410156 4.015625 -0.203125 C 3.597656 0.00390625 3.128906 0.109375 2.609375 0.109375 Z M 3.3125 -0.53125 C 4.019531 -0.53125 4.625 -0.9375 5.125 -1.75 L 5.125 -4.875 C 5.019531 -4.726562 4.882812 -4.609375 4.71875 -4.515625 C 4.550781 -4.421875 4.289062 -4.289062 3.9375 -4.125 C 3.53125 -3.957031 3.203125 -3.796875 2.953125 -3.640625 C 2.703125 -3.484375 2.484375 -3.269531 2.296875 -3 C 2.117188 -2.738281 2.03125 -2.398438 2.03125 -1.984375 C 2.03125 -1.503906 2.144531 -1.140625 2.375 -0.890625 C 2.613281 -0.648438 2.925781 -0.53125 3.3125 -0.53125 Z M 3.3125 -0.53125" transform="translate(277.526 234.115)"/></g></g></g><g fill="#011936"><g><g><path d="M 6.6875 -8.1875 C 7.15625 -8.1875 7.5625 -8.203125 7.90625 -8.234375 L 7.90625 -7.921875 C 7.6875 -7.898438 7.492188 -7.800781 7.328125 -7.625 C 7.171875 -7.457031 7.015625 -7.179688 6.859375 -6.796875 L 4.234375 0.078125 L 3.703125 1.46875 C 3.492188 1.988281 3.265625 2.363281 3.015625 2.59375 C 2.847656 2.738281 2.648438 2.84375 2.421875 2.90625 C 2.203125 2.976562 1.984375 3.015625 1.765625 3.015625 C 1.441406 3.015625 1.175781 2.925781 0.96875 2.75 C 0.769531 2.582031 0.671875 2.347656 0.671875 2.046875 C 0.671875 1.785156 0.742188 1.578125 0.890625 1.421875 C 1.046875 1.273438 1.253906 1.203125 1.515625 1.203125 C 1.753906 1.203125 1.953125 1.265625 2.109375 1.390625 C 2.265625 1.523438 2.34375 1.710938 2.34375 1.953125 C 2.34375 2.273438 2.195312 2.515625 1.90625 2.671875 C 1.925781 2.679688 1.957031 2.6875 2 2.6875 C 2.582031 2.6875 3.035156 2.269531 3.359375 1.4375 L 3.921875 -0.015625 L 1.03125 -7.015625 C 0.84375 -7.367188 0.65625 -7.601562 0.46875 -7.71875 C 0.289062 -7.84375 0.113281 -7.90625 -0.0625 -7.90625 L -0.0625 -8.234375 C 0.394531 -8.171875 0.914062 -8.140625 1.5 -8.140625 C 2.03125 -8.140625 2.722656 -8.171875 3.578125 -8.234375 L 3.578125 -7.90625 C 3.203125 -7.90625 2.925781 -7.875 2.75 -7.8125 C 2.570312 -7.75 2.484375 -7.59375 2.484375 -7.34375 C 2.484375 -7.125 2.546875 -6.863281 2.671875 -6.5625 L 4.59375 -1.796875 L 6.375 -6.421875 C 6.488281 -6.734375 6.546875 -6.976562 6.546875 -7.15625 C 6.546875 -7.394531 6.445312 -7.570312 6.25 -7.6875 C 6.0625 -7.8125 5.757812 -7.890625 5.34375 -7.921875 L 5.34375 -8.234375 C 5.90625 -8.203125 6.351562 -8.1875 6.6875 -8.1875 Z M 6.6875 -8.1875" transform="translate(285.492 234.115)"/></g></g></g></svg>